SplineFontDB: 3.2
FontName: StayPixel-Regular
FullName: Stay Pixel Regular
FamilyName: Stay Pixel
Weight: Book
Copyright: Copyright (c) Niskala Huruf
Version: 1.000
ItalicAngle: 0
UnderlinePosition: -125
UnderlineWidth: 50
Ascent: 800
Descent: 200
InvalidEm: 0
sfntRevision: 0x00010000
LayerCount: 2
Layer: 0 1 "Back" 1
Layer: 1 1 "Fore" 0
XUID: [1021 137 204939057 27224]
StyleMap: 0x0040
FSType: 4
OS2Version: 4
OS2_WeightWidthSlopeOnly: 0
OS2_UseTypoMetrics: 1
CreationTime: 1622187403
ModificationTime: 1714640864
PfmFamily: 81
TTFWeight: 400
TTFWidth: 5
LineGap: 400
VLineGap: 0
Panose: 0 0 0 0 0 0 0 0 0 0
OS2TypoAscent: 673
OS2TypoAOffset: 0
OS2TypoDescent: -127
OS2TypoDOffset: 0
OS2TypoLinegap: 400
OS2WinAscent: 1073
OS2WinAOffset: 0
OS2WinDescent: 527
OS2WinDOffset: 0
HheadAscent: 673
HheadAOffset: 0
HheadDescent: -127
HheadDOffset: 0
OS2SubXSize: 650
OS2SubYSize: 600
OS2SubXOff: 0
OS2SubYOff: 75
OS2SupXSize: 650
OS2SupYSize: 600
OS2SupXOff: 0
OS2SupYOff: 350
OS2StrikeYSize: 50
OS2StrikeYPos: 50
OS2CapHeight: 673
OS2XHeight: 430
OS2Vendor: '    '
OS2CodePages: 00000001.00000000
OS2UnicodeRanges: 00000003.00000000.00000000.00000000
Lookup: 1 0 0 "'aalt' Access All Alternates lookup 0" { "'aalt' Access All Alternates lookup 0 subtable"  } ['aalt' ('DFLT' <'dflt' > 'grek' <'dflt' > 'latn' <'dflt' > ) ]
Lookup: 1 0 0 "'sups' Superscript lookup 1" { "'sups' Superscript lookup 1 subtable" ("superior") } ['sups' ('DFLT' <'dflt' > 'grek' <'dflt' > 'latn' <'dflt' > ) ]
Lookup: 4 0 0 "'frac' Diagonal Fractions lookup 2" { "'frac' Diagonal Fractions lookup 2 subtable"  } ['frac' ('DFLT' <'dflt' > 'grek' <'dflt' > 'latn' <'dflt' > ) ]
Lookup: 6 0 0 "'ordn' Ordinals lookup 3" { "'ordn' Ordinals lookup 3 contextual 0"  "'ordn' Ordinals lookup 3 contextual 1"  } ['ordn' ('DFLT' <'dflt' > 'grek' <'dflt' > 'latn' <'dflt' > ) ]

StartChar: O
Encoding: 79 79 4
Width: 514
GlyphClass: 2
Flags: W
LayerCount: 2
Fore
SplineSet
21 473 m 1,0,-1
 46 473 l 1,1,-1
 46 548 l 1,2,-1
 71 548 l 1,3,-1
 71 598 l 1,4,-1
 96 598 l 1,5,-1
 96 623 l 1,6,-1
 121 623 l 1,7,-1
 121 648 l 1,8,-1
 171 648 l 1,9,-1
 171 673 l 1,10,-1
 346 673 l 1,11,-1
 346 648 l 1,12,-1
 396 648 l 1,13,-1
 396 623 l 1,14,-1
 421 623 l 1,15,-1
 421 598 l 1,16,-1
 446 598 l 1,17,-1
 446 548 l 1,18,-1
 471 548 l 1,19,-1
 471 473 l 1,20,-1
 496 473 l 1,21,-1
 496 173 l 1,22,-1
 471 173 l 1,23,-1
 471 98 l 1,24,-1
 446 98 l 1,25,-1
 446 48 l 1,26,-1
 421 48 l 1,27,-1
 421 23 l 1,28,-1
 396 23 l 1,29,-1
 396 -2 l 1,30,-1
 346 -2 l 1,31,-1
 346 -27 l 1,32,-1
 171 -27 l 1,33,-1
 171 -2 l 1,34,-1
 121 -2 l 1,35,-1
 121 23 l 1,36,-1
 96 23 l 1,37,-1
 96 48 l 1,38,-1
 71 48 l 1,39,-1
 71 98 l 1,40,-1
 46 98 l 1,41,-1
 46 173 l 1,42,-1
 21 173 l 1,43,-1
 21 473 l 1,0,-1
296 173 m 1,44,-1
 321 173 l 1,45,-1
 321 198 l 1,46,-1
 346 198 l 1,47,-1
 346 423 l 1,48,-1
 321 423 l 1,49,-1
 321 448 l 1,50,-1
 296 448 l 1,51,-1
 296 498 l 1,52,-1
 271 498 l 1,53,-1
 271 523 l 1,54,-1
 246 523 l 1,55,-1
 246 498 l 1,56,-1
 221 498 l 1,57,-1
 221 448 l 1,58,-1
 196 448 l 1,59,-1
 196 423 l 1,60,-1
 171 423 l 1,61,-1
 171 198 l 1,62,-1
 196 198 l 1,63,-1
 196 173 l 1,64,-1
 221 173 l 1,65,-1
 221 123 l 1,66,-1
 246 123 l 1,67,-1
 246 98 l 1,68,-1
 271 98 l 1,69,-1
 271 123 l 1,70,-1
 296 123 l 1,71,-1
 296 173 l 1,44,-1
EndSplineSet
Validated: 1
Substitution2: "Single Substitution lookup 5 subtable" ordmasculine
EndChar

StartChar: H
Encoding: 72 72 5
Width: 491
GlyphClass: 2
Flags: W
LayerCount: 2
Fore
SplineSet
183 23 m 1,0,-1
 158 23 l 1,1,-1
 158 -2 l 1,2,-1
 133 -2 l 1,3,-1
 133 -27 l 1,4,-1
 83 -27 l 1,5,-1
 83 -2 l 1,6,-1
 58 -2 l 1,7,-1
 58 23 l 1,8,-1
 33 23 l 1,9,-1
 33 623 l 1,10,-1
 58 623 l 1,11,-1
 58 648 l 1,12,-1
 83 648 l 1,13,-1
 83 673 l 1,14,-1
 133 673 l 1,15,-1
 133 648 l 1,16,-1
 158 648 l 1,17,-1
 158 623 l 1,18,-1
 183 623 l 1,19,-1
 183 348 l 1,20,-1
 308 348 l 1,21,-1
 308 623 l 1,22,-1
 333 623 l 1,23,-1
 333 648 l 1,24,-1
 358 648 l 1,25,-1
 358 673 l 1,26,-1
 408 673 l 1,27,-1
 408 648 l 1,28,-1
 433 648 l 1,29,-1
 433 623 l 1,30,-1
 458 623 l 1,31,-1
 458 23 l 1,32,-1
 433 23 l 1,33,-1
 433 -2 l 1,34,-1
 408 -2 l 1,35,-1
 408 -27 l 1,36,-1
 358 -27 l 1,37,-1
 358 -2 l 1,38,-1
 333 -2 l 1,39,-1
 333 23 l 1,40,-1
 308 23 l 1,41,-1
 308 223 l 1,42,-1
 183 223 l 1,43,-1
 183 23 l 1,0,-1
EndSplineSet
Validated: 1
EndChar

StartChar: A
Encoding: 65 65 6
Width: 491
GlyphClass: 2
Flags: W
LayerCount: 2
Fore
SplineSet
56 323 m 1,0,-1
 81 323 l 1,1,-1
 81 423 l 1,2,-1
 106 423 l 1,3,-1
 106 523 l 1,4,-1
 131 523 l 1,5,-1
 131 623 l 1,6,-1
 156 623 l 1,7,-1
 156 648 l 1,8,-1
 206 648 l 1,9,-1
 206 673 l 1,10,-1
 281 673 l 1,11,-1
 281 648 l 1,12,-1
 331 648 l 1,13,-1
 331 623 l 1,14,-1
 356 623 l 1,15,-1
 356 523 l 1,16,-1
 381 523 l 1,17,-1
 381 423 l 1,18,-1
 406 423 l 1,19,-1
 406 323 l 1,20,-1
 431 323 l 1,21,-1
 431 223 l 1,22,-1
 456 223 l 1,23,-1
 456 123 l 1,24,-1
 481 123 l 1,25,-1
 481 -2 l 1,26,-1
 456 -2 l 1,27,-1
 456 -27 l 1,28,-1
 356 -27 l 1,29,-1
 356 23 l 1,30,-1
 331 23 l 1,31,-1
 331 98 l 1,32,-1
 156 98 l 1,33,-1
 156 23 l 1,34,-1
 131 23 l 1,35,-1
 131 -27 l 1,36,-1
 31 -27 l 1,37,-1
 31 -2 l 1,38,-1
 6 -2 l 1,39,-1
 6 123 l 1,40,-1
 31 123 l 1,41,-1
 31 223 l 1,42,-1
 56 223 l 1,43,-1
 56 323 l 1,0,-1
306 298 m 1,44,-1
 281 298 l 1,45,-1
 281 398 l 1,46,-1
 256 398 l 1,47,-1
 256 473 l 1,48,-1
 231 473 l 1,49,-1
 231 398 l 1,50,-1
 206 398 l 1,51,-1
 206 298 l 1,52,-1
 181 298 l 1,53,-1
 181 223 l 1,54,-1
 306 223 l 1,55,-1
 306 298 l 1,44,-1
EndSplineSet
Validated: 1
Substitution2: "Single Substitution lookup 5 subtable" ordfeminine
EndChar

StartChar: I
Encoding: 73 73 7
Width: 215
GlyphClass: 2
Flags: W
LayerCount: 2
Fore
SplineSet
33 623 m 1,0,-1
 58 623 l 1,1,-1
 58 648 l 1,2,-1
 83 648 l 1,3,-1
 83 673 l 1,4,-1
 133 673 l 1,5,-1
 133 648 l 1,6,-1
 158 648 l 1,7,-1
 158 623 l 1,8,-1
 183 623 l 1,9,-1
 183 23 l 1,10,-1
 158 23 l 1,11,-1
 158 -2 l 1,12,-1
 133 -2 l 1,13,-1
 133 -27 l 1,14,-1
 83 -27 l 1,15,-1
 83 -2 l 1,16,-1
 58 -2 l 1,17,-1
 58 23 l 1,18,-1
 33 23 l 1,19,-1
 33 623 l 1,0,-1
EndSplineSet
Validated: 1
EndChar

StartChar: E
Encoding: 69 69 8
Width: 404
GlyphClass: 2
Flags: W
LayerCount: 2
Fore
SplineSet
30 598 m 1,0,-1
 55 598 l 1,1,-1
 55 623 l 1,2,-1
 80 623 l 1,3,-1
 80 648 l 1,4,-1
 105 648 l 1,5,-1
 105 673 l 1,6,-1
 330 673 l 1,7,-1
 330 648 l 1,8,-1
 355 648 l 1,9,-1
 355 623 l 1,10,-1
 380 623 l 1,11,-1
 380 548 l 1,12,-1
 180 548 l 1,13,-1
 180 373 l 1,14,-1
 330 373 l 1,15,-1
 330 348 l 1,16,-1
 355 348 l 1,17,-1
 355 298 l 1,18,-1
 330 298 l 1,19,-1
 330 273 l 1,20,-1
 180 273 l 1,21,-1
 180 98 l 1,22,-1
 355 98 l 1,23,-1
 355 73 l 1,24,-1
 380 73 l 1,25,-1
 380 -2 l 1,26,-1
 355 -2 l 1,27,-1
 355 -27 l 1,28,-1
 105 -27 l 1,29,-1
 105 -2 l 1,30,-1
 80 -2 l 1,31,-1
 80 23 l 1,32,-1
 55 23 l 1,33,-1
 55 48 l 1,34,-1
 30 48 l 1,35,-1
 30 598 l 1,0,-1
EndSplineSet
Validated: 1
EndChar

StartChar: F
Encoding: 70 70 9
Width: 383
GlyphClass: 2
Flags: W
LayerCount: 2
Fore
SplineSet
30 23 m 1,0,-1
 30 598 l 1,1,-1
 55 598 l 1,2,-1
 55 623 l 1,3,-1
 80 623 l 1,4,-1
 80 648 l 1,5,-1
 105 648 l 1,6,-1
 105 673 l 1,7,-1
 330 673 l 1,8,-1
 330 648 l 1,9,-1
 355 648 l 1,10,-1
 355 623 l 1,11,-1
 380 623 l 1,12,-1
 380 548 l 1,13,-1
 180 548 l 1,14,-1
 180 348 l 1,15,-1
 330 348 l 1,16,-1
 330 323 l 1,17,-1
 355 323 l 1,18,-1
 355 273 l 1,19,-1
 330 273 l 1,20,-1
 330 248 l 1,21,-1
 180 248 l 1,22,-1
 180 23 l 1,23,-1
 155 23 l 1,24,-1
 155 -2 l 1,25,-1
 130 -2 l 1,26,-1
 130 -27 l 1,27,-1
 80 -27 l 1,28,-1
 80 -2 l 1,29,-1
 55 -2 l 1,30,-1
 55 23 l 1,31,-1
 30 23 l 1,0,-1
EndSplineSet
Validated: 1
EndChar

StartChar: P
Encoding: 80 80 10
Width: 468
GlyphClass: 2
Flags: W
LayerCount: 2
Fore
SplineSet
30 23 m 1,0,-1
 30 598 l 1,1,-1
 55 598 l 1,2,-1
 55 623 l 1,3,-1
 80 623 l 1,4,-1
 80 648 l 1,5,-1
 105 648 l 1,6,-1
 105 673 l 1,7,-1
 330 673 l 1,8,-1
 330 648 l 1,9,-1
 355 648 l 1,10,-1
 355 623 l 1,11,-1
 380 623 l 1,12,-1
 380 598 l 1,13,-1
 405 598 l 1,14,-1
 405 573 l 1,15,-1
 430 573 l 1,16,-1
 430 498 l 1,17,-1
 455 498 l 1,18,-1
 455 348 l 1,19,-1
 430 348 l 1,20,-1
 430 273 l 1,21,-1
 405 273 l 1,22,-1
 405 248 l 1,23,-1
 355 248 l 1,24,-1
 355 223 l 1,25,-1
 330 223 l 1,26,-1
 330 198 l 1,27,-1
 280 198 l 1,28,-1
 280 173 l 1,29,-1
 180 173 l 1,30,-1
 180 23 l 1,31,-1
 155 23 l 1,32,-1
 155 -2 l 1,33,-1
 130 -2 l 1,34,-1
 130 -27 l 1,35,-1
 80 -27 l 1,36,-1
 80 -2 l 1,37,-1
 55 -2 l 1,38,-1
 55 23 l 1,39,-1
 30 23 l 1,0,-1
180 273 m 1,40,-1
 230 273 l 1,41,-1
 230 298 l 1,42,-1
 255 298 l 1,43,-1
 255 323 l 1,44,-1
 280 323 l 1,45,-1
 280 348 l 1,46,-1
 305 348 l 1,47,-1
 305 498 l 1,48,-1
 280 498 l 1,49,-1
 280 523 l 1,50,-1
 255 523 l 1,51,-1
 255 548 l 1,52,-1
 230 548 l 1,53,-1
 230 573 l 1,54,-1
 180 573 l 1,55,-1
 180 273 l 1,40,-1
EndSplineSet
Validated: 1
EndChar

StartChar: D
Encoding: 68 68 11
Width: 473
GlyphClass: 2
Flags: W
LayerCount: 2
Fore
SplineSet
30 598 m 1,0,-1
 55 598 l 1,1,-1
 55 648 l 1,2,-1
 105 648 l 1,3,-1
 105 673 l 1,4,-1
 280 673 l 1,5,-1
 280 648 l 1,6,-1
 330 648 l 1,7,-1
 330 623 l 1,8,-1
 355 623 l 1,9,-1
 355 598 l 1,10,-1
 380 598 l 1,11,-1
 380 573 l 1,12,-1
 405 573 l 1,13,-1
 405 548 l 1,14,-1
 430 548 l 1,15,-1
 430 473 l 1,16,-1
 455 473 l 1,17,-1
 455 173 l 1,18,-1
 430 173 l 1,19,-1
 430 98 l 1,20,-1
 405 98 l 1,21,-1
 405 73 l 1,22,-1
 380 73 l 1,23,-1
 380 48 l 1,24,-1
 355 48 l 1,25,-1
 355 23 l 1,26,-1
 330 23 l 1,27,-1
 330 -2 l 1,28,-1
 305 -2 l 1,29,-1
 305 -27 l 1,30,-1
 105 -27 l 1,31,-1
 105 -2 l 1,32,-1
 55 -2 l 1,33,-1
 55 48 l 1,34,-1
 30 48 l 1,35,-1
 30 598 l 1,0,-1
280 173 m 1,36,-1
 305 173 l 1,37,-1
 305 473 l 1,38,-1
 280 473 l 1,39,-1
 280 498 l 1,40,-1
 255 498 l 1,41,-1
 255 523 l 1,42,-1
 230 523 l 1,43,-1
 230 548 l 1,44,-1
 180 548 l 1,45,-1
 180 98 l 1,46,-1
 230 98 l 1,47,-1
 230 123 l 1,48,-1
 255 123 l 1,49,-1
 255 148 l 1,50,-1
 280 148 l 1,51,-1
 280 173 l 1,36,-1
EndSplineSet
Validated: 1
EndChar

StartChar: C
Encoding: 67 67 12
Width: 469
GlyphClass: 2
Flags: W
LayerCount: 2
Fore
SplineSet
22 473 m 1,0,-1
 47 473 l 1,1,-1
 47 548 l 1,2,-1
 72 548 l 1,3,-1
 72 598 l 1,4,-1
 97 598 l 1,5,-1
 97 623 l 1,6,-1
 122 623 l 1,7,-1
 122 648 l 1,8,-1
 172 648 l 1,9,-1
 172 673 l 1,10,-1
 322 673 l 1,11,-1
 322 648 l 1,12,-1
 347 648 l 1,13,-1
 347 623 l 1,14,-1
 372 623 l 1,15,-1
 372 598 l 1,16,-1
 397 598 l 1,17,-1
 397 548 l 1,18,-1
 422 548 l 1,19,-1
 422 348 l 1,20,-1
 397 348 l 1,21,-1
 397 323 l 1,22,-1
 322 323 l 1,23,-1
 322 348 l 1,24,-1
 297 348 l 1,25,-1
 297 473 l 1,26,-1
 272 473 l 1,27,-1
 272 523 l 1,28,-1
 222 523 l 1,29,-1
 222 498 l 1,30,-1
 197 498 l 1,31,-1
 197 448 l 1,32,-1
 172 448 l 1,33,-1
 172 173 l 1,34,-1
 197 173 l 1,35,-1
 197 123 l 1,36,-1
 222 123 l 1,37,-1
 222 98 l 1,38,-1
 297 98 l 1,39,-1
 297 123 l 1,40,-1
 322 123 l 1,41,-1
 322 148 l 1,42,-1
 347 148 l 1,43,-1
 347 198 l 1,44,-1
 422 198 l 1,45,-1
 422 173 l 1,46,-1
 447 173 l 1,47,-1
 447 73 l 1,48,-1
 422 73 l 1,49,-1
 422 48 l 1,50,-1
 397 48 l 1,51,-1
 397 23 l 1,52,-1
 372 23 l 1,53,-1
 372 -2 l 1,54,-1
 322 -2 l 1,55,-1
 322 -27 l 1,56,-1
 172 -27 l 1,57,-1
 172 -2 l 1,58,-1
 122 -2 l 1,59,-1
 122 23 l 1,60,-1
 97 23 l 1,61,-1
 97 48 l 1,62,-1
 72 48 l 1,63,-1
 72 98 l 1,64,-1
 47 98 l 1,65,-1
 47 148 l 1,66,-1
 22 148 l 1,67,-1
 22 473 l 1,0,-1
EndSplineSet
Validated: 1
EndChar

StartChar: B
Encoding: 66 66 13
Width: 477
GlyphClass: 2
Flags: W
LayerCount: 2
Fore
SplineSet
30 598 m 1,0,-1
 55 598 l 1,1,-1
 55 648 l 1,2,-1
 105 648 l 1,3,-1
 105 673 l 1,4,-1
 280 673 l 1,5,-1
 280 648 l 1,6,-1
 355 648 l 1,7,-1
 355 623 l 1,8,-1
 405 623 l 1,9,-1
 405 598 l 1,10,-1
 430 598 l 1,11,-1
 430 548 l 1,12,-1
 455 548 l 1,13,-1
 455 448 l 1,14,-1
 430 448 l 1,15,-1
 430 398 l 1,16,-1
 405 398 l 1,17,-1
 405 373 l 1,18,-1
 380 373 l 1,19,-1
 380 348 l 1,20,-1
 330 348 l 1,21,-1
 330 298 l 1,22,-1
 380 298 l 1,23,-1
 380 273 l 1,24,-1
 405 273 l 1,25,-1
 405 248 l 1,26,-1
 430 248 l 1,27,-1
 430 223 l 1,28,-1
 455 223 l 1,29,-1
 455 98 l 1,30,-1
 430 98 l 1,31,-1
 430 48 l 1,32,-1
 405 48 l 1,33,-1
 405 23 l 1,34,-1
 355 23 l 1,35,-1
 355 -2 l 1,36,-1
 305 -2 l 1,37,-1
 305 -27 l 1,38,-1
 105 -27 l 1,39,-1
 105 -2 l 1,40,-1
 55 -2 l 1,41,-1
 55 48 l 1,42,-1
 30 48 l 1,43,-1
 30 598 l 1,0,-1
180 398 m 1,44,-1
 255 398 l 1,45,-1
 255 423 l 1,46,-1
 280 423 l 1,47,-1
 280 448 l 1,48,-1
 305 448 l 1,49,-1
 305 548 l 1,50,-1
 280 548 l 1,51,-1
 280 573 l 1,52,-1
 180 573 l 1,53,-1
 180 398 l 1,44,-1
180 73 m 1,54,-1
 280 73 l 1,55,-1
 280 98 l 1,56,-1
 305 98 l 1,57,-1
 305 198 l 1,58,-1
 280 198 l 1,59,-1
 280 223 l 1,60,-1
 255 223 l 1,61,-1
 255 248 l 1,62,-1
 180 248 l 1,63,-1
 180 73 l 1,54,-1
EndSplineSet
Validated: 1
EndChar

StartChar: L
Encoding: 76 76 14
Width: 348
GlyphClass: 2
Flags: W
LayerCount: 2
Fore
SplineSet
30 623 m 1,0,-1
 55 623 l 1,1,-1
 55 648 l 1,2,-1
 80 648 l 1,3,-1
 80 673 l 1,4,-1
 130 673 l 1,5,-1
 130 648 l 1,6,-1
 155 648 l 1,7,-1
 155 623 l 1,8,-1
 180 623 l 1,9,-1
 180 98 l 1,10,-1
 305 98 l 1,11,-1
 305 73 l 1,12,-1
 330 73 l 1,13,-1
 330 -2 l 1,14,-1
 305 -2 l 1,15,-1
 305 -27 l 1,16,-1
 105 -27 l 1,17,-1
 105 -2 l 1,18,-1
 80 -2 l 1,19,-1
 80 23 l 1,20,-1
 55 23 l 1,21,-1
 55 48 l 1,22,-1
 30 48 l 1,23,-1
 30 623 l 1,0,-1
EndSplineSet
Validated: 1
EndChar

StartChar: K
Encoding: 75 75 15
Width: 472
GlyphClass: 2
Flags: W
LayerCount: 2
Fore
SplineSet
33 623 m 1,0,-1
 58 623 l 1,1,-1
 58 648 l 1,2,-1
 83 648 l 1,3,-1
 83 673 l 1,4,-1
 133 673 l 1,5,-1
 133 648 l 1,6,-1
 158 648 l 1,7,-1
 158 623 l 1,8,-1
 183 623 l 1,9,-1
 183 398 l 1,10,-1
 208 398 l 1,11,-1
 208 448 l 1,12,-1
 233 448 l 1,13,-1
 233 473 l 1,14,-1
 258 473 l 1,15,-1
 258 523 l 1,16,-1
 283 523 l 1,17,-1
 283 548 l 1,18,-1
 308 548 l 1,19,-1
 308 573 l 1,20,-1
 333 573 l 1,21,-1
 333 623 l 1,22,-1
 358 623 l 1,23,-1
 358 648 l 1,24,-1
 383 648 l 1,25,-1
 383 673 l 1,26,-1
 433 673 l 1,27,-1
 433 648 l 1,28,-1
 458 648 l 1,29,-1
 458 548 l 1,30,-1
 433 548 l 1,31,-1
 433 498 l 1,32,-1
 408 498 l 1,33,-1
 408 473 l 1,34,-1
 383 473 l 1,35,-1
 383 423 l 1,36,-1
 358 423 l 1,37,-1
 358 398 l 1,38,-1
 333 398 l 1,39,-1
 333 348 l 1,40,-1
 308 348 l 1,41,-1
 308 323 l 1,42,-1
 283 323 l 1,43,-1
 283 273 l 1,44,-1
 308 273 l 1,45,-1
 308 248 l 1,46,-1
 333 248 l 1,47,-1
 333 198 l 1,48,-1
 358 198 l 1,49,-1
 358 173 l 1,50,-1
 383 173 l 1,51,-1
 383 123 l 1,52,-1
 408 123 l 1,53,-1
 408 98 l 1,54,-1
 433 98 l 1,55,-1
 433 73 l 1,56,-1
 458 73 l 1,57,-1
 458 -2 l 1,58,-1
 433 -2 l 1,59,-1
 433 -27 l 1,60,-1
 358 -27 l 1,61,-1
 358 -2 l 1,62,-1
 333 -2 l 1,63,-1
 333 23 l 1,64,-1
 308 23 l 1,65,-1
 308 48 l 1,66,-1
 283 48 l 1,67,-1
 283 73 l 1,68,-1
 258 73 l 1,69,-1
 258 123 l 1,70,-1
 233 123 l 1,71,-1
 233 148 l 1,72,-1
 208 148 l 1,73,-1
 208 198 l 1,74,-1
 183 198 l 1,75,-1
 183 23 l 1,76,-1
 158 23 l 1,77,-1
 158 -2 l 1,78,-1
 133 -2 l 1,79,-1
 133 -27 l 1,80,-1
 83 -27 l 1,81,-1
 83 -2 l 1,82,-1
 58 -2 l 1,83,-1
 58 23 l 1,84,-1
 33 23 l 1,85,-1
 33 623 l 1,0,-1
EndSplineSet
Validated: 1
EndChar

StartChar: R
Encoding: 82 82 16
Width: 475
GlyphClass: 2
Flags: W
LayerCount: 2
Fore
SplineSet
30 23 m 1,0,-1
 30 598 l 1,1,-1
 55 598 l 1,2,-1
 55 623 l 1,3,-1
 80 623 l 1,4,-1
 80 648 l 1,5,-1
 105 648 l 1,6,-1
 105 673 l 1,7,-1
 330 673 l 1,8,-1
 330 648 l 1,9,-1
 355 648 l 1,10,-1
 355 623 l 1,11,-1
 380 623 l 1,12,-1
 380 598 l 1,13,-1
 405 598 l 1,14,-1
 405 573 l 1,15,-1
 430 573 l 1,16,-1
 430 498 l 1,17,-1
 455 498 l 1,18,-1
 455 373 l 1,19,-1
 430 373 l 1,20,-1
 430 323 l 1,21,-1
 405 323 l 1,22,-1
 405 298 l 1,23,-1
 380 298 l 1,24,-1
 380 273 l 1,25,-1
 355 273 l 1,26,-1
 355 248 l 1,27,-1
 280 248 l 1,28,-1
 280 223 l 1,29,-1
 305 223 l 1,30,-1
 305 198 l 1,31,-1
 330 198 l 1,32,-1
 330 173 l 1,33,-1
 355 173 l 1,34,-1
 355 148 l 1,35,-1
 380 148 l 1,36,-1
 380 123 l 1,37,-1
 405 123 l 1,38,-1
 405 98 l 1,39,-1
 430 98 l 1,40,-1
 430 73 l 1,41,-1
 455 73 l 1,42,-1
 455 -2 l 1,43,-1
 430 -2 l 1,44,-1
 430 -27 l 1,45,-1
 330 -27 l 1,46,-1
 330 -2 l 1,47,-1
 305 -2 l 1,48,-1
 305 23 l 1,49,-1
 280 23 l 1,50,-1
 280 48 l 1,51,-1
 255 48 l 1,52,-1
 255 73 l 1,53,-1
 230 73 l 1,54,-1
 230 98 l 1,55,-1
 205 98 l 1,56,-1
 205 148 l 1,57,-1
 180 148 l 1,58,-1
 180 23 l 1,59,-1
 155 23 l 1,60,-1
 155 -2 l 1,61,-1
 130 -2 l 1,62,-1
 130 -27 l 1,63,-1
 80 -27 l 1,64,-1
 80 -2 l 1,65,-1
 55 -2 l 1,66,-1
 55 23 l 1,67,-1
 30 23 l 1,0,-1
180 323 m 1,68,-1
 255 323 l 1,69,-1
 255 348 l 1,70,-1
 280 348 l 1,71,-1
 280 373 l 1,72,-1
 305 373 l 1,73,-1
 305 498 l 1,74,-1
 280 498 l 1,75,-1
 280 523 l 1,76,-1
 255 523 l 1,77,-1
 255 548 l 1,78,-1
 230 548 l 1,79,-1
 230 573 l 1,80,-1
 180 573 l 1,81,-1
 180 323 l 1,68,-1
EndSplineSet
Validated: 1
EndChar

StartChar: N
Encoding: 78 78 17
Width: 523
GlyphClass: 2
Flags: W
LayerCount: 2
Fore
SplineSet
33 623 m 1,0,-1
 58 623 l 1,1,-1
 58 648 l 1,2,-1
 83 648 l 1,3,-1
 83 673 l 1,4,-1
 133 673 l 1,5,-1
 133 648 l 1,6,-1
 158 648 l 1,7,-1
 158 623 l 1,8,-1
 183 623 l 1,9,-1
 183 573 l 1,10,-1
 208 573 l 1,11,-1
 208 523 l 1,12,-1
 233 523 l 1,13,-1
 233 473 l 1,14,-1
 258 473 l 1,15,-1
 258 423 l 1,16,-1
 283 423 l 1,17,-1
 283 373 l 1,18,-1
 308 373 l 1,19,-1
 308 348 l 1,20,-1
 333 348 l 1,21,-1
 333 623 l 1,22,-1
 358 623 l 1,23,-1
 358 648 l 1,24,-1
 383 648 l 1,25,-1
 383 673 l 1,26,-1
 433 673 l 1,27,-1
 433 648 l 1,28,-1
 458 648 l 1,29,-1
 458 623 l 1,30,-1
 483 623 l 1,31,-1
 483 23 l 1,32,-1
 458 23 l 1,33,-1
 458 -2 l 1,34,-1
 433 -2 l 1,35,-1
 433 -27 l 1,36,-1
 383 -27 l 1,37,-1
 383 -2 l 1,38,-1
 358 -2 l 1,39,-1
 358 23 l 1,40,-1
 333 23 l 1,41,-1
 333 48 l 1,42,-1
 308 48 l 1,43,-1
 308 98 l 1,44,-1
 283 98 l 1,45,-1
 283 148 l 1,46,-1
 258 148 l 1,47,-1
 258 198 l 1,48,-1
 233 198 l 1,49,-1
 233 248 l 1,50,-1
 208 248 l 1,51,-1
 208 273 l 1,52,-1
 183 273 l 1,53,-1
 183 23 l 1,54,-1
 158 23 l 1,55,-1
 158 -2 l 1,56,-1
 133 -2 l 1,57,-1
 133 -27 l 1,58,-1
 83 -27 l 1,59,-1
 83 -2 l 1,60,-1
 58 -2 l 1,61,-1
 58 23 l 1,62,-1
 33 23 l 1,63,-1
 33 623 l 1,0,-1
EndSplineSet
Validated: 1
EndChar

StartChar: M
Encoding: 77 77 18
Width: 687
GlyphClass: 2
Flags: W
LayerCount: 2
Fore
SplineSet
211 273 m 1,0,-1
 186 273 l 1,1,-1
 186 23 l 1,2,-1
 161 23 l 1,3,-1
 161 -2 l 1,4,-1
 136 -2 l 1,5,-1
 136 -27 l 1,6,-1
 86 -27 l 1,7,-1
 86 -2 l 1,8,-1
 61 -2 l 1,9,-1
 61 23 l 1,10,-1
 36 23 l 1,11,-1
 36 498 l 1,12,-1
 61 498 l 1,13,-1
 61 573 l 1,14,-1
 86 573 l 1,15,-1
 86 648 l 1,16,-1
 111 648 l 1,17,-1
 111 673 l 1,18,-1
 186 673 l 1,19,-1
 186 648 l 1,20,-1
 211 648 l 1,21,-1
 211 623 l 1,22,-1
 236 623 l 1,23,-1
 236 573 l 1,24,-1
 261 573 l 1,25,-1
 261 498 l 1,26,-1
 286 498 l 1,27,-1
 286 423 l 1,28,-1
 311 423 l 1,29,-1
 311 348 l 1,30,-1
 336 348 l 1,31,-1
 336 298 l 1,32,-1
 386 298 l 1,33,-1
 386 348 l 1,34,-1
 411 348 l 1,35,-1
 411 423 l 1,36,-1
 436 423 l 1,37,-1
 436 498 l 1,38,-1
 461 498 l 1,39,-1
 461 598 l 1,40,-1
 486 598 l 1,41,-1
 486 648 l 1,42,-1
 511 648 l 1,43,-1
 511 673 l 1,44,-1
 586 673 l 1,45,-1
 586 648 l 1,46,-1
 611 648 l 1,47,-1
 611 573 l 1,48,-1
 636 573 l 1,49,-1
 636 498 l 1,50,-1
 661 498 l 1,51,-1
 661 23 l 1,52,-1
 636 23 l 1,53,-1
 636 -2 l 1,54,-1
 611 -2 l 1,55,-1
 611 -27 l 1,56,-1
 561 -27 l 1,57,-1
 561 -2 l 1,58,-1
 536 -2 l 1,59,-1
 536 23 l 1,60,-1
 511 23 l 1,61,-1
 511 273 l 1,62,-1
 486 273 l 1,63,-1
 486 223 l 1,64,-1
 461 223 l 1,65,-1
 461 173 l 1,66,-1
 436 173 l 1,67,-1
 436 123 l 1,68,-1
 411 123 l 1,69,-1
 411 48 l 1,70,-1
 386 48 l 1,71,-1
 386 -2 l 1,72,-1
 311 -2 l 1,73,-1
 311 48 l 1,74,-1
 286 48 l 1,75,-1
 286 98 l 1,76,-1
 261 98 l 1,77,-1
 261 173 l 1,78,-1
 236 173 l 1,79,-1
 236 248 l 1,80,-1
 211 248 l 1,81,-1
 211 273 l 1,0,-1
EndSplineSet
Validated: 1
EndChar

StartChar: T
Encoding: 84 84 19
Width: 420
GlyphClass: 2
Flags: W
LayerCount: 2
Fore
SplineSet
135 23 m 1,0,-1
 135 548 l 1,1,-1
 10 548 l 1,2,-1
 10 623 l 1,3,-1
 35 623 l 1,4,-1
 35 648 l 1,5,-1
 60 648 l 1,6,-1
 60 673 l 1,7,-1
 360 673 l 1,8,-1
 360 648 l 1,9,-1
 385 648 l 1,10,-1
 385 623 l 1,11,-1
 410 623 l 1,12,-1
 410 548 l 1,13,-1
 285 548 l 1,14,-1
 285 23 l 1,15,-1
 260 23 l 1,16,-1
 260 -2 l 1,17,-1
 235 -2 l 1,18,-1
 235 -27 l 1,19,-1
 185 -27 l 1,20,-1
 185 -2 l 1,21,-1
 160 -2 l 1,22,-1
 160 23 l 1,23,-1
 135 23 l 1,0,-1
EndSplineSet
Validated: 1
EndChar

StartChar: S
Encoding: 83 83 20
Width: 466
GlyphClass: 2
Flags: W
LayerCount: 2
Fore
SplineSet
143 273 m 1,0,-1
 118 273 l 1,1,-1
 118 298 l 1,2,-1
 68 298 l 1,3,-1
 68 323 l 1,4,-1
 43 323 l 1,5,-1
 43 373 l 1,6,-1
 18 373 l 1,7,-1
 18 523 l 1,8,-1
 43 523 l 1,9,-1
 43 573 l 1,10,-1
 68 573 l 1,11,-1
 68 598 l 1,12,-1
 93 598 l 1,13,-1
 93 623 l 1,14,-1
 118 623 l 1,15,-1
 118 648 l 1,16,-1
 143 648 l 1,17,-1
 143 673 l 1,18,-1
 343 673 l 1,19,-1
 343 648 l 1,20,-1
 368 648 l 1,21,-1
 368 623 l 1,22,-1
 393 623 l 1,23,-1
 393 598 l 1,24,-1
 418 598 l 1,25,-1
 418 548 l 1,26,-1
 443 548 l 1,27,-1
 443 373 l 1,28,-1
 418 373 l 1,29,-1
 418 348 l 1,30,-1
 343 348 l 1,31,-1
 343 373 l 1,32,-1
 318 373 l 1,33,-1
 318 498 l 1,34,-1
 293 498 l 1,35,-1
 293 523 l 1,36,-1
 268 523 l 1,37,-1
 268 548 l 1,38,-1
 193 548 l 1,39,-1
 193 523 l 1,40,-1
 168 523 l 1,41,-1
 168 498 l 1,42,-1
 143 498 l 1,43,-1
 143 423 l 1,44,-1
 168 423 l 1,45,-1
 168 398 l 1,46,-1
 193 398 l 1,47,-1
 193 348 l 1,48,-1
 243 348 l 1,49,-1
 243 323 l 1,50,-1
 268 323 l 1,51,-1
 268 298 l 1,52,-1
 318 298 l 1,53,-1
 318 273 l 1,54,-1
 368 273 l 1,55,-1
 368 248 l 1,56,-1
 393 248 l 1,57,-1
 393 223 l 1,58,-1
 418 223 l 1,59,-1
 418 198 l 1,60,-1
 443 198 l 1,61,-1
 443 48 l 1,62,-1
 418 48 l 1,63,-1
 418 23 l 1,64,-1
 393 23 l 1,65,-1
 393 -2 l 1,66,-1
 343 -2 l 1,67,-1
 343 -27 l 1,68,-1
 143 -27 l 1,69,-1
 143 -2 l 1,70,-1
 93 -2 l 1,71,-1
 93 23 l 1,72,-1
 43 23 l 1,73,-1
 43 73 l 1,74,-1
 18 73 l 1,75,-1
 18 198 l 1,76,-1
 43 198 l 1,77,-1
 43 223 l 1,78,-1
 93 223 l 1,79,-1
 93 198 l 1,80,-1
 118 198 l 1,81,-1
 118 148 l 1,82,-1
 143 148 l 1,83,-1
 143 123 l 1,84,-1
 193 123 l 1,85,-1
 193 98 l 1,86,-1
 293 98 l 1,87,-1
 293 123 l 1,88,-1
 318 123 l 1,89,-1
 318 148 l 1,90,-1
 293 148 l 1,91,-1
 293 173 l 1,92,-1
 268 173 l 1,93,-1
 268 198 l 1,94,-1
 218 198 l 1,95,-1
 218 223 l 1,96,-1
 168 223 l 1,97,-1
 168 248 l 1,98,-1
 143 248 l 1,99,-1
 143 273 l 1,0,-1
EndSplineSet
Validated: 1
EndChar

StartChar: Z
Encoding: 90 90 21
Width: 448
GlyphClass: 2
Flags: W
LayerCount: 2
Fore
SplineSet
118 298 m 1,0,-1
 143 298 l 1,1,-1
 143 348 l 1,2,-1
 168 348 l 1,3,-1
 168 398 l 1,4,-1
 193 398 l 1,5,-1
 193 448 l 1,6,-1
 218 448 l 1,7,-1
 218 473 l 1,8,-1
 243 473 l 1,9,-1
 243 523 l 1,10,-1
 43 523 l 1,11,-1
 43 548 l 1,12,-1
 18 548 l 1,13,-1
 18 648 l 1,14,-1
 43 648 l 1,15,-1
 43 673 l 1,16,-1
 393 673 l 1,17,-1
 393 648 l 1,18,-1
 418 648 l 1,19,-1
 418 498 l 1,20,-1
 393 498 l 1,21,-1
 393 448 l 1,22,-1
 368 448 l 1,23,-1
 368 398 l 1,24,-1
 343 398 l 1,25,-1
 343 348 l 1,26,-1
 318 348 l 1,27,-1
 318 298 l 1,28,-1
 293 298 l 1,29,-1
 293 248 l 1,30,-1
 268 248 l 1,31,-1
 268 198 l 1,32,-1
 243 198 l 1,33,-1
 243 173 l 1,34,-1
 218 173 l 1,35,-1
 218 123 l 1,36,-1
 193 123 l 1,37,-1
 193 98 l 1,38,-1
 393 98 l 1,39,-1
 393 73 l 1,40,-1
 418 73 l 1,41,-1
 418 -2 l 1,42,-1
 393 -2 l 1,43,-1
 393 -27 l 1,44,-1
 43 -27 l 1,45,-1
 43 -2 l 1,46,-1
 18 -2 l 1,47,-1
 18 123 l 1,48,-1
 43 123 l 1,49,-1
 43 173 l 1,50,-1
 68 173 l 1,51,-1
 68 198 l 1,52,-1
 93 198 l 1,53,-1
 93 248 l 1,54,-1
 118 248 l 1,55,-1
 118 298 l 1,0,-1
EndSplineSet
Validated: 1
EndChar

StartChar: G
Encoding: 71 71 22
Width: 481
GlyphClass: 2
Flags: W
LayerCount: 2
Fore
SplineSet
22 473 m 1,0,-1
 47 473 l 1,1,-1
 47 548 l 1,2,-1
 72 548 l 1,3,-1
 72 598 l 1,4,-1
 97 598 l 1,5,-1
 97 623 l 1,6,-1
 122 623 l 1,7,-1
 122 648 l 1,8,-1
 172 648 l 1,9,-1
 172 673 l 1,10,-1
 322 673 l 1,11,-1
 322 648 l 1,12,-1
 347 648 l 1,13,-1
 347 623 l 1,14,-1
 372 623 l 1,15,-1
 372 598 l 1,16,-1
 397 598 l 1,17,-1
 397 573 l 1,18,-1
 422 573 l 1,19,-1
 422 523 l 1,20,-1
 447 523 l 1,21,-1
 447 423 l 1,22,-1
 422 423 l 1,23,-1
 422 398 l 1,24,-1
 397 398 l 1,25,-1
 397 373 l 1,26,-1
 322 373 l 1,27,-1
 322 423 l 1,28,-1
 297 423 l 1,29,-1
 297 498 l 1,30,-1
 272 498 l 1,31,-1
 272 523 l 1,32,-1
 222 523 l 1,33,-1
 222 498 l 1,34,-1
 197 498 l 1,35,-1
 197 448 l 1,36,-1
 172 448 l 1,37,-1
 172 173 l 1,38,-1
 197 173 l 1,39,-1
 197 123 l 1,40,-1
 222 123 l 1,41,-1
 222 98 l 1,42,-1
 297 98 l 1,43,-1
 297 123 l 1,44,-1
 322 123 l 1,45,-1
 322 148 l 1,46,-1
 347 148 l 1,47,-1
 347 198 l 1,48,-1
 297 198 l 1,49,-1
 297 223 l 1,50,-1
 272 223 l 1,51,-1
 272 273 l 1,52,-1
 297 273 l 1,53,-1
 297 298 l 1,54,-1
 447 298 l 1,55,-1
 447 273 l 1,56,-1
 472 273 l 1,57,-1
 472 148 l 1,58,-1
 447 148 l 1,59,-1
 447 98 l 1,60,-1
 422 98 l 1,61,-1
 422 48 l 1,62,-1
 397 48 l 1,63,-1
 397 23 l 1,64,-1
 372 23 l 1,65,-1
 372 -2 l 1,66,-1
 322 -2 l 1,67,-1
 322 -27 l 1,68,-1
 172 -27 l 1,69,-1
 172 -2 l 1,70,-1
 122 -2 l 1,71,-1
 122 23 l 1,72,-1
 97 23 l 1,73,-1
 97 48 l 1,74,-1
 72 48 l 1,75,-1
 72 98 l 1,76,-1
 47 98 l 1,77,-1
 47 148 l 1,78,-1
 22 148 l 1,79,-1
 22 473 l 1,0,-1
EndSplineSet
Validated: 1
EndChar

StartChar: Q
Encoding: 81 81 23
Width: 530
GlyphClass: 2
Flags: W
LayerCount: 2
Fore
SplineSet
21 473 m 1,0,-1
 46 473 l 1,1,-1
 46 548 l 1,2,-1
 71 548 l 1,3,-1
 71 598 l 1,4,-1
 96 598 l 1,5,-1
 96 623 l 1,6,-1
 121 623 l 1,7,-1
 121 648 l 1,8,-1
 171 648 l 1,9,-1
 171 673 l 1,10,-1
 346 673 l 1,11,-1
 346 648 l 1,12,-1
 396 648 l 1,13,-1
 396 623 l 1,14,-1
 421 623 l 1,15,-1
 421 598 l 1,16,-1
 446 598 l 1,17,-1
 446 548 l 1,18,-1
 471 548 l 1,19,-1
 471 473 l 1,20,-1
 496 473 l 1,21,-1
 496 173 l 1,22,-1
 471 173 l 1,23,-1
 471 98 l 1,24,-1
 446 98 l 1,25,-1
 446 23 l 1,26,-1
 471 23 l 1,27,-1
 471 -2 l 1,28,-1
 496 -2 l 1,29,-1
 496 -52 l 1,30,-1
 521 -52 l 1,31,-1
 521 -102 l 1,32,-1
 496 -102 l 1,33,-1
 496 -127 l 1,34,-1
 396 -127 l 1,35,-1
 396 -102 l 1,36,-1
 371 -102 l 1,37,-1
 371 -77 l 1,38,-1
 346 -77 l 1,39,-1
 346 -27 l 1,40,-1
 321 -27 l 1,41,-1
 321 -2 l 1,42,-1
 296 -2 l 1,43,-1
 296 -27 l 1,44,-1
 171 -27 l 1,45,-1
 171 -2 l 1,46,-1
 121 -2 l 1,47,-1
 121 23 l 1,48,-1
 96 23 l 1,49,-1
 96 48 l 1,50,-1
 71 48 l 1,51,-1
 71 98 l 1,52,-1
 46 98 l 1,53,-1
 46 173 l 1,54,-1
 21 173 l 1,55,-1
 21 473 l 1,0,-1
296 173 m 1,56,-1
 321 173 l 1,57,-1
 321 198 l 1,58,-1
 346 198 l 1,59,-1
 346 423 l 1,60,-1
 321 423 l 1,61,-1
 321 448 l 1,62,-1
 296 448 l 1,63,-1
 296 498 l 1,64,-1
 271 498 l 1,65,-1
 271 523 l 1,66,-1
 246 523 l 1,67,-1
 246 498 l 1,68,-1
 221 498 l 1,69,-1
 221 448 l 1,70,-1
 196 448 l 1,71,-1
 196 423 l 1,72,-1
 171 423 l 1,73,-1
 171 198 l 1,74,-1
 196 198 l 1,75,-1
 196 173 l 1,76,-1
 221 173 l 1,77,-1
 221 123 l 1,78,-1
 246 123 l 1,79,-1
 246 98 l 1,80,-1
 271 98 l 1,81,-1
 271 123 l 1,82,-1
 296 123 l 1,83,-1
 296 173 l 1,56,-1
EndSplineSet
Validated: 1
EndChar

StartChar: J
Encoding: 74 74 24
Width: 243
GlyphClass: 2
Flags: W
LayerCount: 2
Fore
SplineSet
113 673 m 1,0,-1
 163 673 l 1,1,-1
 163 648 l 1,2,-1
 188 648 l 1,3,-1
 188 623 l 1,4,-1
 213 623 l 1,5,-1
 213 -52 l 1,6,-1
 188 -52 l 1,7,-1
 188 -77 l 1,8,-1
 163 -77 l 1,9,-1
 163 -102 l 1,10,-1
 113 -102 l 1,11,-1
 113 -127 l 1,12,-1
 63 -127 l 1,13,-1
 63 -152 l 1,14,-1
 -12 -152 l 1,15,-1
 -12 -127 l 1,16,-1
 -37 -127 l 1,17,-1
 -37 -52 l 1,18,-1
 -12 -52 l 1,19,-1
 -12 -27 l 1,20,-1
 38 -27 l 1,21,-1
 38 -2 l 1,22,-1
 63 -2 l 1,23,-1
 63 623 l 1,24,-1
 88 623 l 1,25,-1
 88 648 l 1,26,-1
 113 648 l 1,27,-1
 113 673 l 1,0,-1
EndSplineSet
Validated: 1
EndChar

StartChar: V
Encoding: 86 86 25
Width: 489
GlyphClass: 2
Flags: W
LayerCount: 2
Fore
SplineSet
431 323 m 1,0,-1
 406 323 l 1,1,-1
 406 223 l 1,2,-1
 381 223 l 1,3,-1
 381 123 l 1,4,-1
 356 123 l 1,5,-1
 356 23 l 1,6,-1
 331 23 l 1,7,-1
 331 -2 l 1,8,-1
 281 -2 l 1,9,-1
 281 -27 l 1,10,-1
 206 -27 l 1,11,-1
 206 -2 l 1,12,-1
 156 -2 l 1,13,-1
 156 23 l 1,14,-1
 131 23 l 1,15,-1
 131 123 l 1,16,-1
 106 123 l 1,17,-1
 106 223 l 1,18,-1
 81 223 l 1,19,-1
 81 323 l 1,20,-1
 56 323 l 1,21,-1
 56 423 l 1,22,-1
 31 423 l 1,23,-1
 31 523 l 1,24,-1
 6 523 l 1,25,-1
 6 648 l 1,26,-1
 31 648 l 1,27,-1
 31 673 l 1,28,-1
 131 673 l 1,29,-1
 131 623 l 1,30,-1
 156 623 l 1,31,-1
 156 523 l 1,32,-1
 181 523 l 1,33,-1
 181 348 l 1,34,-1
 206 348 l 1,35,-1
 206 248 l 1,36,-1
 231 248 l 1,37,-1
 231 173 l 1,38,-1
 256 173 l 1,39,-1
 256 248 l 1,40,-1
 281 248 l 1,41,-1
 281 348 l 1,42,-1
 306 348 l 1,43,-1
 306 523 l 1,44,-1
 331 523 l 1,45,-1
 331 623 l 1,46,-1
 356 623 l 1,47,-1
 356 673 l 1,48,-1
 456 673 l 1,49,-1
 456 648 l 1,50,-1
 481 648 l 1,51,-1
 481 523 l 1,52,-1
 456 523 l 1,53,-1
 456 423 l 1,54,-1
 431 423 l 1,55,-1
 431 323 l 1,0,-1
EndSplineSet
Validated: 1
EndChar

StartChar: U
Encoding: 85 85 26
Width: 467
GlyphClass: 2
Flags: W
LayerCount: 2
Fore
SplineSet
33 623 m 1,0,-1
 58 623 l 1,1,-1
 58 648 l 1,2,-1
 83 648 l 1,3,-1
 83 673 l 1,4,-1
 133 673 l 1,5,-1
 133 648 l 1,6,-1
 158 648 l 1,7,-1
 158 623 l 1,8,-1
 183 623 l 1,9,-1
 183 173 l 1,10,-1
 208 173 l 1,11,-1
 208 148 l 1,12,-1
 233 148 l 1,13,-1
 233 173 l 1,14,-1
 258 173 l 1,15,-1
 258 198 l 1,16,-1
 283 198 l 1,17,-1
 283 623 l 1,18,-1
 308 623 l 1,19,-1
 308 648 l 1,20,-1
 333 648 l 1,21,-1
 333 673 l 1,22,-1
 383 673 l 1,23,-1
 383 648 l 1,24,-1
 408 648 l 1,25,-1
 408 623 l 1,26,-1
 433 623 l 1,27,-1
 433 23 l 1,28,-1
 408 23 l 1,29,-1
 408 -2 l 1,30,-1
 383 -2 l 1,31,-1
 383 -27 l 1,32,-1
 333 -27 l 1,33,-1
 333 -2 l 1,34,-1
 308 -2 l 1,35,-1
 308 73 l 1,36,-1
 283 73 l 1,37,-1
 283 48 l 1,38,-1
 258 48 l 1,39,-1
 258 23 l 1,40,-1
 233 23 l 1,41,-1
 233 -2 l 1,42,-1
 208 -2 l 1,43,-1
 208 -27 l 1,44,-1
 108 -27 l 1,45,-1
 108 -2 l 1,46,-1
 83 -2 l 1,47,-1
 83 23 l 1,48,-1
 58 23 l 1,49,-1
 58 73 l 1,50,-1
 33 73 l 1,51,-1
 33 623 l 1,0,-1
EndSplineSet
Validated: 1
EndChar

StartChar: Y
Encoding: 89 89 27
Width: 473
GlyphClass: 2
Flags: W
LayerCount: 2
Fore
SplineSet
51 273 m 1,0,-1
 26 273 l 1,1,-1
 26 623 l 1,2,-1
 51 623 l 1,3,-1
 51 648 l 1,4,-1
 76 648 l 1,5,-1
 76 673 l 1,6,-1
 126 673 l 1,7,-1
 126 648 l 1,8,-1
 151 648 l 1,9,-1
 151 623 l 1,10,-1
 176 623 l 1,11,-1
 176 373 l 1,12,-1
 201 373 l 1,13,-1
 201 348 l 1,14,-1
 276 348 l 1,15,-1
 276 373 l 1,16,-1
 301 373 l 1,17,-1
 301 623 l 1,18,-1
 326 623 l 1,19,-1
 326 648 l 1,20,-1
 351 648 l 1,21,-1
 351 673 l 1,22,-1
 401 673 l 1,23,-1
 401 648 l 1,24,-1
 426 648 l 1,25,-1
 426 623 l 1,26,-1
 451 623 l 1,27,-1
 451 123 l 1,28,-1
 426 123 l 1,29,-1
 426 73 l 1,30,-1
 401 73 l 1,31,-1
 401 48 l 1,32,-1
 376 48 l 1,33,-1
 376 23 l 1,34,-1
 351 23 l 1,35,-1
 351 -2 l 1,36,-1
 326 -2 l 1,37,-1
 326 -27 l 1,38,-1
 101 -27 l 1,39,-1
 101 -2 l 1,40,-1
 51 -2 l 1,41,-1
 51 23 l 1,42,-1
 26 23 l 1,43,-1
 26 123 l 1,44,-1
 51 123 l 1,45,-1
 51 148 l 1,46,-1
 126 148 l 1,47,-1
 126 123 l 1,48,-1
 151 123 l 1,49,-1
 151 98 l 1,50,-1
 176 98 l 1,51,-1
 176 73 l 1,52,-1
 251 73 l 1,53,-1
 251 98 l 1,54,-1
 276 98 l 1,55,-1
 276 123 l 1,56,-1
 301 123 l 1,57,-1
 301 248 l 1,58,-1
 276 248 l 1,59,-1
 276 223 l 1,60,-1
 226 223 l 1,61,-1
 226 198 l 1,62,-1
 101 198 l 1,63,-1
 101 223 l 1,64,-1
 76 223 l 1,65,-1
 76 248 l 1,66,-1
 51 248 l 1,67,-1
 51 273 l 1,0,-1
EndSplineSet
Validated: 1
EndChar

StartChar: W
Encoding: 87 87 28
Width: 673
GlyphClass: 2
Flags: W
LayerCount: 2
Fore
SplineSet
281 573 m 1,0,-1
 306 573 l 1,1,-1
 306 598 l 1,2,-1
 356 598 l 1,3,-1
 356 573 l 1,4,-1
 381 573 l 1,5,-1
 381 523 l 1,6,-1
 406 523 l 1,7,-1
 406 448 l 1,8,-1
 431 448 l 1,9,-1
 431 348 l 1,10,-1
 456 348 l 1,11,-1
 456 223 l 1,12,-1
 481 223 l 1,13,-1
 481 323 l 1,14,-1
 506 323 l 1,15,-1
 506 523 l 1,16,-1
 531 523 l 1,17,-1
 531 648 l 1,18,-1
 556 648 l 1,19,-1
 556 673 l 1,20,-1
 631 673 l 1,21,-1
 631 648 l 1,22,-1
 656 648 l 1,23,-1
 656 523 l 1,24,-1
 631 523 l 1,25,-1
 631 298 l 1,26,-1
 606 298 l 1,27,-1
 606 98 l 1,28,-1
 581 98 l 1,29,-1
 581 -2 l 1,30,-1
 531 -2 l 1,31,-1
 531 -27 l 1,32,-1
 456 -27 l 1,33,-1
 456 23 l 1,34,-1
 431 23 l 1,35,-1
 431 73 l 1,36,-1
 406 73 l 1,37,-1
 406 148 l 1,38,-1
 381 148 l 1,39,-1
 381 248 l 1,40,-1
 356 248 l 1,41,-1
 356 323 l 1,42,-1
 306 323 l 1,43,-1
 306 248 l 1,44,-1
 281 248 l 1,45,-1
 281 148 l 1,46,-1
 256 148 l 1,47,-1
 256 73 l 1,48,-1
 231 73 l 1,49,-1
 231 23 l 1,50,-1
 206 23 l 1,51,-1
 206 -27 l 1,52,-1
 131 -27 l 1,53,-1
 131 -2 l 1,54,-1
 81 -2 l 1,55,-1
 81 98 l 1,56,-1
 56 98 l 1,57,-1
 56 298 l 1,58,-1
 31 298 l 1,59,-1
 31 523 l 1,60,-1
 6 523 l 1,61,-1
 6 648 l 1,62,-1
 31 648 l 1,63,-1
 31 673 l 1,64,-1
 106 673 l 1,65,-1
 106 648 l 1,66,-1
 131 648 l 1,67,-1
 131 523 l 1,68,-1
 156 523 l 1,69,-1
 156 323 l 1,70,-1
 181 323 l 1,71,-1
 181 223 l 1,72,-1
 206 223 l 1,73,-1
 206 348 l 1,74,-1
 231 348 l 1,75,-1
 231 448 l 1,76,-1
 256 448 l 1,77,-1
 256 523 l 1,78,-1
 281 523 l 1,79,-1
 281 573 l 1,0,-1
EndSplineSet
Validated: 1
EndChar

StartChar: X
Encoding: 88 88 29
Width: 500
GlyphClass: 2
Flags: W
LayerCount: 2
Fore
SplineSet
135 273 m 1,0,-1
 160 273 l 1,1,-1
 160 298 l 1,2,-1
 185 298 l 1,3,-1
 185 323 l 1,4,-1
 160 323 l 1,5,-1
 160 348 l 1,6,-1
 135 348 l 1,7,-1
 135 373 l 1,8,-1
 110 373 l 1,9,-1
 110 423 l 1,10,-1
 85 423 l 1,11,-1
 85 473 l 1,12,-1
 60 473 l 1,13,-1
 60 498 l 1,14,-1
 35 498 l 1,15,-1
 35 548 l 1,16,-1
 10 548 l 1,17,-1
 10 648 l 1,18,-1
 35 648 l 1,19,-1
 35 673 l 1,20,-1
 110 673 l 1,21,-1
 110 648 l 1,22,-1
 135 648 l 1,23,-1
 135 623 l 1,24,-1
 160 623 l 1,25,-1
 160 573 l 1,26,-1
 185 573 l 1,27,-1
 185 523 l 1,28,-1
 210 523 l 1,29,-1
 210 473 l 1,30,-1
 235 473 l 1,31,-1
 235 448 l 1,32,-1
 260 448 l 1,33,-1
 260 473 l 1,34,-1
 285 473 l 1,35,-1
 285 498 l 1,36,-1
 310 498 l 1,37,-1
 310 573 l 1,38,-1
 335 573 l 1,39,-1
 335 623 l 1,40,-1
 360 623 l 1,41,-1
 360 648 l 1,42,-1
 385 648 l 1,43,-1
 385 673 l 1,44,-1
 460 673 l 1,45,-1
 460 648 l 1,46,-1
 485 648 l 1,47,-1
 485 548 l 1,48,-1
 460 548 l 1,49,-1
 460 498 l 1,50,-1
 435 498 l 1,51,-1
 435 448 l 1,52,-1
 410 448 l 1,53,-1
 410 423 l 1,54,-1
 385 423 l 1,55,-1
 385 373 l 1,56,-1
 360 373 l 1,57,-1
 360 323 l 1,58,-1
 335 323 l 1,59,-1
 335 298 l 1,60,-1
 360 298 l 1,61,-1
 360 248 l 1,62,-1
 385 248 l 1,63,-1
 385 223 l 1,64,-1
 410 223 l 1,65,-1
 410 198 l 1,66,-1
 435 198 l 1,67,-1
 435 148 l 1,68,-1
 460 148 l 1,69,-1
 460 123 l 1,70,-1
 485 123 l 1,71,-1
 485 -2 l 1,72,-1
 460 -2 l 1,73,-1
 460 -27 l 1,74,-1
 385 -27 l 1,75,-1
 385 -2 l 1,76,-1
 360 -2 l 1,77,-1
 360 23 l 1,78,-1
 335 23 l 1,79,-1
 335 73 l 1,80,-1
 310 73 l 1,81,-1
 310 98 l 1,82,-1
 285 98 l 1,83,-1
 285 148 l 1,84,-1
 260 148 l 1,85,-1
 260 198 l 1,86,-1
 235 198 l 1,87,-1
 235 148 l 1,88,-1
 210 148 l 1,89,-1
 210 98 l 1,90,-1
 185 98 l 1,91,-1
 185 48 l 1,92,-1
 160 48 l 1,93,-1
 160 -2 l 1,94,-1
 135 -2 l 1,95,-1
 135 -27 l 1,96,-1
 35 -27 l 1,97,-1
 35 -2 l 1,98,-1
 10 -2 l 1,99,-1
 10 98 l 1,100,-1
 35 98 l 1,101,-1
 35 148 l 1,102,-1
 60 148 l 1,103,-1
 60 173 l 1,104,-1
 85 173 l 1,105,-1
 85 198 l 1,106,-1
 110 198 l 1,107,-1
 110 223 l 1,108,-1
 135 223 l 1,109,-1
 135 273 l 1,0,-1
EndSplineSet
Validated: 1
EndChar

StartChar: period
Encoding: 46 46 30
Width: 258
GlyphClass: 2
Flags: W
LayerCount: 2
Fore
SplineSet
91 123 m 1,0,-1
 166 123 l 1,1,-1
 166 98 l 1,2,-1
 191 98 l 1,3,-1
 191 23 l 1,4,-1
 166 23 l 1,5,-1
 166 -2 l 1,6,-1
 91 -2 l 1,7,-1
 91 23 l 1,8,-1
 66 23 l 1,9,-1
 66 98 l 1,10,-1
 91 98 l 1,11,-1
 91 123 l 1,0,-1
EndSplineSet
Validated: 1
EndChar

StartChar: comma
Encoding: 44 44 31
Width: 253
GlyphClass: 2
Flags: W
LayerCount: 2
Fore
SplineSet
60 98 m 1,0,-1
 85 98 l 1,1,-1
 85 123 l 1,2,-1
 160 123 l 1,3,-1
 160 98 l 1,4,-1
 185 98 l 1,5,-1
 185 -2 l 1,6,-1
 160 -2 l 1,7,-1
 160 -27 l 1,8,-1
 135 -27 l 1,9,-1
 135 -52 l 1,10,-1
 110 -52 l 1,11,-1
 110 -77 l 1,12,-1
 85 -77 l 1,13,-1
 85 -52 l 1,14,-1
 60 -52 l 1,15,-1
 60 -27 l 1,16,-1
 85 -27 l 1,17,-1
 85 -2 l 1,18,-1
 110 -2 l 1,19,-1
 110 23 l 1,20,-1
 85 23 l 1,21,-1
 85 48 l 1,22,-1
 60 48 l 1,23,-1
 60 98 l 1,0,-1
EndSplineSet
Validated: 1
EndChar

StartChar: zero
Encoding: 48 48 32
Width: 514
VWidth: 1150
GlyphClass: 2
Flags: W
LayerCount: 2
Fore
SplineSet
414 490 m 1,0,-1
 414 490 l 1,1,-1
 474 490 l 1,2,-1
 474 430 l 1,3,-1
 474 370 l 1,4,-1
 474 310 l 1,5,-1
 474 250 l 1,6,-1
 474 190 l 1,7,-1
 474 130 l 1,8,-1
 474 70 l 1,9,-1
 474 10 l 1,10,-1
 414 10 l 1,11,-1
 414 -50 l 1,12,-1
 354 -50 l 1,13,-1
 294 -50 l 1,14,-1
 234 -50 l 1,15,-1
 174 -50 l 1,16,-1
 114 -50 l 1,17,-1
 54 -50 l 1,18,-1
 54 10 l 1,19,-1
 -6 10 l 1,20,-1
 -6 70 l 1,21,-1
 -6 130 l 1,22,-1
 -6 190 l 1,23,-1
 -6 250 l 1,24,-1
 -6 310 l 1,25,-1
 -6 370 l 1,26,-1
 -6 430 l 1,27,-1
 -6 490 l 1,28,-1
 54 490 l 1,29,-1
 54 550 l 1,30,-1
 114 550 l 1,31,-1
 174 550 l 1,32,-1
 234 550 l 1,33,-1
 294 550 l 1,34,-1
 354 550 l 1,35,-1
 414 550 l 1,36,-1
 414 490 l 1,0,-1
354 370 m 1,37,-1
 354 370 l 1,38,-1
 354 430 l 1,39,-1
 294 430 l 1,40,-1
 234 430 l 1,41,-1
 174 430 l 1,42,-1
 114 430 l 1,43,-1
 114 370 l 1,44,-1
 114 310 l 1,45,-1
 114 250 l 1,46,-1
 114 190 l 1,47,-1
 114 130 l 1,48,-1
 114 70 l 1,49,-1
 174 70 l 1,50,-1
 234 70 l 1,51,-1
 294 70 l 1,52,-1
 354 70 l 1,53,-1
 354 130 l 1,54,-1
 354 190 l 1,55,-1
 354 250 l 1,56,-1
 354 310 l 1,57,-1
 354 370 l 1,37,-1
EndSplineSet
Validated: 5
EndChar

StartChar: one
Encoding: 49 49 33
Width: 514
VWidth: 1150
GlyphClass: 2
Flags: W
LayerCount: 2
Fore
SplineSet
414 70 m 1,0,-1
 414 70 l 1,1,-1
 474 70 l 1,2,-1
 474 10 l 1,3,-1
 474 -50 l 1,4,-1
 414 -50 l 1,5,-1
 354 -50 l 1,6,-1
 294 -50 l 1,7,-1
 234 -50 l 1,8,-1
 174 -50 l 1,9,-1
 114 -50 l 1,10,-1
 54 -50 l 1,11,-1
 -6 -50 l 1,12,-1
 -6 10 l 1,13,-1
 -6 70 l 1,14,-1
 54 70 l 1,15,-1
 114 70 l 1,16,-1
 174 70 l 1,17,-1
 174 130 l 1,18,-1
 174 190 l 1,19,-1
 174 250 l 1,20,-1
 174 310 l 1,21,-1
 174 370 l 1,22,-1
 114 370 l 1,23,-1
 54 370 l 1,24,-1
 54 310 l 1,25,-1
 -6 310 l 1,26,-1
 -6 370 l 1,27,-1
 -6 430 l 1,28,-1
 -6 490 l 1,29,-1
 54 490 l 1,30,-1
 114 490 l 1,31,-1
 114 550 l 1,32,-1
 174 550 l 1,33,-1
 234 550 l 1,34,-1
 294 550 l 1,35,-1
 294 490 l 1,36,-1
 294 430 l 1,37,-1
 294 370 l 1,38,-1
 294 310 l 1,39,-1
 294 250 l 1,40,-1
 294 190 l 1,41,-1
 294 130 l 1,42,-1
 294 70 l 1,43,-1
 354 70 l 1,44,-1
 414 70 l 1,0,-1
EndSplineSet
Validated: 1
EndChar

StartChar: two
Encoding: 50 50 34
Width: 513
VWidth: 1150
GlyphClass: 2
Flags: W
LayerCount: 2
Fore
SplineSet
414 490 m 1,0,-1
 414 490 l 1,1,-1
 474 490 l 1,2,-1
 474 430 l 1,3,-1
 474 370 l 1,4,-1
 474 310 l 1,5,-1
 414 310 l 1,6,-1
 414 250 l 1,7,-1
 354 250 l 1,8,-1
 354 190 l 1,9,-1
 294 190 l 1,10,-1
 234 190 l 1,11,-1
 234 130 l 1,12,-1
 174 130 l 1,13,-1
 174 70 l 1,14,-1
 234 70 l 1,15,-1
 294 70 l 1,16,-1
 354 70 l 1,17,-1
 414 70 l 1,18,-1
 474 70 l 1,19,-1
 474 10 l 1,20,-1
 474 -50 l 1,21,-1
 414 -50 l 1,22,-1
 354 -50 l 1,23,-1
 294 -50 l 1,24,-1
 234 -50 l 1,25,-1
 174 -50 l 1,26,-1
 114 -50 l 1,27,-1
 54 -50 l 1,28,-1
 -6 -50 l 1,29,-1
 -6 10 l 1,30,-1
 -6 70 l 1,31,-1
 -6 130 l 1,32,-1
 54 130 l 1,33,-1
 54 190 l 1,34,-1
 114 190 l 1,35,-1
 114 250 l 1,36,-1
 174 250 l 1,37,-1
 234 250 l 1,38,-1
 234 310 l 1,39,-1
 294 310 l 1,40,-1
 294 370 l 1,41,-1
 354 370 l 1,42,-1
 354 430 l 1,43,-1
 294 430 l 1,44,-1
 234 430 l 1,45,-1
 174 430 l 1,46,-1
 114 430 l 1,47,-1
 114 370 l 1,48,-1
 54 370 l 1,49,-1
 -6 370 l 1,50,-1
 -6 430 l 1,51,-1
 -6 490 l 1,52,-1
 54 490 l 1,53,-1
 54 550 l 1,54,-1
 114 550 l 1,55,-1
 174 550 l 1,56,-1
 234 550 l 1,57,-1
 294 550 l 1,58,-1
 354 550 l 1,59,-1
 414 550 l 1,60,-1
 414 490 l 1,0,-1
EndSplineSet
Validated: 5
EndChar

StartChar: three
Encoding: 51 51 35
Width: 513
VWidth: 1150
GlyphClass: 2
Flags: W
LayerCount: 2
Fore
SplineSet
414 490 m 1,0,-1
 414 490 l 1,1,-1
 474 490 l 1,2,-1
 474 430 l 1,3,-1
 474 370 l 1,4,-1
 474 310 l 1,5,-1
 414 310 l 1,6,-1
 414 250 l 1,7,-1
 414 190 l 1,8,-1
 474 190 l 1,9,-1
 474 130 l 1,10,-1
 474 70 l 1,11,-1
 474 10 l 1,12,-1
 414 10 l 1,13,-1
 414 -50 l 1,14,-1
 354 -50 l 1,15,-1
 294 -50 l 1,16,-1
 234 -50 l 1,17,-1
 174 -50 l 1,18,-1
 114 -50 l 1,19,-1
 54 -50 l 1,20,-1
 54 10 l 1,21,-1
 -6 10 l 1,22,-1
 -6 70 l 1,23,-1
 -6 130 l 1,24,-1
 54 130 l 1,25,-1
 114 130 l 1,26,-1
 114 70 l 1,27,-1
 174 70 l 1,28,-1
 234 70 l 1,29,-1
 294 70 l 1,30,-1
 354 70 l 1,31,-1
 354 130 l 1,32,-1
 354 190 l 1,33,-1
 294 190 l 1,34,-1
 234 190 l 1,35,-1
 174 190 l 1,36,-1
 114 190 l 1,37,-1
 114 250 l 1,38,-1
 114 310 l 1,39,-1
 174 310 l 1,40,-1
 234 310 l 1,41,-1
 294 310 l 1,42,-1
 354 310 l 1,43,-1
 354 370 l 1,44,-1
 354 430 l 1,45,-1
 294 430 l 1,46,-1
 234 430 l 1,47,-1
 174 430 l 1,48,-1
 114 430 l 1,49,-1
 114 370 l 1,50,-1
 54 370 l 1,51,-1
 -6 370 l 1,52,-1
 -6 430 l 1,53,-1
 -6 490 l 1,54,-1
 54 490 l 1,55,-1
 54 550 l 1,56,-1
 114 550 l 1,57,-1
 174 550 l 1,58,-1
 234 550 l 1,59,-1
 294 550 l 1,60,-1
 354 550 l 1,61,-1
 414 550 l 1,62,-1
 414 490 l 1,0,-1
EndSplineSet
Validated: 5
EndChar

StartChar: four
Encoding: 52 52 36
Width: 514
VWidth: 1150
GlyphClass: 2
Flags: W
LayerCount: 2
Fore
SplineSet
414 550 m 1,0,-1
 414 550 l 1,1,-1
 474 550 l 1,2,-1
 474 490 l 1,3,-1
 474 430 l 1,4,-1
 474 370 l 1,5,-1
 474 310 l 1,6,-1
 474 250 l 1,7,-1
 474 190 l 1,8,-1
 474 130 l 1,9,-1
 474 70 l 1,10,-1
 474 10 l 1,11,-1
 474 -50 l 1,12,-1
 414 -50 l 1,13,-1
 354 -50 l 1,14,-1
 354 10 l 1,15,-1
 354 70 l 1,16,-1
 354 130 l 1,17,-1
 294 130 l 1,18,-1
 234 130 l 1,19,-1
 175.200195312 130 l 1,20,-1
 114 130 l 1,21,-1
 54 130 l 1,22,-1
 -6 130 l 1,23,-1
 -6 190 l 1,24,-1
 -6 250 l 1,25,-1
 -6 310 l 1,26,-1
 54 310 l 1,27,-1
 54 370 l 1,28,-1
 114 370 l 1,29,-1
 114 430 l 1,30,-1
 175.200195312 430 l 1,31,-1
 175.200195312 490 l 1,32,-1
 234 490 l 1,33,-1
 234 550 l 1,34,-1
 294 550 l 1,35,-1
 354 550 l 1,36,-1
 414 550 l 1,0,-1
354 370 m 1,37,-1
 354 370 l 1,38,-1
 354 430 l 1,39,-1
 294 430 l 1,40,-1
 294 370 l 1,41,-1
 234 370 l 1,42,-1
 234 310 l 1,43,-1
 175.200195312 310 l 1,44,-1
 175.200195312 250 l 1,45,-1
 234 250 l 1,46,-1
 294 250 l 1,47,-1
 354 250 l 1,48,-1
 354 310 l 1,49,-1
 354 370 l 1,37,-1
EndSplineSet
Validated: 524289
EndChar

StartChar: five
Encoding: 53 53 37
Width: 514
VWidth: 1150
GlyphClass: 2
Flags: W
LayerCount: 2
Fore
SplineSet
414 550 m 1,0,-1
 414 550 l 1,1,-1
 474 550 l 1,2,-1
 474 490 l 1,3,-1
 474 430 l 1,4,-1
 414 430 l 1,5,-1
 354 430 l 1,6,-1
 294 430 l 1,7,-1
 234 430 l 1,8,-1
 174 430 l 1,9,-1
 114 430 l 1,10,-1
 114 370 l 1,11,-1
 174 370 l 1,12,-1
 234 370 l 1,13,-1
 294 370 l 1,14,-1
 354 370 l 1,15,-1
 414 370 l 1,16,-1
 414 310 l 1,17,-1
 474 310 l 1,18,-1
 474 250 l 1,19,-1
 474 190 l 1,20,-1
 474 130 l 1,21,-1
 474 70 l 1,22,-1
 474 10 l 1,23,-1
 414 10 l 1,24,-1
 414 -50 l 1,25,-1
 354 -50 l 1,26,-1
 294 -50 l 1,27,-1
 234 -50 l 1,28,-1
 174 -50 l 1,29,-1
 114 -50 l 1,30,-1
 54 -50 l 1,31,-1
 54 10 l 1,32,-1
 -6 10 l 1,33,-1
 -6 70 l 1,34,-1
 -6 130 l 1,35,-1
 54 130 l 1,36,-1
 114 130 l 1,37,-1
 114 70 l 1,38,-1
 174 70 l 1,39,-1
 234 70 l 1,40,-1
 294 70 l 1,41,-1
 354 70 l 1,42,-1
 354 130 l 1,43,-1
 354 190 l 1,44,-1
 354 250 l 1,45,-1
 294 250 l 1,46,-1
 234 250 l 1,47,-1
 174 250 l 1,48,-1
 114 250 l 1,49,-1
 54 250 l 1,50,-1
 54 310 l 1,51,-1
 -6 310 l 1,52,-1
 -6 370 l 1,53,-1
 -6 430 l 1,54,-1
 -6 490 l 1,55,-1
 -6 550 l 1,56,-1
 54 550 l 1,57,-1
 114 550 l 1,58,-1
 174 550 l 1,59,-1
 234 550 l 1,60,-1
 294 550 l 1,61,-1
 354 550 l 1,62,-1
 414 550 l 1,0,-1
EndSplineSet
Validated: 1
EndChar

StartChar: six
Encoding: 54 54 38
Width: 514
VWidth: 1150
GlyphClass: 2
Flags: W
LayerCount: 2
Fore
SplineSet
414 490 m 1,0,-1
 414 490 l 1,1,-1
 474 490 l 1,2,-1
 474 430 l 1,3,-1
 474 370 l 1,4,-1
 414 370 l 1,5,-1
 354 370 l 1,6,-1
 354 430 l 1,7,-1
 294 430 l 1,8,-1
 234 430 l 1,9,-1
 174 430 l 1,10,-1
 114 430 l 1,11,-1
 114 370 l 1,12,-1
 114 310 l 1,13,-1
 174 310 l 1,14,-1
 234 310 l 1,15,-1
 294 310 l 1,16,-1
 354 310 l 1,17,-1
 414 310 l 1,18,-1
 414 250 l 1,19,-1
 474 250 l 1,20,-1
 474 190 l 1,21,-1
 474 130 l 1,22,-1
 474 70 l 1,23,-1
 474 10 l 1,24,-1
 414 10 l 1,25,-1
 414 -50 l 1,26,-1
 354 -50 l 1,27,-1
 294 -50 l 1,28,-1
 234 -50 l 1,29,-1
 174 -50 l 1,30,-1
 114 -50 l 1,31,-1
 54 -50 l 1,32,-1
 54 10 l 1,33,-1
 -6 10 l 1,34,-1
 -6 70 l 1,35,-1
 -6 130 l 1,36,-1
 -6 190 l 1,37,-1
 -6 250 l 1,38,-1
 -6 310 l 1,39,-1
 -6 370 l 1,40,-1
 -6 430 l 1,41,-1
 -6 490 l 1,42,-1
 54 490 l 1,43,-1
 54 550 l 1,44,-1
 114 550 l 1,45,-1
 174 550 l 1,46,-1
 234 550 l 1,47,-1
 294 550 l 1,48,-1
 354 550 l 1,49,-1
 414 550 l 1,50,-1
 414 490 l 1,0,-1
354 130 m 1,51,-1
 354 130 l 1,52,-1
 354 190 l 1,53,-1
 294 190 l 1,54,-1
 234 190 l 1,55,-1
 174 190 l 1,56,-1
 114 190 l 1,57,-1
 114 130 l 1,58,-1
 114 70 l 1,59,-1
 174 70 l 1,60,-1
 234 70 l 1,61,-1
 294 70 l 1,62,-1
 354 70 l 1,63,-1
 354 130 l 1,51,-1
EndSplineSet
Validated: 5
EndChar

StartChar: nine
Encoding: 57 57 39
Width: 514
VWidth: 1150
GlyphClass: 2
Flags: W
LayerCount: 2
Fore
SplineSet
414 490 m 1,0,-1
 414 490 l 1,1,-1
 474 490 l 1,2,-1
 474 430 l 1,3,-1
 474 370 l 1,4,-1
 474 310 l 1,5,-1
 474 250 l 1,6,-1
 474 190 l 1,7,-1
 474 130 l 1,8,-1
 474 70 l 1,9,-1
 474 10 l 1,10,-1
 414 10 l 1,11,-1
 414 -50 l 1,12,-1
 354 -50 l 1,13,-1
 294 -50 l 1,14,-1
 234 -50 l 1,15,-1
 174 -50 l 1,16,-1
 114 -50 l 1,17,-1
 54 -50 l 1,18,-1
 54 10 l 1,19,-1
 -6 10 l 1,20,-1
 -6 70 l 1,21,-1
 -6 130 l 1,22,-1
 54 130 l 1,23,-1
 114 130 l 1,24,-1
 114 70 l 1,25,-1
 174 70 l 1,26,-1
 234 70 l 1,27,-1
 294 70 l 1,28,-1
 354 70 l 1,29,-1
 354 130 l 1,30,-1
 354 190 l 1,31,-1
 294 190 l 1,32,-1
 234 190 l 1,33,-1
 174 190 l 1,34,-1
 114 190 l 1,35,-1
 54 190 l 1,36,-1
 54 250 l 1,37,-1
 -6 250 l 1,38,-1
 -6 310 l 1,39,-1
 -6 370 l 1,40,-1
 -6 430 l 1,41,-1
 -6 490 l 1,42,-1
 54 490 l 1,43,-1
 54 550 l 1,44,-1
 114 550 l 1,45,-1
 174 550 l 1,46,-1
 234 550 l 1,47,-1
 294 550 l 1,48,-1
 354 550 l 1,49,-1
 414 550 l 1,50,-1
 414 490 l 1,0,-1
354 370 m 1,51,-1
 354 370 l 1,52,-1
 354 430 l 1,53,-1
 294 430 l 1,54,-1
 234 430 l 1,55,-1
 174 430 l 1,56,-1
 114 430 l 1,57,-1
 114 370 l 1,58,-1
 114 310 l 1,59,-1
 174 310 l 1,60,-1
 234 310 l 1,61,-1
 294 310 l 1,62,-1
 354 310 l 1,63,-1
 354 370 l 1,51,-1
EndSplineSet
Validated: 5
EndChar

StartChar: eight
Encoding: 56 56 40
Width: 514
VWidth: 1150
GlyphClass: 2
Flags: W
LayerCount: 2
Fore
SplineSet
414 490 m 1,0,-1
 414 490 l 1,1,-1
 474 490 l 1,2,-1
 474 430 l 1,3,-1
 474 370 l 1,4,-1
 474 310 l 1,5,-1
 414 310 l 1,6,-1
 414 250 l 1,7,-1
 474 250 l 1,8,-1
 474 190 l 1,9,-1
 474 130 l 1,10,-1
 474 70 l 1,11,-1
 474 10 l 1,12,-1
 414 10 l 1,13,-1
 414 -50 l 1,14,-1
 354 -50 l 1,15,-1
 294 -50 l 1,16,-1
 234 -50 l 1,17,-1
 174 -50 l 1,18,-1
 114 -50 l 1,19,-1
 54 -50 l 1,20,-1
 54 10 l 1,21,-1
 -6 10 l 1,22,-1
 -6 70 l 1,23,-1
 -6 130 l 1,24,-1
 -6 190 l 1,25,-1
 -6 250 l 1,26,-1
 54 250 l 1,27,-1
 54 310 l 1,28,-1
 -6 310 l 1,29,-1
 -6 370 l 1,30,-1
 -6 430 l 1,31,-1
 -6 490 l 1,32,-1
 54 490 l 1,33,-1
 54 550 l 1,34,-1
 114 550 l 1,35,-1
 174 550 l 1,36,-1
 234 550 l 1,37,-1
 294 550 l 1,38,-1
 354 550 l 1,39,-1
 414 550 l 1,40,-1
 414 490 l 1,0,-1
354 370 m 1,41,-1
 354 370 l 1,42,-1
 354 430 l 1,43,-1
 294 430 l 1,44,-1
 234 430 l 1,45,-1
 174 430 l 1,46,-1
 114 430 l 1,47,-1
 114 370 l 1,48,-1
 174 370 l 1,49,-1
 234 370 l 1,50,-1
 294 370 l 1,51,-1
 354 370 l 1,41,-1
354 190 m 1,52,-1
 354 190 l 1,53,-1
 354 250 l 1,54,-1
 294 250 l 1,55,-1
 234 250 l 1,56,-1
 174 250 l 1,57,-1
 114 250 l 1,58,-1
 114 190 l 1,59,-1
 114 130 l 1,60,-1
 114 70 l 1,61,-1
 174 70 l 1,62,-1
 234 70 l 1,63,-1
 294 70 l 1,64,-1
 354 70 l 1,65,-1
 354 130 l 1,66,-1
 354 190 l 1,52,-1
EndSplineSet
Validated: 5
EndChar

StartChar: seven
Encoding: 55 55 41
Width: 514
VWidth: 1150
GlyphClass: 2
Flags: W
LayerCount: 2
Fore
SplineSet
414 550 m 1,0,-1
 414 550 l 1,1,-1
 474 550 l 1,2,-1
 474 490 l 1,3,-1
 474 430 l 1,4,-1
 474 370 l 1,5,-1
 414 370 l 1,6,-1
 414 310 l 1,7,-1
 354 310 l 1,8,-1
 354 250 l 1,9,-1
 294 250 l 1,10,-1
 294 190 l 1,11,-1
 234 190 l 1,12,-1
 234 130 l 1,13,-1
 174 130 l 1,14,-1
 174 70 l 1,15,-1
 114 70 l 1,16,-1
 114 10 l 1,17,-1
 114 -50 l 1,18,-1
 54 -50 l 1,19,-1
 -6 -50 l 1,20,-1
 -6 10 l 1,21,-1
 -6 70 l 1,22,-1
 -6 130 l 1,23,-1
 54 130 l 1,24,-1
 54 190 l 1,25,-1
 114 190 l 1,26,-1
 114 250 l 1,27,-1
 174 250 l 1,28,-1
 174 310 l 1,29,-1
 234 310 l 1,30,-1
 234 370 l 1,31,-1
 294 370 l 1,32,-1
 294 430 l 1,33,-1
 234 430 l 1,34,-1
 174 430 l 1,35,-1
 114 430 l 1,36,-1
 54 430 l 1,37,-1
 -6 430 l 1,38,-1
 -6 490 l 1,39,-1
 -6 550 l 1,40,-1
 54 550 l 1,41,-1
 114 550 l 1,42,-1
 174 550 l 1,43,-1
 234 550 l 1,44,-1
 294 550 l 1,45,-1
 354 550 l 1,46,-1
 414 550 l 1,0,-1
EndSplineSet
Validated: 1
EndChar

StartChar: colon
Encoding: 58 58 42
Width: 258
GlyphClass: 2
Flags: W
LayerCount: 2
Fore
SplineSet
91 473 m 1,0,-1
 166 473 l 1,1,-1
 166 448 l 1,2,-1
 191 448 l 1,3,-1
 191 373 l 1,4,-1
 166 373 l 1,5,-1
 166 348 l 1,6,-1
 91 348 l 1,7,-1
 91 373 l 1,8,-1
 66 373 l 1,9,-1
 66 448 l 1,10,-1
 91 448 l 1,11,-1
 91 473 l 1,0,-1
91 123 m 1,12,-1
 166 123 l 1,13,-1
 166 98 l 1,14,-1
 191 98 l 1,15,-1
 191 23 l 1,16,-1
 166 23 l 1,17,-1
 166 -2 l 1,18,-1
 91 -2 l 1,19,-1
 91 23 l 1,20,-1
 66 23 l 1,21,-1
 66 98 l 1,22,-1
 91 98 l 1,23,-1
 91 123 l 1,12,-1
EndSplineSet
Validated: 1
EndChar

StartChar: semicolon
Encoding: 59 59 43
Width: 257
GlyphClass: 2
Flags: W
LayerCount: 2
Fore
SplineSet
95 473 m 1,0,-1
 170 473 l 1,1,-1
 170 448 l 1,2,-1
 195 448 l 1,3,-1
 195 373 l 1,4,-1
 170 373 l 1,5,-1
 170 348 l 1,6,-1
 95 348 l 1,7,-1
 95 373 l 1,8,-1
 70 373 l 1,9,-1
 70 448 l 1,10,-1
 95 448 l 1,11,-1
 95 473 l 1,0,-1
67 98 m 1,12,-1
 92 98 l 1,13,-1
 92 123 l 1,14,-1
 167 123 l 1,15,-1
 167 98 l 1,16,-1
 192 98 l 1,17,-1
 192 -2 l 1,18,-1
 167 -2 l 1,19,-1
 167 -27 l 1,20,-1
 142 -27 l 1,21,-1
 142 -52 l 1,22,-1
 117 -52 l 1,23,-1
 117 -77 l 1,24,-1
 92 -77 l 1,25,-1
 92 -52 l 1,26,-1
 67 -52 l 1,27,-1
 67 -27 l 1,28,-1
 92 -27 l 1,29,-1
 92 -2 l 1,30,-1
 117 -2 l 1,31,-1
 117 23 l 1,32,-1
 92 23 l 1,33,-1
 92 48 l 1,34,-1
 67 48 l 1,35,-1
 67 98 l 1,12,-1
EndSplineSet
Validated: 1
EndChar

StartChar: hyphen
Encoding: 45 45 44
Width: 512
GlyphClass: 2
Flags: W
LayerCount: 2
Fore
SplineSet
73 273 m 1,0,-1
 98 273 l 1,1,-1
 98 298 l 1,2,-1
 423 298 l 1,3,-1
 423 273 l 1,4,-1
 448 273 l 1,5,-1
 448 223 l 1,6,-1
 423 223 l 1,7,-1
 423 198 l 1,8,-1
 98 198 l 1,9,-1
 98 223 l 1,10,-1
 73 223 l 1,11,-1
 73 273 l 1,0,-1
EndSplineSet
Validated: 1
EndChar

StartChar: plus
Encoding: 43 43 45
Width: 592
GlyphClass: 2
Flags: W
LayerCount: 2
Fore
SplineSet
133 273 m 1,0,-1
 108 273 l 1,1,-1
 108 348 l 1,2,-1
 133 348 l 1,3,-1
 133 373 l 1,4,-1
 233 373 l 1,5,-1
 233 473 l 1,6,-1
 258 473 l 1,7,-1
 258 498 l 1,8,-1
 333 498 l 1,9,-1
 333 473 l 1,10,-1
 358 473 l 1,11,-1
 358 373 l 1,12,-1
 458 373 l 1,13,-1
 458 348 l 1,14,-1
 483 348 l 1,15,-1
 483 273 l 1,16,-1
 458 273 l 1,17,-1
 458 248 l 1,18,-1
 358 248 l 1,19,-1
 358 148 l 1,20,-1
 333 148 l 1,21,-1
 333 123 l 1,22,-1
 258 123 l 1,23,-1
 258 148 l 1,24,-1
 233 148 l 1,25,-1
 233 248 l 1,26,-1
 133 248 l 1,27,-1
 133 273 l 1,0,-1
EndSplineSet
Validated: 1
EndChar

StartChar: asterisk
Encoding: 42 42 46
Width: 386
GlyphClass: 2
Flags: W
LayerCount: 2
Fore
SplineSet
86 648 m 1,0,-1
 136 648 l 1,1,-1
 136 623 l 1,2,-1
 161 623 l 1,3,-1
 161 673 l 1,4,-1
 236 673 l 1,5,-1
 236 623 l 1,6,-1
 261 623 l 1,7,-1
 261 648 l 1,8,-1
 311 648 l 1,9,-1
 311 623 l 1,10,-1
 336 623 l 1,11,-1
 336 573 l 1,12,-1
 311 573 l 1,13,-1
 311 548 l 1,14,-1
 286 548 l 1,15,-1
 286 523 l 1,16,-1
 311 523 l 1,17,-1
 311 498 l 1,18,-1
 336 498 l 1,19,-1
 336 448 l 1,20,-1
 311 448 l 1,21,-1
 311 423 l 1,22,-1
 261 423 l 1,23,-1
 261 448 l 1,24,-1
 236 448 l 1,25,-1
 236 398 l 1,26,-1
 161 398 l 1,27,-1
 161 448 l 1,28,-1
 136 448 l 1,29,-1
 136 423 l 1,30,-1
 86 423 l 1,31,-1
 86 448 l 1,32,-1
 61 448 l 1,33,-1
 61 498 l 1,34,-1
 86 498 l 1,35,-1
 86 523 l 1,36,-1
 111 523 l 1,37,-1
 111 548 l 1,38,-1
 86 548 l 1,39,-1
 86 573 l 1,40,-1
 61 573 l 1,41,-1
 61 623 l 1,42,-1
 86 623 l 1,43,-1
 86 648 l 1,0,-1
EndSplineSet
Validated: 1
EndChar

StartChar: asciicircum
Encoding: 94 94 47
Width: 401
GlyphClass: 2
Flags: W
LayerCount: 2
Fore
SplineSet
146 623 m 1,0,-1
 171 623 l 1,1,-1
 171 648 l 1,2,-1
 221 648 l 1,3,-1
 221 623 l 1,4,-1
 246 623 l 1,5,-1
 246 573 l 1,6,-1
 271 573 l 1,7,-1
 271 523 l 1,8,-1
 296 523 l 1,9,-1
 296 473 l 1,10,-1
 321 473 l 1,11,-1
 321 423 l 1,12,-1
 346 423 l 1,13,-1
 346 373 l 1,14,-1
 321 373 l 1,15,-1
 321 348 l 1,16,-1
 246 348 l 1,17,-1
 246 398 l 1,18,-1
 221 398 l 1,19,-1
 221 448 l 1,20,-1
 171 448 l 1,21,-1
 171 398 l 1,22,-1
 146 398 l 1,23,-1
 146 348 l 1,24,-1
 71 348 l 1,25,-1
 71 373 l 1,26,-1
 46 373 l 1,27,-1
 46 423 l 1,28,-1
 71 423 l 1,29,-1
 71 473 l 1,30,-1
 96 473 l 1,31,-1
 96 523 l 1,32,-1
 121 523 l 1,33,-1
 121 573 l 1,34,-1
 146 573 l 1,35,-1
 146 623 l 1,0,-1
EndSplineSet
Validated: 1
EndChar

StartChar: tilde
Encoding: 732 732 48
Width: 487
GlyphClass: 2
Flags: W
LayerCount: 2
Fore
SplineSet
142 623 m 1,0,-1
 217 623 l 1,1,-1
 217 598 l 1,2,-1
 267 598 l 1,3,-1
 267 573 l 1,4,-1
 317 573 l 1,5,-1
 317 598 l 1,6,-1
 342 598 l 1,7,-1
 342 623 l 1,8,-1
 367 623 l 1,9,-1
 367 598 l 1,10,-1
 392 598 l 1,11,-1
 392 498 l 1,12,-1
 367 498 l 1,13,-1
 367 473 l 1,14,-1
 267 473 l 1,15,-1
 267 498 l 1,16,-1
 217 498 l 1,17,-1
 217 523 l 1,18,-1
 167 523 l 1,19,-1
 167 498 l 1,20,-1
 142 498 l 1,21,-1
 142 473 l 1,22,-1
 117 473 l 1,23,-1
 117 498 l 1,24,-1
 92 498 l 1,25,-1
 92 573 l 1,26,-1
 117 573 l 1,27,-1
 117 598 l 1,28,-1
 142 598 l 1,29,-1
 142 623 l 1,0,-1
EndSplineSet
Validated: 1
EndChar

StartChar: slash
Encoding: 47 47 49
Width: 455
GlyphClass: 2
Flags: W
LayerCount: 2
Fore
SplineSet
103 123 m 1,0,-1
 128 123 l 1,1,-1
 128 173 l 1,2,-1
 153 173 l 1,3,-1
 153 248 l 1,4,-1
 178 248 l 1,5,-1
 178 348 l 1,6,-1
 203 348 l 1,7,-1
 203 398 l 1,8,-1
 228 398 l 1,9,-1
 228 448 l 1,10,-1
 253 448 l 1,11,-1
 253 548 l 1,12,-1
 278 548 l 1,13,-1
 278 598 l 1,14,-1
 303 598 l 1,15,-1
 303 648 l 1,16,-1
 328 648 l 1,17,-1
 328 673 l 1,18,-1
 403 673 l 1,19,-1
 403 648 l 1,20,-1
 428 648 l 1,21,-1
 428 598 l 1,22,-1
 403 598 l 1,23,-1
 403 548 l 1,24,-1
 378 548 l 1,25,-1
 378 473 l 1,26,-1
 353 473 l 1,27,-1
 353 398 l 1,28,-1
 328 398 l 1,29,-1
 328 323 l 1,30,-1
 303 323 l 1,31,-1
 303 248 l 1,32,-1
 278 248 l 1,33,-1
 278 173 l 1,34,-1
 253 173 l 1,35,-1
 253 98 l 1,36,-1
 228 98 l 1,37,-1
 228 23 l 1,38,-1
 203 23 l 1,39,-1
 203 -27 l 1,40,-1
 178 -27 l 1,41,-1
 178 -77 l 1,42,-1
 78 -77 l 1,43,-1
 78 23 l 1,44,-1
 103 23 l 1,45,-1
 103 123 l 1,0,-1
EndSplineSet
Validated: 1
EndChar

StartChar: less
Encoding: 60 60 50
Width: 556
GlyphClass: 2
Flags: W
LayerCount: 2
Fore
SplineSet
144 273 m 1,0,-1
 119 273 l 1,1,-1
 119 298 l 1,2,-1
 94 298 l 1,3,-1
 94 348 l 1,4,-1
 119 348 l 1,5,-1
 119 373 l 1,6,-1
 144 373 l 1,7,-1
 144 398 l 1,8,-1
 194 398 l 1,9,-1
 194 423 l 1,10,-1
 244 423 l 1,11,-1
 244 448 l 1,12,-1
 294 448 l 1,13,-1
 294 473 l 1,14,-1
 369 473 l 1,15,-1
 369 498 l 1,16,-1
 444 498 l 1,17,-1
 444 473 l 1,18,-1
 469 473 l 1,19,-1
 469 423 l 1,20,-1
 444 423 l 1,21,-1
 444 398 l 1,22,-1
 419 398 l 1,23,-1
 419 373 l 1,24,-1
 369 373 l 1,25,-1
 369 348 l 1,26,-1
 319 348 l 1,27,-1
 319 298 l 1,28,-1
 369 298 l 1,29,-1
 369 273 l 1,30,-1
 419 273 l 1,31,-1
 419 248 l 1,32,-1
 444 248 l 1,33,-1
 444 223 l 1,34,-1
 469 223 l 1,35,-1
 469 173 l 1,36,-1
 444 173 l 1,37,-1
 444 148 l 1,38,-1
 369 148 l 1,39,-1
 369 173 l 1,40,-1
 294 173 l 1,41,-1
 294 198 l 1,42,-1
 244 198 l 1,43,-1
 244 223 l 1,44,-1
 194 223 l 1,45,-1
 194 248 l 1,46,-1
 144 248 l 1,47,-1
 144 273 l 1,0,-1
EndSplineSet
Validated: 1
EndChar

StartChar: greater
Encoding: 62 62 51
Width: 520
GlyphClass: 2
Flags: W
LayerCount: 2
Fore
SplineSet
369 248 m 1,0,-1
 369 223 l 1,1,-1
 319 223 l 1,2,-1
 319 198 l 1,3,-1
 269 198 l 1,4,-1
 269 173 l 1,5,-1
 194 173 l 1,6,-1
 194 148 l 1,7,-1
 119 148 l 1,8,-1
 119 173 l 1,9,-1
 94 173 l 1,10,-1
 94 223 l 1,11,-1
 119 223 l 1,12,-1
 119 248 l 1,13,-1
 144 248 l 1,14,-1
 144 273 l 1,15,-1
 194 273 l 1,16,-1
 194 298 l 1,17,-1
 244 298 l 1,18,-1
 244 348 l 1,19,-1
 194 348 l 1,20,-1
 194 373 l 1,21,-1
 144 373 l 1,22,-1
 144 398 l 1,23,-1
 119 398 l 1,24,-1
 119 423 l 1,25,-1
 94 423 l 1,26,-1
 94 473 l 1,27,-1
 119 473 l 1,28,-1
 119 498 l 1,29,-1
 194 498 l 1,30,-1
 194 473 l 1,31,-1
 269 473 l 1,32,-1
 269 448 l 1,33,-1
 319 448 l 1,34,-1
 319 423 l 1,35,-1
 369 423 l 1,36,-1
 369 398 l 1,37,-1
 419 398 l 1,38,-1
 419 373 l 1,39,-1
 444 373 l 1,40,-1
 444 348 l 1,41,-1
 469 348 l 1,42,-1
 469 298 l 1,43,-1
 444 298 l 1,44,-1
 444 273 l 1,45,-1
 419 273 l 1,46,-1
 419 248 l 1,47,-1
 369 248 l 1,0,-1
EndSplineSet
Validated: 1
EndChar

StartChar: equal
Encoding: 61 61 52
Width: 652
GlyphClass: 2
Flags: W
LayerCount: 2
Fore
SplineSet
132 448 m 1,0,-1
 507 448 l 1,1,-1
 507 423 l 1,2,-1
 532 423 l 1,3,-1
 532 373 l 1,4,-1
 507 373 l 1,5,-1
 507 348 l 1,6,-1
 132 348 l 1,7,-1
 132 373 l 1,8,-1
 107 373 l 1,9,-1
 107 423 l 1,10,-1
 132 423 l 1,11,-1
 132 448 l 1,0,-1
107 273 m 1,12,-1
 132 273 l 1,13,-1
 132 298 l 1,14,-1
 507 298 l 1,15,-1
 507 273 l 1,16,-1
 532 273 l 1,17,-1
 532 223 l 1,18,-1
 507 223 l 1,19,-1
 507 198 l 1,20,-1
 132 198 l 1,21,-1
 132 223 l 1,22,-1
 107 223 l 1,23,-1
 107 273 l 1,12,-1
EndSplineSet
Validated: 1
EndChar

StartChar: exclam
Encoding: 33 33 53
Width: 326
GlyphClass: 2
Flags: W
LayerCount: 2
Fore
SplineSet
103 648 m 1,0,-1
 128 648 l 1,1,-1
 128 673 l 1,2,-1
 228 673 l 1,3,-1
 228 648 l 1,4,-1
 253 648 l 1,5,-1
 253 198 l 1,6,-1
 228 198 l 1,7,-1
 228 173 l 1,8,-1
 203 173 l 1,9,-1
 203 148 l 1,10,-1
 153 148 l 1,11,-1
 153 173 l 1,12,-1
 128 173 l 1,13,-1
 128 198 l 1,14,-1
 103 198 l 1,15,-1
 103 648 l 1,0,-1
128 123 m 1,16,-1
 228 123 l 1,17,-1
 228 98 l 1,18,-1
 253 98 l 1,19,-1
 253 23 l 1,20,-1
 228 23 l 1,21,-1
 228 -2 l 1,22,-1
 128 -2 l 1,23,-1
 128 23 l 1,24,-1
 103 23 l 1,25,-1
 103 98 l 1,26,-1
 128 98 l 1,27,-1
 128 123 l 1,16,-1
EndSplineSet
Validated: 1
EndChar

StartChar: question
Encoding: 63 63 54
Width: 507
GlyphClass: 2
Flags: W
LayerCount: 2
Fore
SplineSet
198 273 m 1,0,-1
 223 273 l 1,1,-1
 223 298 l 1,2,-1
 248 298 l 1,3,-1
 248 323 l 1,4,-1
 273 323 l 1,5,-1
 273 373 l 1,6,-1
 298 373 l 1,7,-1
 298 423 l 1,8,-1
 323 423 l 1,9,-1
 323 523 l 1,10,-1
 298 523 l 1,11,-1
 298 548 l 1,12,-1
 198 548 l 1,13,-1
 198 523 l 1,14,-1
 173 523 l 1,15,-1
 173 473 l 1,16,-1
 48 473 l 1,17,-1
 48 498 l 1,18,-1
 23 498 l 1,19,-1
 23 573 l 1,20,-1
 48 573 l 1,21,-1
 48 598 l 1,22,-1
 73 598 l 1,23,-1
 73 623 l 1,24,-1
 98 623 l 1,25,-1
 98 648 l 1,26,-1
 148 648 l 1,27,-1
 148 673 l 1,28,-1
 373 673 l 1,29,-1
 373 648 l 1,30,-1
 423 648 l 1,31,-1
 423 623 l 1,32,-1
 448 623 l 1,33,-1
 448 598 l 1,34,-1
 473 598 l 1,35,-1
 473 398 l 1,36,-1
 448 398 l 1,37,-1
 448 348 l 1,38,-1
 423 348 l 1,39,-1
 423 323 l 1,40,-1
 398 323 l 1,41,-1
 398 273 l 1,42,-1
 373 273 l 1,43,-1
 373 248 l 1,44,-1
 348 248 l 1,45,-1
 348 223 l 1,46,-1
 323 223 l 1,47,-1
 323 198 l 1,48,-1
 298 198 l 1,49,-1
 298 173 l 1,50,-1
 248 173 l 1,51,-1
 248 148 l 1,52,-1
 198 148 l 1,53,-1
 198 173 l 1,54,-1
 173 173 l 1,55,-1
 173 248 l 1,56,-1
 198 248 l 1,57,-1
 198 273 l 1,0,-1
173 123 m 1,58,-1
 273 123 l 1,59,-1
 273 98 l 1,60,-1
 298 98 l 1,61,-1
 298 23 l 1,62,-1
 273 23 l 1,63,-1
 273 -2 l 1,64,-1
 173 -2 l 1,65,-1
 173 23 l 1,66,-1
 148 23 l 1,67,-1
 148 98 l 1,68,-1
 173 98 l 1,69,-1
 173 123 l 1,58,-1
EndSplineSet
Validated: 1
EndChar

StartChar: quotesingle
Encoding: 39 39 55
Width: 201
GlyphClass: 2
Flags: W
LayerCount: 2
Fore
SplineSet
52 698 m 1,0,-1
 152 698 l 1,1,-1
 152 548 l 1,2,-1
 127 548 l 1,3,-1
 127 498 l 1,4,-1
 77 498 l 1,5,-1
 77 548 l 1,6,-1
 52 548 l 1,7,-1
 52 698 l 1,0,-1
EndSplineSet
Validated: 1
EndChar

StartChar: quotedbl
Encoding: 34 34 56
Width: 326
GlyphClass: 2
Flags: W
LayerCount: 2
Fore
SplineSet
46 698 m 1,0,-1
 146 698 l 1,1,-1
 146 548 l 1,2,-1
 121 548 l 1,3,-1
 121 498 l 1,4,-1
 71 498 l 1,5,-1
 71 548 l 1,6,-1
 46 548 l 1,7,-1
 46 698 l 1,0,-1
196 698 m 1,8,-1
 296 698 l 1,9,-1
 296 548 l 1,10,-1
 271 548 l 1,11,-1
 271 498 l 1,12,-1
 221 498 l 1,13,-1
 221 548 l 1,14,-1
 196 548 l 1,15,-1
 196 698 l 1,8,-1
EndSplineSet
Validated: 1
EndChar

StartChar: numbersign
Encoding: 35 35 57
Width: 654
GlyphClass: 2
Flags: W
LayerCount: 2
Fore
SplineSet
73 273 m 1,0,-1
 148 273 l 1,1,-1
 148 348 l 1,2,-1
 173 348 l 1,3,-1
 173 373 l 1,4,-1
 98 373 l 1,5,-1
 98 398 l 1,6,-1
 73 398 l 1,7,-1
 73 423 l 1,8,-1
 98 423 l 1,9,-1
 98 448 l 1,10,-1
 198 448 l 1,11,-1
 198 523 l 1,12,-1
 223 523 l 1,13,-1
 223 598 l 1,14,-1
 248 598 l 1,15,-1
 248 623 l 1,16,-1
 323 623 l 1,17,-1
 323 598 l 1,18,-1
 348 598 l 1,19,-1
 348 523 l 1,20,-1
 323 523 l 1,21,-1
 323 473 l 1,22,-1
 298 473 l 1,23,-1
 298 448 l 1,24,-1
 423 448 l 1,25,-1
 423 523 l 1,26,-1
 448 523 l 1,27,-1
 448 598 l 1,28,-1
 473 598 l 1,29,-1
 473 623 l 1,30,-1
 548 623 l 1,31,-1
 548 598 l 1,32,-1
 573 598 l 1,33,-1
 573 523 l 1,34,-1
 548 523 l 1,35,-1
 548 473 l 1,36,-1
 523 473 l 1,37,-1
 523 448 l 1,38,-1
 573 448 l 1,39,-1
 573 423 l 1,40,-1
 598 423 l 1,41,-1
 598 398 l 1,42,-1
 573 398 l 1,43,-1
 573 373 l 1,44,-1
 523 373 l 1,45,-1
 523 348 l 1,46,-1
 498 348 l 1,47,-1
 498 298 l 1,48,-1
 473 298 l 1,49,-1
 473 273 l 1,50,-1
 548 273 l 1,51,-1
 548 248 l 1,52,-1
 573 248 l 1,53,-1
 573 223 l 1,54,-1
 548 223 l 1,55,-1
 548 198 l 1,56,-1
 448 198 l 1,57,-1
 448 123 l 1,58,-1
 423 123 l 1,59,-1
 423 73 l 1,60,-1
 398 73 l 1,61,-1
 398 48 l 1,62,-1
 298 48 l 1,63,-1
 298 123 l 1,64,-1
 323 123 l 1,65,-1
 323 173 l 1,66,-1
 348 173 l 1,67,-1
 348 198 l 1,68,-1
 223 198 l 1,69,-1
 223 123 l 1,70,-1
 198 123 l 1,71,-1
 198 73 l 1,72,-1
 173 73 l 1,73,-1
 173 48 l 1,74,-1
 73 48 l 1,75,-1
 73 123 l 1,76,-1
 98 123 l 1,77,-1
 98 173 l 1,78,-1
 123 173 l 1,79,-1
 123 198 l 1,80,-1
 73 198 l 1,81,-1
 73 223 l 1,82,-1
 48 223 l 1,83,-1
 48 248 l 1,84,-1
 73 248 l 1,85,-1
 73 273 l 1,0,-1
298 348 m 1,86,-1
 273 348 l 1,87,-1
 273 298 l 1,88,-1
 248 298 l 1,89,-1
 248 273 l 1,90,-1
 373 273 l 1,91,-1
 373 348 l 1,92,-1
 398 348 l 1,93,-1
 398 373 l 1,94,-1
 298 373 l 1,95,-1
 298 348 l 1,86,-1
EndSplineSet
Validated: 1
EndChar

StartChar: at
Encoding: 64 64 58
Width: 753
GlyphClass: 2
Flags: W
LayerCount: 2
Fore
SplineSet
221 373 m 1,0,-1
 246 373 l 1,1,-1
 246 423 l 1,2,-1
 271 423 l 1,3,-1
 271 448 l 1,4,-1
 296 448 l 1,5,-1
 296 473 l 1,6,-1
 321 473 l 1,7,-1
 321 498 l 1,8,-1
 471 498 l 1,9,-1
 471 473 l 1,10,-1
 496 473 l 1,11,-1
 496 423 l 1,12,-1
 521 423 l 1,13,-1
 521 398 l 1,14,-1
 546 398 l 1,15,-1
 546 223 l 1,16,-1
 571 223 l 1,17,-1
 571 248 l 1,18,-1
 596 248 l 1,19,-1
 596 273 l 1,20,-1
 621 273 l 1,21,-1
 621 423 l 1,22,-1
 596 423 l 1,23,-1
 596 448 l 1,24,-1
 571 448 l 1,25,-1
 571 473 l 1,26,-1
 546 473 l 1,27,-1
 546 498 l 1,28,-1
 521 498 l 1,29,-1
 521 523 l 1,30,-1
 496 523 l 1,31,-1
 496 548 l 1,32,-1
 446 548 l 1,33,-1
 446 573 l 1,34,-1
 346 573 l 1,35,-1
 346 548 l 1,36,-1
 271 548 l 1,37,-1
 271 523 l 1,38,-1
 246 523 l 1,39,-1
 246 498 l 1,40,-1
 221 498 l 1,41,-1
 221 473 l 1,42,-1
 196 473 l 1,43,-1
 196 423 l 1,44,-1
 171 423 l 1,45,-1
 171 323 l 1,46,-1
 146 323 l 1,47,-1
 146 223 l 1,48,-1
 171 223 l 1,49,-1
 171 173 l 1,50,-1
 196 173 l 1,51,-1
 196 123 l 1,52,-1
 221 123 l 1,53,-1
 221 98 l 1,54,-1
 246 98 l 1,55,-1
 246 73 l 1,56,-1
 296 73 l 1,57,-1
 296 48 l 1,58,-1
 471 48 l 1,59,-1
 471 73 l 1,60,-1
 521 73 l 1,61,-1
 521 98 l 1,62,-1
 596 98 l 1,63,-1
 596 48 l 1,64,-1
 571 48 l 1,65,-1
 571 23 l 1,66,-1
 546 23 l 1,67,-1
 546 -2 l 1,68,-1
 496 -2 l 1,69,-1
 496 -27 l 1,70,-1
 221 -27 l 1,71,-1
 221 -2 l 1,72,-1
 171 -2 l 1,73,-1
 171 23 l 1,74,-1
 146 23 l 1,75,-1
 146 48 l 1,76,-1
 121 48 l 1,77,-1
 121 73 l 1,78,-1
 96 73 l 1,79,-1
 96 98 l 1,80,-1
 71 98 l 1,81,-1
 71 148 l 1,82,-1
 46 148 l 1,83,-1
 46 423 l 1,84,-1
 71 423 l 1,85,-1
 71 448 l 1,86,-1
 96 448 l 1,87,-1
 96 498 l 1,88,-1
 121 498 l 1,89,-1
 121 523 l 1,90,-1
 146 523 l 1,91,-1
 146 548 l 1,92,-1
 171 548 l 1,93,-1
 171 573 l 1,94,-1
 196 573 l 1,95,-1
 196 598 l 1,96,-1
 246 598 l 1,97,-1
 246 623 l 1,98,-1
 296 623 l 1,99,-1
 296 648 l 1,100,-1
 521 648 l 1,101,-1
 521 623 l 1,102,-1
 571 623 l 1,103,-1
 571 598 l 1,104,-1
 621 598 l 1,105,-1
 621 573 l 1,106,-1
 646 573 l 1,107,-1
 646 548 l 1,108,-1
 671 548 l 1,109,-1
 671 523 l 1,110,-1
 696 523 l 1,111,-1
 696 473 l 1,112,-1
 721 473 l 1,113,-1
 721 248 l 1,114,-1
 696 248 l 1,115,-1
 696 223 l 1,116,-1
 671 223 l 1,117,-1
 671 198 l 1,118,-1
 646 198 l 1,119,-1
 646 173 l 1,120,-1
 621 173 l 1,121,-1
 621 148 l 1,122,-1
 596 148 l 1,123,-1
 596 123 l 1,124,-1
 471 123 l 1,125,-1
 471 173 l 1,126,-1
 446 173 l 1,127,-1
 446 148 l 1,128,-1
 421 148 l 1,129,-1
 421 123 l 1,130,-1
 396 123 l 1,131,-1
 396 98 l 1,132,-1
 296 98 l 1,133,-1
 296 123 l 1,134,-1
 271 123 l 1,135,-1
 271 173 l 1,136,-1
 246 173 l 1,137,-1
 246 198 l 1,138,-1
 221 198 l 1,139,-1
 221 373 l 1,0,-1
396 298 m 1,140,-1
 421 298 l 1,141,-1
 421 398 l 1,142,-1
 446 398 l 1,143,-1
 446 423 l 1,144,-1
 371 423 l 1,145,-1
 371 373 l 1,146,-1
 346 373 l 1,147,-1
 346 298 l 1,148,-1
 321 298 l 1,149,-1
 321 248 l 1,150,-1
 346 248 l 1,151,-1
 346 223 l 1,152,-1
 396 223 l 1,153,-1
 396 298 l 1,140,-1
EndSplineSet
Validated: 1
EndChar

StartChar: dollar
Encoding: 36 36 59
Width: 535
GlyphClass: 2
Flags: W
LayerCount: 2
Fore
SplineSet
183 273 m 1,0,-1
 158 273 l 1,1,-1
 158 298 l 1,2,-1
 108 298 l 1,3,-1
 108 323 l 1,4,-1
 83 323 l 1,5,-1
 83 373 l 1,6,-1
 58 373 l 1,7,-1
 58 523 l 1,8,-1
 83 523 l 1,9,-1
 83 573 l 1,10,-1
 108 573 l 1,11,-1
 108 598 l 1,12,-1
 133 598 l 1,13,-1
 133 623 l 1,14,-1
 158 623 l 1,15,-1
 158 648 l 1,16,-1
 183 648 l 1,17,-1
 183 673 l 1,18,-1
 233 673 l 1,19,-1
 233 723 l 1,20,-1
 258 723 l 1,21,-1
 258 748 l 1,22,-1
 308 748 l 1,23,-1
 308 723 l 1,24,-1
 333 723 l 1,25,-1
 333 673 l 1,26,-1
 383 673 l 1,27,-1
 383 648 l 1,28,-1
 408 648 l 1,29,-1
 408 623 l 1,30,-1
 433 623 l 1,31,-1
 433 598 l 1,32,-1
 458 598 l 1,33,-1
 458 548 l 1,34,-1
 483 548 l 1,35,-1
 483 373 l 1,36,-1
 458 373 l 1,37,-1
 458 348 l 1,38,-1
 383 348 l 1,39,-1
 383 373 l 1,40,-1
 358 373 l 1,41,-1
 358 498 l 1,42,-1
 333 498 l 1,43,-1
 333 523 l 1,44,-1
 308 523 l 1,45,-1
 308 548 l 1,46,-1
 233 548 l 1,47,-1
 233 523 l 1,48,-1
 208 523 l 1,49,-1
 208 498 l 1,50,-1
 183 498 l 1,51,-1
 183 423 l 1,52,-1
 208 423 l 1,53,-1
 208 398 l 1,54,-1
 233 398 l 1,55,-1
 233 348 l 1,56,-1
 283 348 l 1,57,-1
 283 323 l 1,58,-1
 308 323 l 1,59,-1
 308 298 l 1,60,-1
 358 298 l 1,61,-1
 358 273 l 1,62,-1
 408 273 l 1,63,-1
 408 248 l 1,64,-1
 433 248 l 1,65,-1
 433 223 l 1,66,-1
 458 223 l 1,67,-1
 458 198 l 1,68,-1
 483 198 l 1,69,-1
 483 48 l 1,70,-1
 458 48 l 1,71,-1
 458 23 l 1,72,-1
 433 23 l 1,73,-1
 433 -2 l 1,74,-1
 383 -2 l 1,75,-1
 383 -27 l 1,76,-1
 333 -27 l 1,77,-1
 333 -77 l 1,78,-1
 308 -77 l 1,79,-1
 308 -102 l 1,80,-1
 258 -102 l 1,81,-1
 258 -77 l 1,82,-1
 233 -77 l 1,83,-1
 233 -27 l 1,84,-1
 183 -27 l 1,85,-1
 183 -2 l 1,86,-1
 133 -2 l 1,87,-1
 133 23 l 1,88,-1
 83 23 l 1,89,-1
 83 73 l 1,90,-1
 58 73 l 1,91,-1
 58 198 l 1,92,-1
 83 198 l 1,93,-1
 83 223 l 1,94,-1
 133 223 l 1,95,-1
 133 198 l 1,96,-1
 158 198 l 1,97,-1
 158 148 l 1,98,-1
 183 148 l 1,99,-1
 183 123 l 1,100,-1
 233 123 l 1,101,-1
 233 98 l 1,102,-1
 333 98 l 1,103,-1
 333 123 l 1,104,-1
 358 123 l 1,105,-1
 358 148 l 1,106,-1
 333 148 l 1,107,-1
 333 173 l 1,108,-1
 308 173 l 1,109,-1
 308 198 l 1,110,-1
 258 198 l 1,111,-1
 258 223 l 1,112,-1
 208 223 l 1,113,-1
 208 248 l 1,114,-1
 183 248 l 1,115,-1
 183 273 l 1,0,-1
EndSplineSet
Validated: 1
EndChar

StartChar: Euro
Encoding: 8364 8364 60
Width: 541
GlyphClass: 2
Flags: W
LayerCount: 2
Fore
SplineSet
39 198 m 1,0,-1
 39 223 l 1,1,-1
 14 223 l 1,2,-1
 14 273 l 1,3,-1
 39 273 l 1,4,-1
 39 298 l 1,5,-1
 89 298 l 1,6,-1
 89 323 l 1,7,-1
 39 323 l 1,8,-1
 39 348 l 1,9,-1
 14 348 l 1,10,-1
 14 398 l 1,11,-1
 39 398 l 1,12,-1
 39 423 l 1,13,-1
 89 423 l 1,14,-1
 89 473 l 1,15,-1
 114 473 l 1,16,-1
 114 548 l 1,17,-1
 139 548 l 1,18,-1
 139 598 l 1,19,-1
 164 598 l 1,20,-1
 164 623 l 1,21,-1
 189 623 l 1,22,-1
 189 648 l 1,23,-1
 239 648 l 1,24,-1
 239 673 l 1,25,-1
 389 673 l 1,26,-1
 389 648 l 1,27,-1
 414 648 l 1,28,-1
 414 623 l 1,29,-1
 439 623 l 1,30,-1
 439 598 l 1,31,-1
 464 598 l 1,32,-1
 464 548 l 1,33,-1
 489 548 l 1,34,-1
 489 348 l 1,35,-1
 464 348 l 1,36,-1
 464 323 l 1,37,-1
 389 323 l 1,38,-1
 389 348 l 1,39,-1
 364 348 l 1,40,-1
 364 473 l 1,41,-1
 339 473 l 1,42,-1
 339 523 l 1,43,-1
 289 523 l 1,44,-1
 289 498 l 1,45,-1
 264 498 l 1,46,-1
 264 448 l 1,47,-1
 239 448 l 1,48,-1
 239 423 l 1,49,-1
 289 423 l 1,50,-1
 289 398 l 1,51,-1
 314 398 l 1,52,-1
 314 348 l 1,53,-1
 289 348 l 1,54,-1
 289 323 l 1,55,-1
 239 323 l 1,56,-1
 239 298 l 1,57,-1
 289 298 l 1,58,-1
 289 273 l 1,59,-1
 314 273 l 1,60,-1
 314 223 l 1,61,-1
 289 223 l 1,62,-1
 289 198 l 1,63,-1
 239 198 l 1,64,-1
 239 173 l 1,65,-1
 264 173 l 1,66,-1
 264 123 l 1,67,-1
 289 123 l 1,68,-1
 289 98 l 1,69,-1
 364 98 l 1,70,-1
 364 123 l 1,71,-1
 389 123 l 1,72,-1
 389 148 l 1,73,-1
 414 148 l 1,74,-1
 414 198 l 1,75,-1
 489 198 l 1,76,-1
 489 173 l 1,77,-1
 514 173 l 1,78,-1
 514 73 l 1,79,-1
 489 73 l 1,80,-1
 489 48 l 1,81,-1
 464 48 l 1,82,-1
 464 23 l 1,83,-1
 439 23 l 1,84,-1
 439 -2 l 1,85,-1
 389 -2 l 1,86,-1
 389 -27 l 1,87,-1
 239 -27 l 1,88,-1
 239 -2 l 1,89,-1
 189 -2 l 1,90,-1
 189 23 l 1,91,-1
 164 23 l 1,92,-1
 164 48 l 1,93,-1
 139 48 l 1,94,-1
 139 98 l 1,95,-1
 114 98 l 1,96,-1
 114 148 l 1,97,-1
 89 148 l 1,98,-1
 89 198 l 1,99,-1
 39 198 l 1,0,-1
EndSplineSet
Validated: 1
EndChar

StartChar: percent
Encoding: 37 37 61
Width: 897
GlyphClass: 2
Flags: W
LayerCount: 2
Fore
SplineSet
143 673 m 1,0,-1
 318 673 l 1,1,-1
 318 648 l 1,2,-1
 343 648 l 1,3,-1
 343 623 l 1,4,-1
 368 623 l 1,5,-1
 368 573 l 1,6,-1
 393 573 l 1,7,-1
 393 373 l 1,8,-1
 368 373 l 1,9,-1
 368 323 l 1,10,-1
 318 323 l 1,11,-1
 318 298 l 1,12,-1
 268 298 l 1,13,-1
 268 273 l 1,14,-1
 143 273 l 1,15,-1
 143 298 l 1,16,-1
 93 298 l 1,17,-1
 93 323 l 1,18,-1
 68 323 l 1,19,-1
 68 373 l 1,20,-1
 43 373 l 1,21,-1
 43 573 l 1,22,-1
 68 573 l 1,23,-1
 68 623 l 1,24,-1
 93 623 l 1,25,-1
 93 648 l 1,26,-1
 143 648 l 1,27,-1
 143 673 l 1,0,-1
318 198 m 1,28,-1
 343 198 l 1,29,-1
 343 248 l 1,30,-1
 368 248 l 1,31,-1
 368 273 l 1,32,-1
 393 273 l 1,33,-1
 393 298 l 1,34,-1
 418 298 l 1,35,-1
 418 348 l 1,36,-1
 443 348 l 1,37,-1
 443 398 l 1,38,-1
 468 398 l 1,39,-1
 468 448 l 1,40,-1
 493 448 l 1,41,-1
 493 473 l 1,42,-1
 518 473 l 1,43,-1
 518 498 l 1,44,-1
 543 498 l 1,45,-1
 543 548 l 1,46,-1
 568 548 l 1,47,-1
 568 598 l 1,48,-1
 593 598 l 1,49,-1
 593 623 l 1,50,-1
 618 623 l 1,51,-1
 618 648 l 1,52,-1
 643 648 l 1,53,-1
 643 673 l 1,54,-1
 718 673 l 1,55,-1
 718 648 l 1,56,-1
 743 648 l 1,57,-1
 743 623 l 1,58,-1
 718 623 l 1,59,-1
 718 598 l 1,60,-1
 693 598 l 1,61,-1
 693 548 l 1,62,-1
 668 548 l 1,63,-1
 668 523 l 1,64,-1
 643 523 l 1,65,-1
 643 473 l 1,66,-1
 618 473 l 1,67,-1
 618 448 l 1,68,-1
 593 448 l 1,69,-1
 593 398 l 1,70,-1
 568 398 l 1,71,-1
 568 348 l 1,72,-1
 543 348 l 1,73,-1
 543 323 l 1,74,-1
 518 323 l 1,75,-1
 518 298 l 1,76,-1
 493 298 l 1,77,-1
 493 248 l 1,78,-1
 468 248 l 1,79,-1
 468 198 l 1,80,-1
 443 198 l 1,81,-1
 443 173 l 1,82,-1
 418 173 l 1,83,-1
 418 148 l 1,84,-1
 393 148 l 1,85,-1
 393 98 l 1,86,-1
 368 98 l 1,87,-1
 368 48 l 1,88,-1
 343 48 l 1,89,-1
 343 23 l 1,90,-1
 318 23 l 1,91,-1
 318 -2 l 1,92,-1
 293 -2 l 1,93,-1
 293 -27 l 1,94,-1
 218 -27 l 1,95,-1
 218 48 l 1,96,-1
 243 48 l 1,97,-1
 243 98 l 1,98,-1
 268 98 l 1,99,-1
 268 148 l 1,100,-1
 293 148 l 1,101,-1
 293 173 l 1,102,-1
 318 173 l 1,103,-1
 318 198 l 1,28,-1
193 573 m 1,104,-1
 168 573 l 1,105,-1
 168 498 l 1,106,-1
 143 498 l 1,107,-1
 143 423 l 1,108,-1
 168 423 l 1,109,-1
 168 373 l 1,110,-1
 193 373 l 1,111,-1
 193 348 l 1,112,-1
 243 348 l 1,113,-1
 243 373 l 1,114,-1
 268 373 l 1,115,-1
 268 423 l 1,116,-1
 293 423 l 1,117,-1
 293 498 l 1,118,-1
 268 498 l 1,119,-1
 268 573 l 1,120,-1
 243 573 l 1,121,-1
 243 598 l 1,122,-1
 193 598 l 1,123,-1
 193 573 l 1,104,-1
543 298 m 1,124,-1
 568 298 l 1,125,-1
 568 323 l 1,126,-1
 593 323 l 1,127,-1
 593 348 l 1,128,-1
 643 348 l 1,129,-1
 643 373 l 1,130,-1
 768 373 l 1,131,-1
 768 348 l 1,132,-1
 818 348 l 1,133,-1
 818 298 l 1,134,-1
 843 298 l 1,135,-1
 843 248 l 1,136,-1
 868 248 l 1,137,-1
 868 98 l 1,138,-1
 843 98 l 1,139,-1
 843 23 l 1,140,-1
 818 23 l 1,141,-1
 818 -2 l 1,142,-1
 768 -2 l 1,143,-1
 768 -27 l 1,144,-1
 618 -27 l 1,145,-1
 618 -2 l 1,146,-1
 568 -2 l 1,147,-1
 568 23 l 1,148,-1
 543 23 l 1,149,-1
 543 73 l 1,150,-1
 518 73 l 1,151,-1
 518 248 l 1,152,-1
 543 248 l 1,153,-1
 543 298 l 1,124,-1
618 123 m 1,154,-1
 643 123 l 1,155,-1
 643 48 l 1,156,-1
 668 48 l 1,157,-1
 668 23 l 1,158,-1
 718 23 l 1,159,-1
 718 48 l 1,160,-1
 743 48 l 1,161,-1
 743 123 l 1,162,-1
 768 123 l 1,163,-1
 768 198 l 1,164,-1
 743 198 l 1,165,-1
 743 273 l 1,166,-1
 718 273 l 1,167,-1
 718 298 l 1,168,-1
 668 298 l 1,169,-1
 668 273 l 1,170,-1
 643 273 l 1,171,-1
 643 198 l 1,172,-1
 618 198 l 1,173,-1
 618 123 l 1,154,-1
EndSplineSet
Validated: 1
EndChar

StartChar: ampersand
Encoding: 38 38 62
Width: 732
GlyphClass: 2
Flags: W
LayerCount: 2
Fore
SplineSet
136 273 m 1,0,-1
 161 273 l 1,1,-1
 161 298 l 1,2,-1
 186 298 l 1,3,-1
 186 323 l 1,4,-1
 211 323 l 1,5,-1
 211 373 l 1,6,-1
 186 373 l 1,7,-1
 186 423 l 1,8,-1
 161 423 l 1,9,-1
 161 573 l 1,10,-1
 186 573 l 1,11,-1
 186 598 l 1,12,-1
 211 598 l 1,13,-1
 211 623 l 1,14,-1
 236 623 l 1,15,-1
 236 648 l 1,16,-1
 286 648 l 1,17,-1
 286 673 l 1,18,-1
 411 673 l 1,19,-1
 411 648 l 1,20,-1
 461 648 l 1,21,-1
 461 623 l 1,22,-1
 486 623 l 1,23,-1
 486 598 l 1,24,-1
 511 598 l 1,25,-1
 511 448 l 1,26,-1
 486 448 l 1,27,-1
 486 423 l 1,28,-1
 461 423 l 1,29,-1
 461 398 l 1,30,-1
 436 398 l 1,31,-1
 436 348 l 1,32,-1
 386 348 l 1,33,-1
 386 323 l 1,34,-1
 336 323 l 1,35,-1
 336 298 l 1,36,-1
 361 298 l 1,37,-1
 361 273 l 1,38,-1
 386 273 l 1,39,-1
 386 248 l 1,40,-1
 411 248 l 1,41,-1
 411 223 l 1,42,-1
 436 223 l 1,43,-1
 436 198 l 1,44,-1
 486 198 l 1,45,-1
 486 248 l 1,46,-1
 461 248 l 1,47,-1
 461 273 l 1,48,-1
 436 273 l 1,49,-1
 436 298 l 1,50,-1
 461 298 l 1,51,-1
 461 323 l 1,52,-1
 636 323 l 1,53,-1
 636 298 l 1,54,-1
 661 298 l 1,55,-1
 661 273 l 1,56,-1
 636 273 l 1,57,-1
 636 248 l 1,58,-1
 586 248 l 1,59,-1
 586 198 l 1,60,-1
 561 198 l 1,61,-1
 561 148 l 1,62,-1
 536 148 l 1,63,-1
 536 123 l 1,64,-1
 511 123 l 1,65,-1
 511 98 l 1,66,-1
 561 98 l 1,67,-1
 561 73 l 1,68,-1
 611 73 l 1,69,-1
 611 48 l 1,70,-1
 636 48 l 1,71,-1
 636 -2 l 1,72,-1
 611 -2 l 1,73,-1
 611 -27 l 1,74,-1
 561 -27 l 1,75,-1
 561 -2 l 1,76,-1
 511 -2 l 1,77,-1
 511 23 l 1,78,-1
 486 23 l 1,79,-1
 486 48 l 1,80,-1
 436 48 l 1,81,-1
 436 23 l 1,82,-1
 411 23 l 1,83,-1
 411 -2 l 1,84,-1
 361 -2 l 1,85,-1
 361 -27 l 1,86,-1
 236 -27 l 1,87,-1
 236 -2 l 1,88,-1
 186 -2 l 1,89,-1
 186 23 l 1,90,-1
 161 23 l 1,91,-1
 161 48 l 1,92,-1
 136 48 l 1,93,-1
 136 73 l 1,94,-1
 111 73 l 1,95,-1
 111 223 l 1,96,-1
 136 223 l 1,97,-1
 136 273 l 1,0,-1
336 573 m 1,98,-1
 311 573 l 1,99,-1
 311 548 l 1,100,-1
 286 548 l 1,101,-1
 286 523 l 1,102,-1
 261 523 l 1,103,-1
 261 473 l 1,104,-1
 286 473 l 1,105,-1
 286 448 l 1,106,-1
 311 448 l 1,107,-1
 311 398 l 1,108,-1
 336 398 l 1,109,-1
 336 423 l 1,110,-1
 361 423 l 1,111,-1
 361 448 l 1,112,-1
 386 448 l 1,113,-1
 386 473 l 1,114,-1
 411 473 l 1,115,-1
 411 523 l 1,116,-1
 386 523 l 1,117,-1
 386 573 l 1,118,-1
 361 573 l 1,119,-1
 361 598 l 1,120,-1
 336 598 l 1,121,-1
 336 573 l 1,98,-1
236 123 m 1,122,-1
 261 123 l 1,123,-1
 261 98 l 1,124,-1
 286 98 l 1,125,-1
 286 73 l 1,126,-1
 361 73 l 1,127,-1
 361 98 l 1,128,-1
 386 98 l 1,129,-1
 386 123 l 1,130,-1
 361 123 l 1,131,-1
 361 148 l 1,132,-1
 336 148 l 1,133,-1
 336 173 l 1,134,-1
 311 173 l 1,135,-1
 311 198 l 1,136,-1
 286 198 l 1,137,-1
 286 223 l 1,138,-1
 261 223 l 1,139,-1
 261 198 l 1,140,-1
 236 198 l 1,141,-1
 236 123 l 1,122,-1
EndSplineSet
Validated: 1
EndChar

StartChar: parenleft
Encoding: 40 40 63
Width: 400
GlyphClass: 2
Flags: W
LayerCount: 2
Fore
SplineSet
84 448 m 1,0,-1
 109 448 l 1,1,-1
 109 523 l 1,2,-1
 134 523 l 1,3,-1
 134 573 l 1,4,-1
 159 573 l 1,5,-1
 159 648 l 1,6,-1
 184 648 l 1,7,-1
 184 673 l 1,8,-1
 209 673 l 1,9,-1
 209 698 l 1,10,-1
 234 698 l 1,11,-1
 234 723 l 1,12,-1
 259 723 l 1,13,-1
 259 748 l 1,14,-1
 359 748 l 1,15,-1
 359 723 l 1,16,-1
 384 723 l 1,17,-1
 384 648 l 1,18,-1
 334 648 l 1,19,-1
 334 623 l 1,20,-1
 309 623 l 1,21,-1
 309 573 l 1,22,-1
 284 573 l 1,23,-1
 284 548 l 1,24,-1
 259 548 l 1,25,-1
 259 473 l 1,26,-1
 234 473 l 1,27,-1
 234 398 l 1,28,-1
 209 398 l 1,29,-1
 209 123 l 1,30,-1
 234 123 l 1,31,-1
 234 73 l 1,32,-1
 259 73 l 1,33,-1
 259 -27 l 1,34,-1
 309 -27 l 1,35,-1
 309 -52 l 1,36,-1
 334 -52 l 1,37,-1
 334 -77 l 1,38,-1
 359 -77 l 1,39,-1
 359 -102 l 1,40,-1
 384 -102 l 1,41,-1
 384 -152 l 1,42,-1
 359 -152 l 1,43,-1
 359 -177 l 1,44,-1
 284 -177 l 1,45,-1
 284 -152 l 1,46,-1
 234 -152 l 1,47,-1
 234 -127 l 1,48,-1
 209 -127 l 1,49,-1
 209 -102 l 1,50,-1
 184 -102 l 1,51,-1
 184 -77 l 1,52,-1
 159 -77 l 1,53,-1
 159 -52 l 1,54,-1
 134 -52 l 1,55,-1
 134 -2 l 1,56,-1
 109 -2 l 1,57,-1
 109 48 l 1,58,-1
 84 48 l 1,59,-1
 84 448 l 1,0,-1
EndSplineSet
Validated: 1
EndChar

StartChar: parenright
Encoding: 41 41 64
Width: 383
GlyphClass: 2
Flags: W
LayerCount: 2
Fore
SplineSet
324 123 m 1,0,-1
 299 123 l 1,1,-1
 299 48 l 1,2,-1
 274 48 l 1,3,-1
 274 -2 l 1,4,-1
 249 -2 l 1,5,-1
 249 -77 l 1,6,-1
 224 -77 l 1,7,-1
 224 -102 l 1,8,-1
 199 -102 l 1,9,-1
 199 -127 l 1,10,-1
 174 -127 l 1,11,-1
 174 -152 l 1,12,-1
 149 -152 l 1,13,-1
 149 -177 l 1,14,-1
 49 -177 l 1,15,-1
 49 -152 l 1,16,-1
 24 -152 l 1,17,-1
 24 -77 l 1,18,-1
 74 -77 l 1,19,-1
 74 -52 l 1,20,-1
 99 -52 l 1,21,-1
 99 -2 l 1,22,-1
 124 -2 l 1,23,-1
 124 23 l 1,24,-1
 149 23 l 1,25,-1
 149 98 l 1,26,-1
 174 98 l 1,27,-1
 174 173 l 1,28,-1
 199 173 l 1,29,-1
 199 448 l 1,30,-1
 174 448 l 1,31,-1
 174 498 l 1,32,-1
 149 498 l 1,33,-1
 149 598 l 1,34,-1
 99 598 l 1,35,-1
 99 623 l 1,36,-1
 74 623 l 1,37,-1
 74 648 l 1,38,-1
 49 648 l 1,39,-1
 49 673 l 1,40,-1
 24 673 l 1,41,-1
 24 723 l 1,42,-1
 49 723 l 1,43,-1
 49 748 l 1,44,-1
 124 748 l 1,45,-1
 124 723 l 1,46,-1
 174 723 l 1,47,-1
 174 698 l 1,48,-1
 199 698 l 1,49,-1
 199 673 l 1,50,-1
 224 673 l 1,51,-1
 224 648 l 1,52,-1
 249 648 l 1,53,-1
 249 623 l 1,54,-1
 274 623 l 1,55,-1
 274 573 l 1,56,-1
 299 573 l 1,57,-1
 299 523 l 1,58,-1
 324 523 l 1,59,-1
 324 123 l 1,0,-1
EndSplineSet
Validated: 1
EndChar

StartChar: braceleft
Encoding: 123 123 65
Width: 337
GlyphClass: 2
Flags: W
LayerCount: 2
Fore
SplineSet
65 273 m 1,0,-1
 90 273 l 1,1,-1
 90 298 l 1,2,-1
 115 298 l 1,3,-1
 115 323 l 1,4,-1
 140 323 l 1,5,-1
 140 673 l 1,6,-1
 165 673 l 1,7,-1
 165 698 l 1,8,-1
 190 698 l 1,9,-1
 190 723 l 1,10,-1
 215 723 l 1,11,-1
 215 748 l 1,12,-1
 290 748 l 1,13,-1
 290 723 l 1,14,-1
 315 723 l 1,15,-1
 315 698 l 1,16,-1
 290 698 l 1,17,-1
 290 673 l 1,18,-1
 265 673 l 1,19,-1
 265 323 l 1,20,-1
 240 323 l 1,21,-1
 240 298 l 1,22,-1
 215 298 l 1,23,-1
 215 223 l 1,24,-1
 240 223 l 1,25,-1
 240 198 l 1,26,-1
 265 198 l 1,27,-1
 265 -102 l 1,28,-1
 290 -102 l 1,29,-1
 290 -127 l 1,30,-1
 315 -127 l 1,31,-1
 315 -152 l 1,32,-1
 290 -152 l 1,33,-1
 290 -177 l 1,34,-1
 190 -177 l 1,35,-1
 190 -152 l 1,36,-1
 165 -152 l 1,37,-1
 165 -127 l 1,38,-1
 140 -127 l 1,39,-1
 140 198 l 1,40,-1
 115 198 l 1,41,-1
 115 223 l 1,42,-1
 90 223 l 1,43,-1
 90 248 l 1,44,-1
 65 248 l 1,45,-1
 65 273 l 1,0,-1
EndSplineSet
Validated: 1
EndChar

StartChar: braceright
Encoding: 125 125 66
Width: 325
GlyphClass: 2
Flags: W
LayerCount: 2
Fore
SplineSet
282 298 m 1,0,-1
 257 298 l 1,1,-1
 257 273 l 1,2,-1
 232 273 l 1,3,-1
 232 248 l 1,4,-1
 207 248 l 1,5,-1
 207 -102 l 1,6,-1
 182 -102 l 1,7,-1
 182 -127 l 1,8,-1
 157 -127 l 1,9,-1
 157 -152 l 1,10,-1
 132 -152 l 1,11,-1
 132 -177 l 1,12,-1
 57 -177 l 1,13,-1
 57 -152 l 1,14,-1
 32 -152 l 1,15,-1
 32 -127 l 1,16,-1
 57 -127 l 1,17,-1
 57 -102 l 1,18,-1
 82 -102 l 1,19,-1
 82 248 l 1,20,-1
 107 248 l 1,21,-1
 107 273 l 1,22,-1
 132 273 l 1,23,-1
 132 348 l 1,24,-1
 107 348 l 1,25,-1
 107 373 l 1,26,-1
 82 373 l 1,27,-1
 82 673 l 1,28,-1
 57 673 l 1,29,-1
 57 698 l 1,30,-1
 32 698 l 1,31,-1
 32 723 l 1,32,-1
 57 723 l 1,33,-1
 57 748 l 1,34,-1
 157 748 l 1,35,-1
 157 723 l 1,36,-1
 182 723 l 1,37,-1
 182 698 l 1,38,-1
 207 698 l 1,39,-1
 207 373 l 1,40,-1
 232 373 l 1,41,-1
 232 348 l 1,42,-1
 257 348 l 1,43,-1
 257 323 l 1,44,-1
 282 323 l 1,45,-1
 282 298 l 1,0,-1
EndSplineSet
Validated: 1
EndChar

StartChar: bar
Encoding: 124 124 67
Width: 334
GlyphClass: 2
Flags: W
LayerCount: 2
Fore
SplineSet
143 723 m 1,0,-1
 193 723 l 1,1,-1
 193 698 l 1,2,-1
 218 698 l 1,3,-1
 218 -77 l 1,4,-1
 193 -77 l 1,5,-1
 193 -102 l 1,6,-1
 143 -102 l 1,7,-1
 143 -77 l 1,8,-1
 118 -77 l 1,9,-1
 118 698 l 1,10,-1
 143 698 l 1,11,-1
 143 723 l 1,0,-1
EndSplineSet
Validated: 1
EndChar

StartChar: bracketleft
Encoding: 91 91 68
Width: 355
GlyphClass: 2
Flags: W
LayerCount: 2
Fore
SplineSet
110 673 m 1,0,-1
 135 673 l 1,1,-1
 135 698 l 1,2,-1
 160 698 l 1,3,-1
 160 723 l 1,4,-1
 185 723 l 1,5,-1
 185 748 l 1,6,-1
 310 748 l 1,7,-1
 310 723 l 1,8,-1
 335 723 l 1,9,-1
 335 698 l 1,10,-1
 310 698 l 1,11,-1
 310 673 l 1,12,-1
 235 673 l 1,13,-1
 235 -102 l 1,14,-1
 310 -102 l 1,15,-1
 310 -127 l 1,16,-1
 335 -127 l 1,17,-1
 335 -152 l 1,18,-1
 310 -152 l 1,19,-1
 310 -177 l 1,20,-1
 160 -177 l 1,21,-1
 160 -152 l 1,22,-1
 135 -152 l 1,23,-1
 135 -127 l 1,24,-1
 110 -127 l 1,25,-1
 110 673 l 1,0,-1
EndSplineSet
Validated: 1
EndChar

StartChar: bracketright
Encoding: 93 93 69
Width: 347
GlyphClass: 2
Flags: W
LayerCount: 2
Fore
SplineSet
220 -127 m 1,0,-1
 220 -152 l 1,1,-1
 195 -152 l 1,2,-1
 195 -177 l 1,3,-1
 45 -177 l 1,4,-1
 45 -152 l 1,5,-1
 20 -152 l 1,6,-1
 20 -127 l 1,7,-1
 45 -127 l 1,8,-1
 45 -102 l 1,9,-1
 120 -102 l 1,10,-1
 120 673 l 1,11,-1
 45 673 l 1,12,-1
 45 698 l 1,13,-1
 20 698 l 1,14,-1
 20 723 l 1,15,-1
 45 723 l 1,16,-1
 45 748 l 1,17,-1
 170 748 l 1,18,-1
 170 723 l 1,19,-1
 195 723 l 1,20,-1
 195 698 l 1,21,-1
 220 698 l 1,22,-1
 220 673 l 1,23,-1
 245 673 l 1,24,-1
 245 -127 l 1,25,-1
 220 -127 l 1,0,-1
EndSplineSet
Validated: 1
EndChar

StartChar: backslash
Encoding: 92 92 70
Width: 420
GlyphClass: 2
Flags: W
LayerCount: 2
Fore
SplineSet
398 23 m 1,0,-1
 398 -77 l 1,1,-1
 298 -77 l 1,2,-1
 298 -27 l 1,3,-1
 273 -27 l 1,4,-1
 273 23 l 1,5,-1
 248 23 l 1,6,-1
 248 98 l 1,7,-1
 223 98 l 1,8,-1
 223 173 l 1,9,-1
 198 173 l 1,10,-1
 198 248 l 1,11,-1
 173 248 l 1,12,-1
 173 323 l 1,13,-1
 148 323 l 1,14,-1
 148 398 l 1,15,-1
 123 398 l 1,16,-1
 123 473 l 1,17,-1
 98 473 l 1,18,-1
 98 548 l 1,19,-1
 73 548 l 1,20,-1
 73 598 l 1,21,-1
 48 598 l 1,22,-1
 48 648 l 1,23,-1
 73 648 l 1,24,-1
 73 673 l 1,25,-1
 148 673 l 1,26,-1
 148 648 l 1,27,-1
 173 648 l 1,28,-1
 173 598 l 1,29,-1
 198 598 l 1,30,-1
 198 548 l 1,31,-1
 223 548 l 1,32,-1
 223 448 l 1,33,-1
 248 448 l 1,34,-1
 248 398 l 1,35,-1
 273 398 l 1,36,-1
 273 348 l 1,37,-1
 298 348 l 1,38,-1
 298 248 l 1,39,-1
 323 248 l 1,40,-1
 323 173 l 1,41,-1
 348 173 l 1,42,-1
 348 123 l 1,43,-1
 373 123 l 1,44,-1
 373 23 l 1,45,-1
 398 23 l 1,0,-1
EndSplineSet
Validated: 1
EndChar

StartChar: quoteleft
Encoding: 8216 8216 71
Width: 180
GlyphClass: 2
Flags: W
LayerCount: 2
Fore
SplineSet
155 548 m 1,0,-1
 130 548 l 1,1,-1
 130 523 l 1,2,-1
 55 523 l 1,3,-1
 55 548 l 1,4,-1
 30 548 l 1,5,-1
 30 648 l 1,6,-1
 55 648 l 1,7,-1
 55 673 l 1,8,-1
 80 673 l 1,9,-1
 80 698 l 1,10,-1
 105 698 l 1,11,-1
 105 723 l 1,12,-1
 130 723 l 1,13,-1
 130 698 l 1,14,-1
 155 698 l 1,15,-1
 155 673 l 1,16,-1
 130 673 l 1,17,-1
 130 648 l 1,18,-1
 105 648 l 1,19,-1
 105 623 l 1,20,-1
 130 623 l 1,21,-1
 130 598 l 1,22,-1
 155 598 l 1,23,-1
 155 548 l 1,0,-1
EndSplineSet
Validated: 1
EndChar

StartChar: quoteright
Encoding: 8217 8217 72
Width: 220
GlyphClass: 2
Flags: W
LayerCount: 2
Fore
SplineSet
30 698 m 1,0,-1
 55 698 l 1,1,-1
 55 723 l 1,2,-1
 130 723 l 1,3,-1
 130 698 l 1,4,-1
 155 698 l 1,5,-1
 155 598 l 1,6,-1
 130 598 l 1,7,-1
 130 573 l 1,8,-1
 105 573 l 1,9,-1
 105 548 l 1,10,-1
 80 548 l 1,11,-1
 80 523 l 1,12,-1
 55 523 l 1,13,-1
 55 548 l 1,14,-1
 30 548 l 1,15,-1
 30 573 l 1,16,-1
 55 573 l 1,17,-1
 55 598 l 1,18,-1
 80 598 l 1,19,-1
 80 623 l 1,20,-1
 55 623 l 1,21,-1
 55 648 l 1,22,-1
 30 648 l 1,23,-1
 30 698 l 1,0,-1
EndSplineSet
Validated: 1
EndChar

StartChar: quotedblleft
Encoding: 8220 8220 73
Width: 382
GlyphClass: 2
Flags: W
LayerCount: 2
Fore
SplineSet
155 548 m 1,0,-1
 130 548 l 1,1,-1
 130 523 l 1,2,-1
 55 523 l 1,3,-1
 55 548 l 1,4,-1
 30 548 l 1,5,-1
 30 648 l 1,6,-1
 55 648 l 1,7,-1
 55 673 l 1,8,-1
 80 673 l 1,9,-1
 80 698 l 1,10,-1
 105 698 l 1,11,-1
 105 723 l 1,12,-1
 130 723 l 1,13,-1
 130 698 l 1,14,-1
 155 698 l 1,15,-1
 155 673 l 1,16,-1
 130 673 l 1,17,-1
 130 648 l 1,18,-1
 105 648 l 1,19,-1
 105 623 l 1,20,-1
 130 623 l 1,21,-1
 130 598 l 1,22,-1
 155 598 l 1,23,-1
 155 548 l 1,0,-1
340 548 m 1,24,-1
 315 548 l 1,25,-1
 315 523 l 1,26,-1
 240 523 l 1,27,-1
 240 548 l 1,28,-1
 215 548 l 1,29,-1
 215 648 l 1,30,-1
 240 648 l 1,31,-1
 240 673 l 1,32,-1
 265 673 l 1,33,-1
 265 698 l 1,34,-1
 290 698 l 1,35,-1
 290 723 l 1,36,-1
 315 723 l 1,37,-1
 315 698 l 1,38,-1
 340 698 l 1,39,-1
 340 673 l 1,40,-1
 315 673 l 1,41,-1
 315 648 l 1,42,-1
 290 648 l 1,43,-1
 290 623 l 1,44,-1
 315 623 l 1,45,-1
 315 598 l 1,46,-1
 340 598 l 1,47,-1
 340 548 l 1,24,-1
EndSplineSet
Validated: 1
EndChar

StartChar: quotedblright
Encoding: 8221 8221 74
Width: 364
GlyphClass: 2
Flags: W
LayerCount: 2
Fore
SplineSet
30 698 m 1,0,-1
 55 698 l 1,1,-1
 55 723 l 1,2,-1
 130 723 l 1,3,-1
 130 698 l 1,4,-1
 155 698 l 1,5,-1
 155 598 l 1,6,-1
 130 598 l 1,7,-1
 130 573 l 1,8,-1
 105 573 l 1,9,-1
 105 548 l 1,10,-1
 80 548 l 1,11,-1
 80 523 l 1,12,-1
 55 523 l 1,13,-1
 55 548 l 1,14,-1
 30 548 l 1,15,-1
 30 573 l 1,16,-1
 55 573 l 1,17,-1
 55 598 l 1,18,-1
 80 598 l 1,19,-1
 80 623 l 1,20,-1
 55 623 l 1,21,-1
 55 648 l 1,22,-1
 30 648 l 1,23,-1
 30 698 l 1,0,-1
215 698 m 1,24,-1
 240 698 l 1,25,-1
 240 723 l 1,26,-1
 315 723 l 1,27,-1
 315 698 l 1,28,-1
 340 698 l 1,29,-1
 340 598 l 1,30,-1
 315 598 l 1,31,-1
 315 573 l 1,32,-1
 290 573 l 1,33,-1
 290 548 l 1,34,-1
 265 548 l 1,35,-1
 265 523 l 1,36,-1
 240 523 l 1,37,-1
 240 548 l 1,38,-1
 215 548 l 1,39,-1
 215 573 l 1,40,-1
 240 573 l 1,41,-1
 240 598 l 1,42,-1
 265 598 l 1,43,-1
 265 623 l 1,44,-1
 240 623 l 1,45,-1
 240 648 l 1,46,-1
 215 648 l 1,47,-1
 215 698 l 1,24,-1
EndSplineSet
Validated: 1
EndChar

StartChar: quotesinglbase
Encoding: 8218 8218 75
Width: 267
GlyphClass: 2
Flags: W
LayerCount: 2
Fore
SplineSet
60 123 m 1,0,-1
 85 123 l 1,1,-1
 85 148 l 1,2,-1
 160 148 l 1,3,-1
 160 123 l 1,4,-1
 185 123 l 1,5,-1
 185 23 l 1,6,-1
 160 23 l 1,7,-1
 160 -2 l 1,8,-1
 135 -2 l 1,9,-1
 135 -27 l 1,10,-1
 110 -27 l 1,11,-1
 110 -52 l 1,12,-1
 85 -52 l 1,13,-1
 85 -27 l 1,14,-1
 60 -27 l 1,15,-1
 60 -2 l 1,16,-1
 85 -2 l 1,17,-1
 85 23 l 1,18,-1
 110 23 l 1,19,-1
 110 48 l 1,20,-1
 85 48 l 1,21,-1
 85 73 l 1,22,-1
 60 73 l 1,23,-1
 60 123 l 1,0,-1
EndSplineSet
Validated: 1
EndChar

StartChar: quotedblbase
Encoding: 8222 8222 76
Width: 385
GlyphClass: 2
Flags: W
LayerCount: 2
Fore
SplineSet
235 123 m 1,0,-1
 260 123 l 1,1,-1
 260 148 l 1,2,-1
 335 148 l 1,3,-1
 335 123 l 1,4,-1
 360 123 l 1,5,-1
 360 23 l 1,6,-1
 335 23 l 1,7,-1
 335 -2 l 1,8,-1
 310 -2 l 1,9,-1
 310 -27 l 1,10,-1
 285 -27 l 1,11,-1
 285 -52 l 1,12,-1
 260 -52 l 1,13,-1
 260 -27 l 1,14,-1
 235 -27 l 1,15,-1
 235 -2 l 1,16,-1
 260 -2 l 1,17,-1
 260 23 l 1,18,-1
 285 23 l 1,19,-1
 285 48 l 1,20,-1
 260 48 l 1,21,-1
 260 73 l 1,22,-1
 235 73 l 1,23,-1
 235 123 l 1,0,-1
60 123 m 1,24,-1
 85 123 l 1,25,-1
 85 148 l 1,26,-1
 160 148 l 1,27,-1
 160 123 l 1,28,-1
 185 123 l 1,29,-1
 185 23 l 1,30,-1
 160 23 l 1,31,-1
 160 -2 l 1,32,-1
 135 -2 l 1,33,-1
 135 -27 l 1,34,-1
 110 -27 l 1,35,-1
 110 -52 l 1,36,-1
 85 -52 l 1,37,-1
 85 -27 l 1,38,-1
 60 -27 l 1,39,-1
 60 -2 l 1,40,-1
 85 -2 l 1,41,-1
 85 23 l 1,42,-1
 110 23 l 1,43,-1
 110 48 l 1,44,-1
 85 48 l 1,45,-1
 85 73 l 1,46,-1
 60 73 l 1,47,-1
 60 123 l 1,24,-1
EndSplineSet
Validated: 1
EndChar

StartChar: bullet
Encoding: 8226 8226 77
Width: 345
GlyphClass: 2
Flags: W
LayerCount: 2
Fore
SplineSet
95 273 m 1,0,-1
 70 273 l 1,1,-1
 70 398 l 1,2,-1
 95 398 l 1,3,-1
 95 423 l 1,4,-1
 120 423 l 1,5,-1
 120 448 l 1,6,-1
 220 448 l 1,7,-1
 220 423 l 1,8,-1
 245 423 l 1,9,-1
 245 398 l 1,10,-1
 270 398 l 1,11,-1
 270 273 l 1,12,-1
 245 273 l 1,13,-1
 245 248 l 1,14,-1
 220 248 l 1,15,-1
 220 223 l 1,16,-1
 120 223 l 1,17,-1
 120 248 l 1,18,-1
 95 248 l 1,19,-1
 95 273 l 1,0,-1
EndSplineSet
Validated: 1
EndChar

StartChar: underscore
Encoding: 95 95 78
Width: 595
GlyphClass: 2
Flags: W
LayerCount: 2
Fore
SplineSet
51 -27 m 1,0,-1
 526 -27 l 1,1,-1
 526 -52 l 1,2,-1
 551 -52 l 1,3,-1
 551 -102 l 1,4,-1
 526 -102 l 1,5,-1
 526 -127 l 1,6,-1
 51 -127 l 1,7,-1
 51 -102 l 1,8,-1
 26 -102 l 1,9,-1
 26 -52 l 1,10,-1
 51 -52 l 1,11,-1
 51 -27 l 1,0,-1
EndSplineSet
Validated: 1
EndChar

StartChar: endash
Encoding: 8211 8211 79
Width: 585
GlyphClass: 2
Flags: W
LayerCount: 2
Fore
SplineSet
73 273 m 1,0,-1
 98 273 l 1,1,-1
 98 298 l 1,2,-1
 498 298 l 1,3,-1
 498 273 l 1,4,-1
 523 273 l 1,5,-1
 523 223 l 1,6,-1
 498 223 l 1,7,-1
 498 198 l 1,8,-1
 98 198 l 1,9,-1
 98 223 l 1,10,-1
 73 223 l 1,11,-1
 73 273 l 1,0,-1
EndSplineSet
Validated: 1
EndChar

StartChar: emdash
Encoding: 8212 8212 80
Width: 813
GlyphClass: 2
Flags: W
LayerCount: 2
Fore
SplineSet
73 273 m 1,0,-1
 98 273 l 1,1,-1
 98 298 l 1,2,-1
 723 298 l 1,3,-1
 723 273 l 1,4,-1
 748 273 l 1,5,-1
 748 223 l 1,6,-1
 723 223 l 1,7,-1
 723 198 l 1,8,-1
 98 198 l 1,9,-1
 98 223 l 1,10,-1
 73 223 l 1,11,-1
 73 273 l 1,0,-1
EndSplineSet
Validated: 1
EndChar

StartChar: macron
Encoding: 175 175 81
Width: 490
GlyphClass: 2
Flags: W
LayerCount: 2
Fore
SplineSet
101 548 m 1,0,-1
 126 548 l 1,1,-1
 126 573 l 1,2,-1
 401 573 l 1,3,-1
 401 548 l 1,4,-1
 426 548 l 1,5,-1
 426 523 l 1,6,-1
 401 523 l 1,7,-1
 401 498 l 1,8,-1
 126 498 l 1,9,-1
 126 523 l 1,10,-1
 101 523 l 1,11,-1
 101 548 l 1,0,-1
EndSplineSet
Validated: 1
EndChar

StartChar: logicalnot
Encoding: 172 172 82
Width: 725
GlyphClass: 2
Flags: W
LayerCount: 2
Fore
SplineSet
531 348 m 1,0,-1
 131 348 l 1,1,-1
 131 373 l 1,2,-1
 106 373 l 1,3,-1
 106 423 l 1,4,-1
 131 423 l 1,5,-1
 131 448 l 1,6,-1
 606 448 l 1,7,-1
 606 423 l 1,8,-1
 631 423 l 1,9,-1
 631 248 l 1,10,-1
 606 248 l 1,11,-1
 606 223 l 1,12,-1
 556 223 l 1,13,-1
 556 248 l 1,14,-1
 531 248 l 1,15,-1
 531 348 l 1,0,-1
EndSplineSet
Validated: 1
EndChar

StartChar: trademark
Encoding: 8482 8482 83
Width: 539
GlyphClass: 2
Flags: W
LayerCount: 2
Fore
SplineSet
46 673 m 1,0,-1
 271 673 l 1,1,-1
 271 648 l 1,2,-1
 296 648 l 1,3,-1
 296 623 l 1,4,-1
 321 623 l 1,5,-1
 321 573 l 1,6,-1
 346 573 l 1,7,-1
 346 623 l 1,8,-1
 371 623 l 1,9,-1
 371 648 l 1,10,-1
 396 648 l 1,11,-1
 396 673 l 1,12,-1
 446 673 l 1,13,-1
 446 648 l 1,14,-1
 471 648 l 1,15,-1
 471 423 l 1,16,-1
 446 423 l 1,17,-1
 446 398 l 1,18,-1
 421 398 l 1,19,-1
 421 423 l 1,20,-1
 396 423 l 1,21,-1
 396 498 l 1,22,-1
 371 498 l 1,23,-1
 371 448 l 1,24,-1
 346 448 l 1,25,-1
 346 423 l 1,26,-1
 321 423 l 1,27,-1
 321 448 l 1,28,-1
 296 448 l 1,29,-1
 296 498 l 1,30,-1
 271 498 l 1,31,-1
 271 423 l 1,32,-1
 246 423 l 1,33,-1
 246 398 l 1,34,-1
 221 398 l 1,35,-1
 221 423 l 1,36,-1
 196 423 l 1,37,-1
 196 598 l 1,38,-1
 171 598 l 1,39,-1
 171 423 l 1,40,-1
 146 423 l 1,41,-1
 146 398 l 1,42,-1
 121 398 l 1,43,-1
 121 423 l 1,44,-1
 96 423 l 1,45,-1
 96 598 l 1,46,-1
 46 598 l 1,47,-1
 46 623 l 1,48,-1
 21 623 l 1,49,-1
 21 648 l 1,50,-1
 46 648 l 1,51,-1
 46 673 l 1,0,-1
EndSplineSet
Validated: 1
EndChar

StartChar: registered
Encoding: 174 174 84
Width: 889
GlyphClass: 2
Flags: W
LayerCount: 2
Fore
SplineSet
56 423 m 1,0,-1
 81 423 l 1,1,-1
 81 498 l 1,2,-1
 106 498 l 1,3,-1
 106 523 l 1,4,-1
 131 523 l 1,5,-1
 131 548 l 1,6,-1
 156 548 l 1,7,-1
 156 573 l 1,8,-1
 181 573 l 1,9,-1
 181 598 l 1,10,-1
 231 598 l 1,11,-1
 231 623 l 1,12,-1
 256 623 l 1,13,-1
 256 648 l 1,14,-1
 306 648 l 1,15,-1
 306 673 l 1,16,-1
 556 673 l 1,17,-1
 556 648 l 1,18,-1
 606 648 l 1,19,-1
 606 623 l 1,20,-1
 631 623 l 1,21,-1
 631 598 l 1,22,-1
 681 598 l 1,23,-1
 681 573 l 1,24,-1
 731 573 l 1,25,-1
 731 548 l 1,26,-1
 756 548 l 1,27,-1
 756 523 l 1,28,-1
 781 523 l 1,29,-1
 781 498 l 1,30,-1
 806 498 l 1,31,-1
 806 423 l 1,32,-1
 831 423 l 1,33,-1
 831 223 l 1,34,-1
 806 223 l 1,35,-1
 806 173 l 1,36,-1
 781 173 l 1,37,-1
 781 123 l 1,38,-1
 756 123 l 1,39,-1
 756 73 l 1,40,-1
 731 73 l 1,41,-1
 731 48 l 1,42,-1
 706 48 l 1,43,-1
 706 23 l 1,44,-1
 681 23 l 1,45,-1
 681 -2 l 1,46,-1
 656 -2 l 1,47,-1
 656 -27 l 1,48,-1
 606 -27 l 1,49,-1
 606 -52 l 1,50,-1
 306 -52 l 1,51,-1
 306 -27 l 1,52,-1
 231 -27 l 1,53,-1
 231 -2 l 1,54,-1
 181 -2 l 1,55,-1
 181 23 l 1,56,-1
 156 23 l 1,57,-1
 156 48 l 1,58,-1
 131 48 l 1,59,-1
 131 73 l 1,60,-1
 106 73 l 1,61,-1
 106 98 l 1,62,-1
 81 98 l 1,63,-1
 81 173 l 1,64,-1
 56 173 l 1,65,-1
 56 423 l 1,0,-1
631 148 m 1,66,-1
 656 148 l 1,67,-1
 656 173 l 1,68,-1
 681 173 l 1,69,-1
 681 223 l 1,70,-1
 706 223 l 1,71,-1
 706 398 l 1,72,-1
 681 398 l 1,73,-1
 681 448 l 1,74,-1
 656 448 l 1,75,-1
 656 498 l 1,76,-1
 606 498 l 1,77,-1
 606 523 l 1,78,-1
 581 523 l 1,79,-1
 581 548 l 1,80,-1
 556 548 l 1,81,-1
 556 573 l 1,82,-1
 306 573 l 1,83,-1
 306 548 l 1,84,-1
 281 548 l 1,85,-1
 281 523 l 1,86,-1
 256 523 l 1,87,-1
 256 498 l 1,88,-1
 231 498 l 1,89,-1
 231 473 l 1,90,-1
 206 473 l 1,91,-1
 206 423 l 1,92,-1
 181 423 l 1,93,-1
 181 348 l 1,94,-1
 156 348 l 1,95,-1
 156 248 l 1,96,-1
 181 248 l 1,97,-1
 181 198 l 1,98,-1
 206 198 l 1,99,-1
 206 148 l 1,100,-1
 231 148 l 1,101,-1
 231 98 l 1,102,-1
 256 98 l 1,103,-1
 256 73 l 1,104,-1
 281 73 l 1,105,-1
 281 48 l 1,106,-1
 331 48 l 1,107,-1
 331 23 l 1,108,-1
 556 23 l 1,109,-1
 556 48 l 1,110,-1
 581 48 l 1,111,-1
 581 73 l 1,112,-1
 606 73 l 1,113,-1
 606 98 l 1,114,-1
 631 98 l 1,115,-1
 631 148 l 1,66,-1
306 523 m 1,116,-1
 331 523 l 1,117,-1
 331 548 l 1,118,-1
 506 548 l 1,119,-1
 506 523 l 1,120,-1
 531 523 l 1,121,-1
 531 498 l 1,122,-1
 581 498 l 1,123,-1
 581 473 l 1,124,-1
 606 473 l 1,125,-1
 606 348 l 1,126,-1
 581 348 l 1,127,-1
 581 298 l 1,128,-1
 556 298 l 1,129,-1
 556 273 l 1,130,-1
 531 273 l 1,131,-1
 531 248 l 1,132,-1
 506 248 l 1,133,-1
 506 223 l 1,134,-1
 531 223 l 1,135,-1
 531 198 l 1,136,-1
 556 198 l 1,137,-1
 556 173 l 1,138,-1
 581 173 l 1,139,-1
 581 148 l 1,140,-1
 606 148 l 1,141,-1
 606 123 l 1,142,-1
 581 123 l 1,143,-1
 581 98 l 1,144,-1
 556 98 l 1,145,-1
 556 73 l 1,146,-1
 481 73 l 1,147,-1
 481 98 l 1,148,-1
 456 98 l 1,149,-1
 456 148 l 1,150,-1
 431 148 l 1,151,-1
 431 173 l 1,152,-1
 406 173 l 1,153,-1
 406 98 l 1,154,-1
 381 98 l 1,155,-1
 381 73 l 1,156,-1
 331 73 l 1,157,-1
 331 98 l 1,158,-1
 306 98 l 1,159,-1
 306 523 l 1,116,-1
406 323 m 1,160,-1
 456 323 l 1,161,-1
 456 348 l 1,162,-1
 481 348 l 1,163,-1
 481 423 l 1,164,-1
 456 423 l 1,165,-1
 456 448 l 1,166,-1
 406 448 l 1,167,-1
 406 323 l 1,160,-1
EndSplineSet
Validated: 1
EndChar

StartChar: copyright
Encoding: 169 169 85
Width: 884
GlyphClass: 2
Flags: W
LayerCount: 2
Fore
SplineSet
56 423 m 1,0,-1
 81 423 l 1,1,-1
 81 498 l 1,2,-1
 106 498 l 1,3,-1
 106 523 l 1,4,-1
 131 523 l 1,5,-1
 131 548 l 1,6,-1
 156 548 l 1,7,-1
 156 573 l 1,8,-1
 181 573 l 1,9,-1
 181 598 l 1,10,-1
 231 598 l 1,11,-1
 231 623 l 1,12,-1
 256 623 l 1,13,-1
 256 648 l 1,14,-1
 306 648 l 1,15,-1
 306 673 l 1,16,-1
 556 673 l 1,17,-1
 556 648 l 1,18,-1
 606 648 l 1,19,-1
 606 623 l 1,20,-1
 631 623 l 1,21,-1
 631 598 l 1,22,-1
 681 598 l 1,23,-1
 681 573 l 1,24,-1
 731 573 l 1,25,-1
 731 548 l 1,26,-1
 756 548 l 1,27,-1
 756 523 l 1,28,-1
 781 523 l 1,29,-1
 781 498 l 1,30,-1
 806 498 l 1,31,-1
 806 423 l 1,32,-1
 831 423 l 1,33,-1
 831 223 l 1,34,-1
 806 223 l 1,35,-1
 806 173 l 1,36,-1
 781 173 l 1,37,-1
 781 123 l 1,38,-1
 756 123 l 1,39,-1
 756 73 l 1,40,-1
 731 73 l 1,41,-1
 731 48 l 1,42,-1
 706 48 l 1,43,-1
 706 23 l 1,44,-1
 681 23 l 1,45,-1
 681 -2 l 1,46,-1
 656 -2 l 1,47,-1
 656 -27 l 1,48,-1
 606 -27 l 1,49,-1
 606 -52 l 1,50,-1
 306 -52 l 1,51,-1
 306 -27 l 1,52,-1
 231 -27 l 1,53,-1
 231 -2 l 1,54,-1
 181 -2 l 1,55,-1
 181 23 l 1,56,-1
 156 23 l 1,57,-1
 156 48 l 1,58,-1
 131 48 l 1,59,-1
 131 73 l 1,60,-1
 106 73 l 1,61,-1
 106 98 l 1,62,-1
 81 98 l 1,63,-1
 81 173 l 1,64,-1
 56 173 l 1,65,-1
 56 423 l 1,0,-1
631 148 m 1,66,-1
 656 148 l 1,67,-1
 656 173 l 1,68,-1
 681 173 l 1,69,-1
 681 223 l 1,70,-1
 706 223 l 1,71,-1
 706 398 l 1,72,-1
 681 398 l 1,73,-1
 681 448 l 1,74,-1
 656 448 l 1,75,-1
 656 498 l 1,76,-1
 606 498 l 1,77,-1
 606 523 l 1,78,-1
 581 523 l 1,79,-1
 581 548 l 1,80,-1
 556 548 l 1,81,-1
 556 573 l 1,82,-1
 306 573 l 1,83,-1
 306 548 l 1,84,-1
 281 548 l 1,85,-1
 281 523 l 1,86,-1
 256 523 l 1,87,-1
 256 498 l 1,88,-1
 231 498 l 1,89,-1
 231 473 l 1,90,-1
 206 473 l 1,91,-1
 206 423 l 1,92,-1
 181 423 l 1,93,-1
 181 348 l 1,94,-1
 156 348 l 1,95,-1
 156 248 l 1,96,-1
 181 248 l 1,97,-1
 181 198 l 1,98,-1
 206 198 l 1,99,-1
 206 148 l 1,100,-1
 231 148 l 1,101,-1
 231 98 l 1,102,-1
 256 98 l 1,103,-1
 256 73 l 1,104,-1
 281 73 l 1,105,-1
 281 48 l 1,106,-1
 331 48 l 1,107,-1
 331 23 l 1,108,-1
 556 23 l 1,109,-1
 556 48 l 1,110,-1
 581 48 l 1,111,-1
 581 73 l 1,112,-1
 606 73 l 1,113,-1
 606 98 l 1,114,-1
 631 98 l 1,115,-1
 631 148 l 1,66,-1
281 148 m 1,116,-1
 281 173 l 1,117,-1
 256 173 l 1,118,-1
 256 423 l 1,119,-1
 281 423 l 1,120,-1
 281 473 l 1,121,-1
 306 473 l 1,122,-1
 306 523 l 1,123,-1
 331 523 l 1,124,-1
 331 548 l 1,125,-1
 506 548 l 1,126,-1
 506 523 l 1,127,-1
 531 523 l 1,128,-1
 531 498 l 1,129,-1
 556 498 l 1,130,-1
 556 473 l 1,131,-1
 581 473 l 1,132,-1
 581 348 l 1,133,-1
 556 348 l 1,134,-1
 556 323 l 1,135,-1
 481 323 l 1,136,-1
 481 423 l 1,137,-1
 456 423 l 1,138,-1
 456 448 l 1,139,-1
 406 448 l 1,140,-1
 406 398 l 1,141,-1
 381 398 l 1,142,-1
 381 173 l 1,143,-1
 406 173 l 1,144,-1
 406 148 l 1,145,-1
 481 148 l 1,146,-1
 481 173 l 1,147,-1
 506 173 l 1,148,-1
 506 198 l 1,149,-1
 556 198 l 1,150,-1
 556 173 l 1,151,-1
 581 173 l 1,152,-1
 581 123 l 1,153,-1
 556 123 l 1,154,-1
 556 98 l 1,155,-1
 531 98 l 1,156,-1
 531 73 l 1,157,-1
 481 73 l 1,158,-1
 481 48 l 1,159,-1
 381 48 l 1,160,-1
 381 73 l 1,161,-1
 331 73 l 1,162,-1
 331 98 l 1,163,-1
 306 98 l 1,164,-1
 306 148 l 1,165,-1
 281 148 l 1,116,-1
EndSplineSet
Validated: 1
EndChar

StartChar: currency
Encoding: 164 164 86
Width: 562
GlyphClass: 2
Flags: W
LayerCount: 2
Fore
SplineSet
81 373 m 1,0,-1
 106 373 l 1,1,-1
 106 448 l 1,2,-1
 81 448 l 1,3,-1
 81 498 l 1,4,-1
 106 498 l 1,5,-1
 106 523 l 1,6,-1
 156 523 l 1,7,-1
 156 498 l 1,8,-1
 181 498 l 1,9,-1
 181 473 l 1,10,-1
 206 473 l 1,11,-1
 206 498 l 1,12,-1
 331 498 l 1,13,-1
 331 473 l 1,14,-1
 356 473 l 1,15,-1
 356 498 l 1,16,-1
 381 498 l 1,17,-1
 381 523 l 1,18,-1
 431 523 l 1,19,-1
 431 498 l 1,20,-1
 456 498 l 1,21,-1
 456 448 l 1,22,-1
 431 448 l 1,23,-1
 431 373 l 1,24,-1
 456 373 l 1,25,-1
 456 198 l 1,26,-1
 431 198 l 1,27,-1
 431 148 l 1,28,-1
 456 148 l 1,29,-1
 456 98 l 1,30,-1
 431 98 l 1,31,-1
 431 73 l 1,32,-1
 381 73 l 1,33,-1
 381 98 l 1,34,-1
 356 98 l 1,35,-1
 356 123 l 1,36,-1
 331 123 l 1,37,-1
 331 98 l 1,38,-1
 206 98 l 1,39,-1
 206 123 l 1,40,-1
 181 123 l 1,41,-1
 181 98 l 1,42,-1
 156 98 l 1,43,-1
 156 73 l 1,44,-1
 106 73 l 1,45,-1
 106 98 l 1,46,-1
 81 98 l 1,47,-1
 81 148 l 1,48,-1
 106 148 l 1,49,-1
 106 198 l 1,50,-1
 81 198 l 1,51,-1
 81 373 l 1,0,-1
356 348 m 1,52,-1
 331 348 l 1,53,-1
 331 398 l 1,54,-1
 281 398 l 1,55,-1
 281 423 l 1,56,-1
 256 423 l 1,57,-1
 256 398 l 1,58,-1
 206 398 l 1,59,-1
 206 348 l 1,60,-1
 181 348 l 1,61,-1
 181 248 l 1,62,-1
 206 248 l 1,63,-1
 206 198 l 1,64,-1
 256 198 l 1,65,-1
 256 173 l 1,66,-1
 281 173 l 1,67,-1
 281 198 l 1,68,-1
 331 198 l 1,69,-1
 331 248 l 1,70,-1
 356 248 l 1,71,-1
 356 348 l 1,52,-1
EndSplineSet
Validated: 1
EndChar

StartChar: cent
Encoding: 162 162 87
Width: 445
GlyphClass: 2
Flags: W
LayerCount: 2
Fore
SplineSet
46 398 m 1,0,-1
 71 398 l 1,1,-1
 71 448 l 1,2,-1
 96 448 l 1,3,-1
 96 473 l 1,4,-1
 121 473 l 1,5,-1
 121 498 l 1,6,-1
 146 498 l 1,7,-1
 146 523 l 1,8,-1
 196 523 l 1,9,-1
 196 598 l 1,10,-1
 221 598 l 1,11,-1
 221 623 l 1,12,-1
 271 623 l 1,13,-1
 271 598 l 1,14,-1
 296 598 l 1,15,-1
 296 523 l 1,16,-1
 321 523 l 1,17,-1
 321 498 l 1,18,-1
 346 498 l 1,19,-1
 346 473 l 1,20,-1
 371 473 l 1,21,-1
 371 398 l 1,22,-1
 346 398 l 1,23,-1
 346 373 l 1,24,-1
 321 373 l 1,25,-1
 321 398 l 1,26,-1
 296 398 l 1,27,-1
 296 448 l 1,28,-1
 271 448 l 1,29,-1
 271 473 l 1,30,-1
 221 473 l 1,31,-1
 221 448 l 1,32,-1
 196 448 l 1,33,-1
 196 398 l 1,34,-1
 171 398 l 1,35,-1
 171 223 l 1,36,-1
 196 223 l 1,37,-1
 196 198 l 1,38,-1
 271 198 l 1,39,-1
 271 223 l 1,40,-1
 296 223 l 1,41,-1
 296 248 l 1,42,-1
 321 248 l 1,43,-1
 321 273 l 1,44,-1
 346 273 l 1,45,-1
 346 323 l 1,46,-1
 371 323 l 1,47,-1
 371 298 l 1,48,-1
 396 298 l 1,49,-1
 396 198 l 1,50,-1
 371 198 l 1,51,-1
 371 173 l 1,52,-1
 346 173 l 1,53,-1
 346 148 l 1,54,-1
 321 148 l 1,55,-1
 321 123 l 1,56,-1
 296 123 l 1,57,-1
 296 73 l 1,58,-1
 271 73 l 1,59,-1
 271 48 l 1,60,-1
 221 48 l 1,61,-1
 221 73 l 1,62,-1
 196 73 l 1,63,-1
 196 123 l 1,64,-1
 121 123 l 1,65,-1
 121 148 l 1,66,-1
 96 148 l 1,67,-1
 96 173 l 1,68,-1
 71 173 l 1,69,-1
 71 223 l 1,70,-1
 46 223 l 1,71,-1
 46 398 l 1,0,-1
EndSplineSet
Validated: 1
EndChar

StartChar: sterling
Encoding: 163 163 88
Width: 563
GlyphClass: 2
Flags: W
LayerCount: 2
Fore
SplineSet
83 273 m 1,0,-1
 58 273 l 1,1,-1
 58 323 l 1,2,-1
 83 323 l 1,3,-1
 83 348 l 1,4,-1
 133 348 l 1,5,-1
 133 573 l 1,6,-1
 158 573 l 1,7,-1
 158 623 l 1,8,-1
 183 623 l 1,9,-1
 183 648 l 1,10,-1
 233 648 l 1,11,-1
 233 673 l 1,12,-1
 408 673 l 1,13,-1
 408 648 l 1,14,-1
 433 648 l 1,15,-1
 433 623 l 1,16,-1
 458 623 l 1,17,-1
 458 598 l 1,18,-1
 483 598 l 1,19,-1
 483 498 l 1,20,-1
 458 498 l 1,21,-1
 458 473 l 1,22,-1
 383 473 l 1,23,-1
 383 548 l 1,24,-1
 358 548 l 1,25,-1
 358 573 l 1,26,-1
 333 573 l 1,27,-1
 333 598 l 1,28,-1
 308 598 l 1,29,-1
 308 573 l 1,30,-1
 283 573 l 1,31,-1
 283 548 l 1,32,-1
 258 548 l 1,33,-1
 258 348 l 1,34,-1
 333 348 l 1,35,-1
 333 323 l 1,36,-1
 358 323 l 1,37,-1
 358 273 l 1,38,-1
 333 273 l 1,39,-1
 333 248 l 1,40,-1
 258 248 l 1,41,-1
 258 148 l 1,42,-1
 233 148 l 1,43,-1
 233 98 l 1,44,-1
 208 98 l 1,45,-1
 208 73 l 1,46,-1
 433 73 l 1,47,-1
 433 48 l 1,48,-1
 458 48 l 1,49,-1
 458 -2 l 1,50,-1
 433 -2 l 1,51,-1
 433 -27 l 1,52,-1
 108 -27 l 1,53,-1
 108 -2 l 1,54,-1
 83 -2 l 1,55,-1
 83 123 l 1,56,-1
 108 123 l 1,57,-1
 108 173 l 1,58,-1
 133 173 l 1,59,-1
 133 248 l 1,60,-1
 83 248 l 1,61,-1
 83 273 l 1,0,-1
EndSplineSet
Validated: 1
EndChar

StartChar: yen
Encoding: 165 165 89
Width: 620
GlyphClass: 2
Flags: W
LayerCount: 2
Fore
SplineSet
237 273 m 1,0,-1
 112 273 l 1,1,-1
 112 298 l 1,2,-1
 87 298 l 1,3,-1
 87 348 l 1,4,-1
 112 348 l 1,5,-1
 112 373 l 1,6,-1
 187 373 l 1,7,-1
 187 423 l 1,8,-1
 162 423 l 1,9,-1
 162 473 l 1,10,-1
 137 473 l 1,11,-1
 137 498 l 1,12,-1
 112 498 l 1,13,-1
 112 523 l 1,14,-1
 87 523 l 1,15,-1
 87 573 l 1,16,-1
 62 573 l 1,17,-1
 62 648 l 1,18,-1
 87 648 l 1,19,-1
 87 673 l 1,20,-1
 187 673 l 1,21,-1
 187 623 l 1,22,-1
 212 623 l 1,23,-1
 212 573 l 1,24,-1
 237 573 l 1,25,-1
 237 523 l 1,26,-1
 262 523 l 1,27,-1
 262 473 l 1,28,-1
 287 473 l 1,29,-1
 287 448 l 1,30,-1
 312 448 l 1,31,-1
 312 473 l 1,32,-1
 337 473 l 1,33,-1
 337 523 l 1,34,-1
 362 523 l 1,35,-1
 362 573 l 1,36,-1
 387 573 l 1,37,-1
 387 623 l 1,38,-1
 412 623 l 1,39,-1
 412 673 l 1,40,-1
 512 673 l 1,41,-1
 512 648 l 1,42,-1
 537 648 l 1,43,-1
 537 573 l 1,44,-1
 512 573 l 1,45,-1
 512 523 l 1,46,-1
 487 523 l 1,47,-1
 487 498 l 1,48,-1
 462 498 l 1,49,-1
 462 473 l 1,50,-1
 437 473 l 1,51,-1
 437 448 l 1,52,-1
 412 448 l 1,53,-1
 412 423 l 1,54,-1
 387 423 l 1,55,-1
 387 373 l 1,56,-1
 462 373 l 1,57,-1
 462 348 l 1,58,-1
 487 348 l 1,59,-1
 487 298 l 1,60,-1
 462 298 l 1,61,-1
 462 273 l 1,62,-1
 362 273 l 1,63,-1
 362 223 l 1,64,-1
 462 223 l 1,65,-1
 462 198 l 1,66,-1
 487 198 l 1,67,-1
 487 148 l 1,68,-1
 462 148 l 1,69,-1
 462 123 l 1,70,-1
 362 123 l 1,71,-1
 362 -2 l 1,72,-1
 337 -2 l 1,73,-1
 337 -27 l 1,74,-1
 262 -27 l 1,75,-1
 262 -2 l 1,76,-1
 237 -2 l 1,77,-1
 237 123 l 1,78,-1
 112 123 l 1,79,-1
 112 148 l 1,80,-1
 87 148 l 1,81,-1
 87 198 l 1,82,-1
 112 198 l 1,83,-1
 112 223 l 1,84,-1
 237 223 l 1,85,-1
 237 273 l 1,0,-1
EndSplineSet
Validated: 1
EndChar

StartChar: florin
Encoding: 402 402 90
Width: 334
GlyphClass: 2
Flags: W
LayerCount: 2
Fore
SplineSet
66 398 m 1,0,-1
 16 398 l 1,1,-1
 16 423 l 1,2,-1
 -9 423 l 1,3,-1
 -9 448 l 1,4,-1
 16 448 l 1,5,-1
 16 473 l 1,6,-1
 66 473 l 1,7,-1
 66 573 l 1,8,-1
 91 573 l 1,9,-1
 91 623 l 1,10,-1
 116 623 l 1,11,-1
 116 648 l 1,12,-1
 141 648 l 1,13,-1
 141 673 l 1,14,-1
 341 673 l 1,15,-1
 341 648 l 1,16,-1
 366 648 l 1,17,-1
 366 623 l 1,18,-1
 391 623 l 1,19,-1
 391 523 l 1,20,-1
 316 523 l 1,21,-1
 316 548 l 1,22,-1
 291 548 l 1,23,-1
 291 598 l 1,24,-1
 241 598 l 1,25,-1
 241 573 l 1,26,-1
 216 573 l 1,27,-1
 216 523 l 1,28,-1
 191 523 l 1,29,-1
 191 473 l 1,30,-1
 266 473 l 1,31,-1
 266 448 l 1,32,-1
 291 448 l 1,33,-1
 291 423 l 1,34,-1
 266 423 l 1,35,-1
 266 398 l 1,36,-1
 191 398 l 1,37,-1
 191 -77 l 1,38,-1
 166 -77 l 1,39,-1
 166 -127 l 1,40,-1
 141 -127 l 1,41,-1
 141 -152 l 1,42,-1
 91 -152 l 1,43,-1
 91 -177 l 1,44,-1
 -84 -177 l 1,45,-1
 -84 -152 l 1,46,-1
 -109 -152 l 1,47,-1
 -109 -102 l 1,48,-1
 -134 -102 l 1,49,-1
 -134 -52 l 1,50,-1
 -109 -52 l 1,51,-1
 -109 -27 l 1,52,-1
 -84 -27 l 1,53,-1
 -84 -2 l 1,54,-1
 -59 -2 l 1,55,-1
 -59 -27 l 1,56,-1
 -34 -27 l 1,57,-1
 -34 -102 l 1,58,-1
 16 -102 l 1,59,-1
 16 -77 l 1,60,-1
 41 -77 l 1,61,-1
 41 -27 l 1,62,-1
 66 -27 l 1,63,-1
 66 398 l 1,0,-1
EndSplineSet
Validated: 1
EndChar

StartChar: minus
Encoding: 8722 8722 91
Width: 586
GlyphClass: 2
Flags: W
LayerCount: 2
Fore
SplineSet
133 273 m 1,0,-1
 108 273 l 1,1,-1
 108 348 l 1,2,-1
 133 348 l 1,3,-1
 133 373 l 1,4,-1
 458 373 l 1,5,-1
 458 348 l 1,6,-1
 483 348 l 1,7,-1
 483 273 l 1,8,-1
 458 273 l 1,9,-1
 458 248 l 1,10,-1
 133 248 l 1,11,-1
 133 273 l 1,0,-1
EndSplineSet
Validated: 1
EndChar

StartChar: multiply
Encoding: 215 215 92
Width: 543
GlyphClass: 2
Flags: W
LayerCount: 2
Fore
SplineSet
119 273 m 1,0,-1
 144 273 l 1,1,-1
 144 298 l 1,2,-1
 169 298 l 1,3,-1
 169 348 l 1,4,-1
 144 348 l 1,5,-1
 144 373 l 1,6,-1
 119 373 l 1,7,-1
 119 398 l 1,8,-1
 94 398 l 1,9,-1
 94 473 l 1,10,-1
 119 473 l 1,11,-1
 119 498 l 1,12,-1
 194 498 l 1,13,-1
 194 473 l 1,14,-1
 219 473 l 1,15,-1
 219 448 l 1,16,-1
 244 448 l 1,17,-1
 244 423 l 1,18,-1
 294 423 l 1,19,-1
 294 448 l 1,20,-1
 319 448 l 1,21,-1
 319 473 l 1,22,-1
 344 473 l 1,23,-1
 344 498 l 1,24,-1
 419 498 l 1,25,-1
 419 473 l 1,26,-1
 444 473 l 1,27,-1
 444 398 l 1,28,-1
 419 398 l 1,29,-1
 419 373 l 1,30,-1
 394 373 l 1,31,-1
 394 348 l 1,32,-1
 369 348 l 1,33,-1
 369 298 l 1,34,-1
 394 298 l 1,35,-1
 394 273 l 1,36,-1
 419 273 l 1,37,-1
 419 248 l 1,38,-1
 444 248 l 1,39,-1
 444 173 l 1,40,-1
 419 173 l 1,41,-1
 419 148 l 1,42,-1
 344 148 l 1,43,-1
 344 173 l 1,44,-1
 319 173 l 1,45,-1
 319 198 l 1,46,-1
 294 198 l 1,47,-1
 294 223 l 1,48,-1
 244 223 l 1,49,-1
 244 198 l 1,50,-1
 219 198 l 1,51,-1
 219 173 l 1,52,-1
 194 173 l 1,53,-1
 194 148 l 1,54,-1
 119 148 l 1,55,-1
 119 173 l 1,56,-1
 94 173 l 1,57,-1
 94 248 l 1,58,-1
 119 248 l 1,59,-1
 119 273 l 1,0,-1
EndSplineSet
Validated: 1
EndChar

StartChar: brokenbar
Encoding: 166 166 93
Width: 292
GlyphClass: 2
Flags: W
LayerCount: 2
Fore
SplineSet
95 698 m 1,0,-1
 120 698 l 1,1,-1
 120 723 l 1,2,-1
 170 723 l 1,3,-1
 170 698 l 1,4,-1
 195 698 l 1,5,-1
 195 398 l 1,6,-1
 170 398 l 1,7,-1
 170 373 l 1,8,-1
 120 373 l 1,9,-1
 120 398 l 1,10,-1
 95 398 l 1,11,-1
 95 698 l 1,0,-1
95 223 m 1,12,-1
 120 223 l 1,13,-1
 120 248 l 1,14,-1
 170 248 l 1,15,-1
 170 223 l 1,16,-1
 195 223 l 1,17,-1
 195 -77 l 1,18,-1
 170 -77 l 1,19,-1
 170 -102 l 1,20,-1
 120 -102 l 1,21,-1
 120 -77 l 1,22,-1
 95 -77 l 1,23,-1
 95 223 l 1,12,-1
EndSplineSet
Validated: 1
EndChar

StartChar: periodcentered
Encoding: 183 183 94
Width: 213
GlyphClass: 2
Flags: W
LayerCount: 2
Fore
SplineSet
69 399 m 1,0,-1
 144 399 l 1,1,-1
 144 374 l 1,2,-1
 169 374 l 1,3,-1
 169 299 l 1,4,-1
 144 299 l 1,5,-1
 144 274 l 1,6,-1
 69 274 l 1,7,-1
 69 299 l 1,8,-1
 44 299 l 1,9,-1
 44 374 l 1,10,-1
 69 374 l 1,11,-1
 69 399 l 1,0,-1
EndSplineSet
Validated: 1
EndChar

StartChar: degree
Encoding: 176 176 95
Width: 248
GlyphClass: 2
Flags: W
LayerCount: 2
Fore
SplineSet
22 673 m 1,0,-1
 47 673 l 1,1,-1
 47 723 l 1,2,-1
 97 723 l 1,3,-1
 97 748 l 1,4,-1
 147 748 l 1,5,-1
 147 723 l 1,6,-1
 197 723 l 1,7,-1
 197 673 l 1,8,-1
 222 673 l 1,9,-1
 222 598 l 1,10,-1
 197 598 l 1,11,-1
 197 548 l 1,12,-1
 147 548 l 1,13,-1
 147 523 l 1,14,-1
 97 523 l 1,15,-1
 97 548 l 1,16,-1
 47 548 l 1,17,-1
 47 598 l 1,18,-1
 22 598 l 1,19,-1
 22 673 l 1,0,-1
147 673 m 1,20,-1
 97 673 l 1,21,-1
 97 598 l 1,22,-1
 147 598 l 1,23,-1
 147 673 l 1,20,-1
EndSplineSet
Validated: 1
EndChar

StartChar: ordfeminine
Encoding: 170 170 96
Width: 397
GlyphClass: 2
Flags: W
LayerCount: 2
Fore
SplineSet
61 698 m 1,0,-1
 86 698 l 1,1,-1
 86 723 l 1,2,-1
 111 723 l 1,3,-1
 111 748 l 1,4,-1
 236 748 l 1,5,-1
 236 723 l 1,6,-1
 261 723 l 1,7,-1
 261 698 l 1,8,-1
 286 698 l 1,9,-1
 286 573 l 1,10,-1
 311 573 l 1,11,-1
 311 598 l 1,12,-1
 361 598 l 1,13,-1
 361 523 l 1,14,-1
 336 523 l 1,15,-1
 336 498 l 1,16,-1
 311 498 l 1,17,-1
 311 473 l 1,18,-1
 236 473 l 1,19,-1
 236 498 l 1,20,-1
 186 498 l 1,21,-1
 186 473 l 1,22,-1
 86 473 l 1,23,-1
 86 498 l 1,24,-1
 61 498 l 1,25,-1
 61 523 l 1,26,-1
 36 523 l 1,27,-1
 36 648 l 1,28,-1
 61 648 l 1,29,-1
 61 698 l 1,0,-1
211 698 m 1,30,-1
 161 698 l 1,31,-1
 161 673 l 1,32,-1
 136 673 l 1,33,-1
 136 573 l 1,34,-1
 186 573 l 1,35,-1
 186 648 l 1,36,-1
 211 648 l 1,37,-1
 211 698 l 1,30,-1
86 448 m 1,38,-1
 286 448 l 1,39,-1
 286 423 l 1,40,-1
 311 423 l 1,41,-1
 311 398 l 1,42,-1
 286 398 l 1,43,-1
 286 373 l 1,44,-1
 86 373 l 1,45,-1
 86 398 l 1,46,-1
 61 398 l 1,47,-1
 61 423 l 1,48,-1
 86 423 l 1,49,-1
 86 448 l 1,38,-1
EndSplineSet
Validated: 1
EndChar

StartChar: ordmasculine
Encoding: 186 186 97
Width: 333
GlyphClass: 2
Flags: W
LayerCount: 2
Fore
SplineSet
284 523 m 1,0,-1
 259 523 l 1,1,-1
 259 498 l 1,2,-1
 234 498 l 1,3,-1
 234 473 l 1,4,-1
 109 473 l 1,5,-1
 109 498 l 1,6,-1
 84 498 l 1,7,-1
 84 523 l 1,8,-1
 59 523 l 1,9,-1
 59 548 l 1,10,-1
 34 548 l 1,11,-1
 34 673 l 1,12,-1
 59 673 l 1,13,-1
 59 698 l 1,14,-1
 84 698 l 1,15,-1
 84 723 l 1,16,-1
 109 723 l 1,17,-1
 109 748 l 1,18,-1
 234 748 l 1,19,-1
 234 723 l 1,20,-1
 259 723 l 1,21,-1
 259 698 l 1,22,-1
 284 698 l 1,23,-1
 284 673 l 1,24,-1
 309 673 l 1,25,-1
 309 548 l 1,26,-1
 284 548 l 1,27,-1
 284 523 l 1,0,-1
184 573 m 1,28,-1
 209 573 l 1,29,-1
 209 598 l 1,30,-1
 234 598 l 1,31,-1
 234 623 l 1,32,-1
 209 623 l 1,33,-1
 209 648 l 1,34,-1
 184 648 l 1,35,-1
 184 673 l 1,36,-1
 159 673 l 1,37,-1
 159 648 l 1,38,-1
 134 648 l 1,39,-1
 134 623 l 1,40,-1
 109 623 l 1,41,-1
 109 598 l 1,42,-1
 134 598 l 1,43,-1
 134 573 l 1,44,-1
 159 573 l 1,45,-1
 159 548 l 1,46,-1
 184 548 l 1,47,-1
 184 573 l 1,28,-1
59 448 m 1,48,-1
 284 448 l 1,49,-1
 284 423 l 1,50,-1
 309 423 l 1,51,-1
 309 398 l 1,52,-1
 284 398 l 1,53,-1
 284 373 l 1,54,-1
 59 373 l 1,55,-1
 59 398 l 1,56,-1
 34 398 l 1,57,-1
 34 423 l 1,58,-1
 59 423 l 1,59,-1
 59 448 l 1,48,-1
EndSplineSet
Validated: 1
EndChar

StartChar: onesuperior
Encoding: 185 185 98
Width: 269
GlyphClass: 2
Flags: W
LayerCount: 2
Fore
SplineSet
85 598 m 1,0,-1
 35 598 l 1,1,-1
 35 673 l 1,2,-1
 60 673 l 1,3,-1
 60 698 l 1,4,-1
 85 698 l 1,5,-1
 85 723 l 1,6,-1
 210 723 l 1,7,-1
 210 348 l 1,8,-1
 185 348 l 1,9,-1
 185 323 l 1,10,-1
 135 323 l 1,11,-1
 135 348 l 1,12,-1
 110 348 l 1,13,-1
 110 623 l 1,14,-1
 85 623 l 1,15,-1
 85 598 l 1,0,-1
EndSplineSet
Validated: 1
EndChar

StartChar: twosuperior
Encoding: 178 178 99
Width: 353
GlyphClass: 2
Flags: W
LayerCount: 2
Fore
SplineSet
36 673 m 1,0,-1
 61 673 l 1,1,-1
 61 698 l 1,2,-1
 111 698 l 1,3,-1
 111 723 l 1,4,-1
 261 723 l 1,5,-1
 261 698 l 1,6,-1
 286 698 l 1,7,-1
 286 673 l 1,8,-1
 311 673 l 1,9,-1
 311 548 l 1,10,-1
 286 548 l 1,11,-1
 286 523 l 1,12,-1
 261 523 l 1,13,-1
 261 498 l 1,14,-1
 236 498 l 1,15,-1
 236 473 l 1,16,-1
 211 473 l 1,17,-1
 211 448 l 1,18,-1
 186 448 l 1,19,-1
 186 423 l 1,20,-1
 161 423 l 1,21,-1
 161 398 l 1,22,-1
 286 398 l 1,23,-1
 286 373 l 1,24,-1
 311 373 l 1,25,-1
 311 348 l 1,26,-1
 286 348 l 1,27,-1
 286 323 l 1,28,-1
 61 323 l 1,29,-1
 61 348 l 1,30,-1
 36 348 l 1,31,-1
 36 398 l 1,32,-1
 61 398 l 1,33,-1
 61 423 l 1,34,-1
 86 423 l 1,35,-1
 86 448 l 1,36,-1
 111 448 l 1,37,-1
 111 473 l 1,38,-1
 136 473 l 1,39,-1
 136 498 l 1,40,-1
 161 498 l 1,41,-1
 161 523 l 1,42,-1
 186 523 l 1,43,-1
 186 548 l 1,44,-1
 211 548 l 1,45,-1
 211 648 l 1,46,-1
 186 648 l 1,47,-1
 186 673 l 1,48,-1
 161 673 l 1,49,-1
 161 648 l 1,50,-1
 136 648 l 1,51,-1
 136 623 l 1,52,-1
 61 623 l 1,53,-1
 61 648 l 1,54,-1
 36 648 l 1,55,-1
 36 673 l 1,0,-1
EndSplineSet
Validated: 1
EndChar

StartChar: threesuperior
Encoding: 179 179 100
Width: 354
GlyphClass: 2
Flags: W
LayerCount: 2
Fore
SplineSet
21 673 m 1,0,-1
 46 673 l 1,1,-1
 46 698 l 1,2,-1
 71 698 l 1,3,-1
 71 723 l 1,4,-1
 271 723 l 1,5,-1
 271 698 l 1,6,-1
 296 698 l 1,7,-1
 296 648 l 1,8,-1
 321 648 l 1,9,-1
 321 598 l 1,10,-1
 296 598 l 1,11,-1
 296 573 l 1,12,-1
 271 573 l 1,13,-1
 271 548 l 1,14,-1
 246 548 l 1,15,-1
 246 498 l 1,16,-1
 296 498 l 1,17,-1
 296 473 l 1,18,-1
 321 473 l 1,19,-1
 321 373 l 1,20,-1
 296 373 l 1,21,-1
 296 348 l 1,22,-1
 246 348 l 1,23,-1
 246 323 l 1,24,-1
 71 323 l 1,25,-1
 71 348 l 1,26,-1
 46 348 l 1,27,-1
 46 373 l 1,28,-1
 21 373 l 1,29,-1
 21 423 l 1,30,-1
 46 423 l 1,31,-1
 46 448 l 1,32,-1
 71 448 l 1,33,-1
 71 423 l 1,34,-1
 96 423 l 1,35,-1
 96 398 l 1,36,-1
 121 398 l 1,37,-1
 121 373 l 1,38,-1
 171 373 l 1,39,-1
 171 398 l 1,40,-1
 196 398 l 1,41,-1
 196 473 l 1,42,-1
 171 473 l 1,43,-1
 171 498 l 1,44,-1
 121 498 l 1,45,-1
 121 548 l 1,46,-1
 171 548 l 1,47,-1
 171 573 l 1,48,-1
 196 573 l 1,49,-1
 196 648 l 1,50,-1
 171 648 l 1,51,-1
 171 673 l 1,52,-1
 146 673 l 1,53,-1
 146 648 l 1,54,-1
 121 648 l 1,55,-1
 121 623 l 1,56,-1
 96 623 l 1,57,-1
 96 598 l 1,58,-1
 46 598 l 1,59,-1
 46 623 l 1,60,-1
 21 623 l 1,61,-1
 21 673 l 1,0,-1
EndSplineSet
Validated: 1
EndChar

StartChar: perthousand
Encoding: 8240 8240 101
Width: 1314
GlyphClass: 2
Flags: W
LayerCount: 2
Fore
SplineSet
318 198 m 1,0,-1
 343 198 l 1,1,-1
 343 248 l 1,2,-1
 368 248 l 1,3,-1
 368 273 l 1,4,-1
 393 273 l 1,5,-1
 393 298 l 1,6,-1
 418 298 l 1,7,-1
 418 348 l 1,8,-1
 443 348 l 1,9,-1
 443 398 l 1,10,-1
 468 398 l 1,11,-1
 468 448 l 1,12,-1
 493 448 l 1,13,-1
 493 473 l 1,14,-1
 518 473 l 1,15,-1
 518 498 l 1,16,-1
 543 498 l 1,17,-1
 543 548 l 1,18,-1
 568 548 l 1,19,-1
 568 598 l 1,20,-1
 593 598 l 1,21,-1
 593 623 l 1,22,-1
 618 623 l 1,23,-1
 618 648 l 1,24,-1
 643 648 l 1,25,-1
 643 673 l 1,26,-1
 718 673 l 1,27,-1
 718 648 l 1,28,-1
 743 648 l 1,29,-1
 743 623 l 1,30,-1
 718 623 l 1,31,-1
 718 598 l 1,32,-1
 693 598 l 1,33,-1
 693 548 l 1,34,-1
 668 548 l 1,35,-1
 668 523 l 1,36,-1
 643 523 l 1,37,-1
 643 473 l 1,38,-1
 618 473 l 1,39,-1
 618 448 l 1,40,-1
 593 448 l 1,41,-1
 593 398 l 1,42,-1
 568 398 l 1,43,-1
 568 348 l 1,44,-1
 543 348 l 1,45,-1
 543 323 l 1,46,-1
 518 323 l 1,47,-1
 518 298 l 1,48,-1
 493 298 l 1,49,-1
 493 248 l 1,50,-1
 468 248 l 1,51,-1
 468 198 l 1,52,-1
 443 198 l 1,53,-1
 443 173 l 1,54,-1
 418 173 l 1,55,-1
 418 148 l 1,56,-1
 393 148 l 1,57,-1
 393 98 l 1,58,-1
 368 98 l 1,59,-1
 368 48 l 1,60,-1
 343 48 l 1,61,-1
 343 23 l 1,62,-1
 318 23 l 1,63,-1
 318 -2 l 1,64,-1
 293 -2 l 1,65,-1
 293 -27 l 1,66,-1
 218 -27 l 1,67,-1
 218 48 l 1,68,-1
 243 48 l 1,69,-1
 243 98 l 1,70,-1
 268 98 l 1,71,-1
 268 148 l 1,72,-1
 293 148 l 1,73,-1
 293 173 l 1,74,-1
 318 173 l 1,75,-1
 318 198 l 1,0,-1
143 673 m 1,76,-1
 318 673 l 1,77,-1
 318 648 l 1,78,-1
 343 648 l 1,79,-1
 343 623 l 1,80,-1
 368 623 l 1,81,-1
 368 573 l 1,82,-1
 393 573 l 1,83,-1
 393 373 l 1,84,-1
 368 373 l 1,85,-1
 368 323 l 1,86,-1
 318 323 l 1,87,-1
 318 298 l 1,88,-1
 268 298 l 1,89,-1
 268 273 l 1,90,-1
 143 273 l 1,91,-1
 143 298 l 1,92,-1
 93 298 l 1,93,-1
 93 323 l 1,94,-1
 68 323 l 1,95,-1
 68 373 l 1,96,-1
 43 373 l 1,97,-1
 43 573 l 1,98,-1
 68 573 l 1,99,-1
 68 623 l 1,100,-1
 93 623 l 1,101,-1
 93 648 l 1,102,-1
 143 648 l 1,103,-1
 143 673 l 1,76,-1
193 573 m 1,104,-1
 168 573 l 1,105,-1
 168 498 l 1,106,-1
 143 498 l 1,107,-1
 143 423 l 1,108,-1
 168 423 l 1,109,-1
 168 373 l 1,110,-1
 193 373 l 1,111,-1
 193 348 l 1,112,-1
 243 348 l 1,113,-1
 243 373 l 1,114,-1
 268 373 l 1,115,-1
 268 423 l 1,116,-1
 293 423 l 1,117,-1
 293 498 l 1,118,-1
 268 498 l 1,119,-1
 268 573 l 1,120,-1
 243 573 l 1,121,-1
 243 598 l 1,122,-1
 193 598 l 1,123,-1
 193 573 l 1,104,-1
543 298 m 1,124,-1
 568 298 l 1,125,-1
 568 323 l 1,126,-1
 593 323 l 1,127,-1
 593 348 l 1,128,-1
 643 348 l 1,129,-1
 643 373 l 1,130,-1
 768 373 l 1,131,-1
 768 348 l 1,132,-1
 818 348 l 1,133,-1
 818 298 l 1,134,-1
 843 298 l 1,135,-1
 843 248 l 1,136,-1
 868 248 l 1,137,-1
 868 98 l 1,138,-1
 843 98 l 1,139,-1
 843 23 l 1,140,-1
 818 23 l 1,141,-1
 818 -2 l 1,142,-1
 768 -2 l 1,143,-1
 768 -27 l 1,144,-1
 618 -27 l 1,145,-1
 618 -2 l 1,146,-1
 568 -2 l 1,147,-1
 568 23 l 1,148,-1
 543 23 l 1,149,-1
 543 73 l 1,150,-1
 518 73 l 1,151,-1
 518 248 l 1,152,-1
 543 248 l 1,153,-1
 543 298 l 1,124,-1
943 298 m 1,154,-1
 993 298 l 1,155,-1
 993 348 l 1,156,-1
 1043 348 l 1,157,-1
 1043 373 l 1,158,-1
 1168 373 l 1,159,-1
 1168 348 l 1,160,-1
 1218 348 l 1,161,-1
 1218 298 l 1,162,-1
 1243 298 l 1,163,-1
 1243 248 l 1,164,-1
 1268 248 l 1,165,-1
 1268 98 l 1,166,-1
 1243 98 l 1,167,-1
 1243 23 l 1,168,-1
 1218 23 l 1,169,-1
 1218 -2 l 1,170,-1
 1168 -2 l 1,171,-1
 1168 -27 l 1,172,-1
 1018 -27 l 1,173,-1
 1018 -2 l 1,174,-1
 968 -2 l 1,175,-1
 968 23 l 1,176,-1
 943 23 l 1,177,-1
 943 73 l 1,178,-1
 918 73 l 1,179,-1
 918 248 l 1,180,-1
 943 248 l 1,181,-1
 943 298 l 1,154,-1
618 123 m 1,182,-1
 643 123 l 1,183,-1
 643 48 l 1,184,-1
 668 48 l 1,185,-1
 668 23 l 1,186,-1
 718 23 l 1,187,-1
 718 48 l 1,188,-1
 743 48 l 1,189,-1
 743 123 l 1,190,-1
 768 123 l 1,191,-1
 768 198 l 1,192,-1
 743 198 l 1,193,-1
 743 273 l 1,194,-1
 718 273 l 1,195,-1
 718 298 l 1,196,-1
 668 298 l 1,197,-1
 668 273 l 1,198,-1
 643 273 l 1,199,-1
 643 198 l 1,200,-1
 618 198 l 1,201,-1
 618 123 l 1,182,-1
1018 123 m 1,202,-1
 1043 123 l 1,203,-1
 1043 48 l 1,204,-1
 1068 48 l 1,205,-1
 1068 23 l 1,206,-1
 1118 23 l 1,207,-1
 1118 48 l 1,208,-1
 1143 48 l 1,209,-1
 1143 123 l 1,210,-1
 1168 123 l 1,211,-1
 1168 198 l 1,212,-1
 1143 198 l 1,213,-1
 1143 273 l 1,214,-1
 1118 273 l 1,215,-1
 1118 298 l 1,216,-1
 1068 298 l 1,217,-1
 1068 273 l 1,218,-1
 1043 273 l 1,219,-1
 1043 198 l 1,220,-1
 1018 198 l 1,221,-1
 1018 123 l 1,202,-1
EndSplineSet
Validated: 1
EndChar

StartChar: fraction
Encoding: 8260 8260 102
Width: 452
GlyphClass: 2
Flags: W
LayerCount: 2
Fore
SplineSet
69 198 m 1,0,-1
 94 198 l 1,1,-1
 94 248 l 1,2,-1
 119 248 l 1,3,-1
 119 273 l 1,4,-1
 144 273 l 1,5,-1
 144 298 l 1,6,-1
 169 298 l 1,7,-1
 169 348 l 1,8,-1
 194 348 l 1,9,-1
 194 398 l 1,10,-1
 219 398 l 1,11,-1
 219 448 l 1,12,-1
 244 448 l 1,13,-1
 244 473 l 1,14,-1
 269 473 l 1,15,-1
 269 498 l 1,16,-1
 294 498 l 1,17,-1
 294 548 l 1,18,-1
 319 548 l 1,19,-1
 319 598 l 1,20,-1
 344 598 l 1,21,-1
 344 623 l 1,22,-1
 369 623 l 1,23,-1
 369 648 l 1,24,-1
 394 648 l 1,25,-1
 394 673 l 1,26,-1
 469 673 l 1,27,-1
 469 648 l 1,28,-1
 494 648 l 1,29,-1
 494 623 l 1,30,-1
 469 623 l 1,31,-1
 469 598 l 1,32,-1
 444 598 l 1,33,-1
 444 548 l 1,34,-1
 419 548 l 1,35,-1
 419 523 l 1,36,-1
 394 523 l 1,37,-1
 394 473 l 1,38,-1
 369 473 l 1,39,-1
 369 448 l 1,40,-1
 344 448 l 1,41,-1
 344 398 l 1,42,-1
 319 398 l 1,43,-1
 319 348 l 1,44,-1
 294 348 l 1,45,-1
 294 323 l 1,46,-1
 269 323 l 1,47,-1
 269 298 l 1,48,-1
 244 298 l 1,49,-1
 244 248 l 1,50,-1
 219 248 l 1,51,-1
 219 198 l 1,52,-1
 194 198 l 1,53,-1
 194 173 l 1,54,-1
 169 173 l 1,55,-1
 169 148 l 1,56,-1
 144 148 l 1,57,-1
 144 98 l 1,58,-1
 119 98 l 1,59,-1
 119 48 l 1,60,-1
 94 48 l 1,61,-1
 94 23 l 1,62,-1
 69 23 l 1,63,-1
 69 -2 l 1,64,-1
 44 -2 l 1,65,-1
 44 -27 l 1,66,-1
 -31 -27 l 1,67,-1
 -31 48 l 1,68,-1
 -6 48 l 1,69,-1
 -6 98 l 1,70,-1
 19 98 l 1,71,-1
 19 148 l 1,72,-1
 44 148 l 1,73,-1
 44 173 l 1,74,-1
 69 173 l 1,75,-1
 69 198 l 1,0,-1
EndSplineSet
Validated: 1
EndChar

StartChar: onehalf
Encoding: 189 189 103
Width: 828
GlyphClass: 2
Flags: W
LayerCount: 2
Fore
SplineSet
90 598 m 1,0,-1
 40 598 l 1,1,-1
 40 673 l 1,2,-1
 65 673 l 1,3,-1
 65 698 l 1,4,-1
 90 698 l 1,5,-1
 90 723 l 1,6,-1
 215 723 l 1,7,-1
 215 348 l 1,8,-1
 190 348 l 1,9,-1
 190 323 l 1,10,-1
 140 323 l 1,11,-1
 140 348 l 1,12,-1
 115 348 l 1,13,-1
 115 623 l 1,14,-1
 90 623 l 1,15,-1
 90 598 l 1,0,-1
190 198 m 1,16,-1
 215 198 l 1,17,-1
 215 248 l 1,18,-1
 240 248 l 1,19,-1
 240 273 l 1,20,-1
 265 273 l 1,21,-1
 265 298 l 1,22,-1
 290 298 l 1,23,-1
 290 348 l 1,24,-1
 315 348 l 1,25,-1
 315 398 l 1,26,-1
 340 398 l 1,27,-1
 340 448 l 1,28,-1
 365 448 l 1,29,-1
 365 473 l 1,30,-1
 390 473 l 1,31,-1
 390 498 l 1,32,-1
 415 498 l 1,33,-1
 415 548 l 1,34,-1
 440 548 l 1,35,-1
 440 598 l 1,36,-1
 465 598 l 1,37,-1
 465 623 l 1,38,-1
 490 623 l 1,39,-1
 490 648 l 1,40,-1
 515 648 l 1,41,-1
 515 673 l 1,42,-1
 590 673 l 1,43,-1
 590 648 l 1,44,-1
 615 648 l 1,45,-1
 615 623 l 1,46,-1
 590 623 l 1,47,-1
 590 598 l 1,48,-1
 565 598 l 1,49,-1
 565 548 l 1,50,-1
 540 548 l 1,51,-1
 540 523 l 1,52,-1
 515 523 l 1,53,-1
 515 473 l 1,54,-1
 490 473 l 1,55,-1
 490 448 l 1,56,-1
 465 448 l 1,57,-1
 465 398 l 1,58,-1
 440 398 l 1,59,-1
 440 348 l 1,60,-1
 415 348 l 1,61,-1
 415 323 l 1,62,-1
 390 323 l 1,63,-1
 390 298 l 1,64,-1
 365 298 l 1,65,-1
 365 248 l 1,66,-1
 340 248 l 1,67,-1
 340 198 l 1,68,-1
 315 198 l 1,69,-1
 315 173 l 1,70,-1
 290 173 l 1,71,-1
 290 148 l 1,72,-1
 265 148 l 1,73,-1
 265 98 l 1,74,-1
 240 98 l 1,75,-1
 240 48 l 1,76,-1
 215 48 l 1,77,-1
 215 23 l 1,78,-1
 190 23 l 1,79,-1
 190 -2 l 1,80,-1
 140 -2 l 1,81,-1
 140 -27 l 1,82,-1
 90 -27 l 1,83,-1
 90 48 l 1,84,-1
 115 48 l 1,85,-1
 115 98 l 1,86,-1
 140 98 l 1,87,-1
 140 148 l 1,88,-1
 165 148 l 1,89,-1
 165 173 l 1,90,-1
 190 173 l 1,91,-1
 190 198 l 1,16,-1
490 348 m 1,92,-1
 515 348 l 1,93,-1
 515 373 l 1,94,-1
 565 373 l 1,95,-1
 565 398 l 1,96,-1
 715 398 l 1,97,-1
 715 373 l 1,98,-1
 740 373 l 1,99,-1
 740 348 l 1,100,-1
 765 348 l 1,101,-1
 765 223 l 1,102,-1
 740 223 l 1,103,-1
 740 198 l 1,104,-1
 715 198 l 1,105,-1
 715 173 l 1,106,-1
 690 173 l 1,107,-1
 690 148 l 1,108,-1
 665 148 l 1,109,-1
 665 123 l 1,110,-1
 640 123 l 1,111,-1
 640 98 l 1,112,-1
 615 98 l 1,113,-1
 615 73 l 1,114,-1
 740 73 l 1,115,-1
 740 48 l 1,116,-1
 765 48 l 1,117,-1
 765 23 l 1,118,-1
 740 23 l 1,119,-1
 740 -2 l 1,120,-1
 515 -2 l 1,121,-1
 515 23 l 1,122,-1
 490 23 l 1,123,-1
 490 73 l 1,124,-1
 515 73 l 1,125,-1
 515 98 l 1,126,-1
 540 98 l 1,127,-1
 540 123 l 1,128,-1
 565 123 l 1,129,-1
 565 148 l 1,130,-1
 590 148 l 1,131,-1
 590 173 l 1,132,-1
 615 173 l 1,133,-1
 615 198 l 1,134,-1
 640 198 l 1,135,-1
 640 223 l 1,136,-1
 665 223 l 1,137,-1
 665 323 l 1,138,-1
 640 323 l 1,139,-1
 640 348 l 1,140,-1
 615 348 l 1,141,-1
 615 323 l 1,142,-1
 590 323 l 1,143,-1
 590 298 l 1,144,-1
 515 298 l 1,145,-1
 515 323 l 1,146,-1
 490 323 l 1,147,-1
 490 348 l 1,92,-1
EndSplineSet
Validated: 1
Ligature2: "'frac' Diagonal Fractions lookup 2 subtable" one fraction two
Ligature2: "'frac' Diagonal Fractions lookup 2 subtable" one slash two
EndChar

StartChar: onequarter
Encoding: 188 188 104
Width: 748
GlyphClass: 2
Flags: W
LayerCount: 2
Fore
SplineSet
90 598 m 1,0,-1
 40 598 l 1,1,-1
 40 673 l 1,2,-1
 65 673 l 1,3,-1
 65 698 l 1,4,-1
 90 698 l 1,5,-1
 90 723 l 1,6,-1
 215 723 l 1,7,-1
 215 348 l 1,8,-1
 190 348 l 1,9,-1
 190 323 l 1,10,-1
 140 323 l 1,11,-1
 140 348 l 1,12,-1
 115 348 l 1,13,-1
 115 623 l 1,14,-1
 90 623 l 1,15,-1
 90 598 l 1,0,-1
190 198 m 1,16,-1
 215 198 l 1,17,-1
 215 248 l 1,18,-1
 240 248 l 1,19,-1
 240 273 l 1,20,-1
 265 273 l 1,21,-1
 265 298 l 1,22,-1
 290 298 l 1,23,-1
 290 348 l 1,24,-1
 315 348 l 1,25,-1
 315 398 l 1,26,-1
 340 398 l 1,27,-1
 340 448 l 1,28,-1
 365 448 l 1,29,-1
 365 473 l 1,30,-1
 390 473 l 1,31,-1
 390 498 l 1,32,-1
 415 498 l 1,33,-1
 415 548 l 1,34,-1
 440 548 l 1,35,-1
 440 598 l 1,36,-1
 465 598 l 1,37,-1
 465 623 l 1,38,-1
 490 623 l 1,39,-1
 490 648 l 1,40,-1
 515 648 l 1,41,-1
 515 673 l 1,42,-1
 590 673 l 1,43,-1
 590 648 l 1,44,-1
 615 648 l 1,45,-1
 615 623 l 1,46,-1
 590 623 l 1,47,-1
 590 598 l 1,48,-1
 565 598 l 1,49,-1
 565 548 l 1,50,-1
 540 548 l 1,51,-1
 540 523 l 1,52,-1
 515 523 l 1,53,-1
 515 473 l 1,54,-1
 490 473 l 1,55,-1
 490 448 l 1,56,-1
 465 448 l 1,57,-1
 465 398 l 1,58,-1
 440 398 l 1,59,-1
 440 348 l 1,60,-1
 415 348 l 1,61,-1
 415 323 l 1,62,-1
 390 323 l 1,63,-1
 390 298 l 1,64,-1
 365 298 l 1,65,-1
 365 248 l 1,66,-1
 340 248 l 1,67,-1
 340 198 l 1,68,-1
 315 198 l 1,69,-1
 315 173 l 1,70,-1
 290 173 l 1,71,-1
 290 148 l 1,72,-1
 265 148 l 1,73,-1
 265 98 l 1,74,-1
 240 98 l 1,75,-1
 240 48 l 1,76,-1
 215 48 l 1,77,-1
 215 23 l 1,78,-1
 190 23 l 1,79,-1
 190 -2 l 1,80,-1
 165 -2 l 1,81,-1
 165 -27 l 1,82,-1
 90 -27 l 1,83,-1
 90 48 l 1,84,-1
 115 48 l 1,85,-1
 115 98 l 1,86,-1
 140 98 l 1,87,-1
 140 148 l 1,88,-1
 165 148 l 1,89,-1
 165 173 l 1,90,-1
 190 173 l 1,91,-1
 190 198 l 1,16,-1
515 348 m 1,92,-1
 540 348 l 1,93,-1
 540 373 l 1,94,-1
 565 373 l 1,95,-1
 565 398 l 1,96,-1
 665 398 l 1,97,-1
 665 173 l 1,98,-1
 690 173 l 1,99,-1
 690 148 l 1,100,-1
 715 148 l 1,101,-1
 715 123 l 1,102,-1
 690 123 l 1,103,-1
 690 98 l 1,104,-1
 665 98 l 1,105,-1
 665 23 l 1,106,-1
 640 23 l 1,107,-1
 640 -2 l 1,108,-1
 590 -2 l 1,109,-1
 590 23 l 1,110,-1
 565 23 l 1,111,-1
 565 98 l 1,112,-1
 415 98 l 1,113,-1
 415 173 l 1,114,-1
 440 173 l 1,115,-1
 440 223 l 1,116,-1
 465 223 l 1,117,-1
 465 248 l 1,118,-1
 490 248 l 1,119,-1
 490 298 l 1,120,-1
 515 298 l 1,121,-1
 515 348 l 1,92,-1
540 273 m 1,122,-1
 540 248 l 1,123,-1
 515 248 l 1,124,-1
 515 198 l 1,125,-1
 490 198 l 1,126,-1
 490 173 l 1,127,-1
 565 173 l 1,128,-1
 565 273 l 1,129,-1
 540 273 l 1,122,-1
EndSplineSet
Validated: 1
Ligature2: "'frac' Diagonal Fractions lookup 2 subtable" one fraction four
Ligature2: "'frac' Diagonal Fractions lookup 2 subtable" one slash four
EndChar

StartChar: threequarters
Encoding: 190 190 105
Width: 810
GlyphClass: 2
Flags: W
LayerCount: 2
Fore
SplineSet
35 673 m 1,0,-1
 60 673 l 1,1,-1
 60 698 l 1,2,-1
 85 698 l 1,3,-1
 85 723 l 1,4,-1
 285 723 l 1,5,-1
 285 698 l 1,6,-1
 310 698 l 1,7,-1
 310 648 l 1,8,-1
 335 648 l 1,9,-1
 335 598 l 1,10,-1
 310 598 l 1,11,-1
 310 573 l 1,12,-1
 285 573 l 1,13,-1
 285 548 l 1,14,-1
 260 548 l 1,15,-1
 260 498 l 1,16,-1
 310 498 l 1,17,-1
 310 473 l 1,18,-1
 335 473 l 1,19,-1
 335 373 l 1,20,-1
 310 373 l 1,21,-1
 310 348 l 1,22,-1
 260 348 l 1,23,-1
 260 323 l 1,24,-1
 85 323 l 1,25,-1
 85 348 l 1,26,-1
 60 348 l 1,27,-1
 60 373 l 1,28,-1
 35 373 l 1,29,-1
 35 423 l 1,30,-1
 60 423 l 1,31,-1
 60 448 l 1,32,-1
 85 448 l 1,33,-1
 85 423 l 1,34,-1
 110 423 l 1,35,-1
 110 398 l 1,36,-1
 135 398 l 1,37,-1
 135 373 l 1,38,-1
 185 373 l 1,39,-1
 185 398 l 1,40,-1
 210 398 l 1,41,-1
 210 473 l 1,42,-1
 185 473 l 1,43,-1
 185 498 l 1,44,-1
 135 498 l 1,45,-1
 135 548 l 1,46,-1
 185 548 l 1,47,-1
 185 573 l 1,48,-1
 210 573 l 1,49,-1
 210 648 l 1,50,-1
 185 648 l 1,51,-1
 185 673 l 1,52,-1
 160 673 l 1,53,-1
 160 648 l 1,54,-1
 135 648 l 1,55,-1
 135 623 l 1,56,-1
 110 623 l 1,57,-1
 110 598 l 1,58,-1
 60 598 l 1,59,-1
 60 623 l 1,60,-1
 35 623 l 1,61,-1
 35 673 l 1,0,-1
260 198 m 1,62,-1
 285 198 l 1,63,-1
 285 248 l 1,64,-1
 310 248 l 1,65,-1
 310 273 l 1,66,-1
 335 273 l 1,67,-1
 335 298 l 1,68,-1
 360 298 l 1,69,-1
 360 348 l 1,70,-1
 385 348 l 1,71,-1
 385 398 l 1,72,-1
 410 398 l 1,73,-1
 410 448 l 1,74,-1
 435 448 l 1,75,-1
 435 473 l 1,76,-1
 460 473 l 1,77,-1
 460 498 l 1,78,-1
 485 498 l 1,79,-1
 485 548 l 1,80,-1
 510 548 l 1,81,-1
 510 598 l 1,82,-1
 535 598 l 1,83,-1
 535 623 l 1,84,-1
 560 623 l 1,85,-1
 560 648 l 1,86,-1
 585 648 l 1,87,-1
 585 673 l 1,88,-1
 660 673 l 1,89,-1
 660 648 l 1,90,-1
 685 648 l 1,91,-1
 685 623 l 1,92,-1
 660 623 l 1,93,-1
 660 598 l 1,94,-1
 635 598 l 1,95,-1
 635 548 l 1,96,-1
 610 548 l 1,97,-1
 610 523 l 1,98,-1
 585 523 l 1,99,-1
 585 473 l 1,100,-1
 560 473 l 1,101,-1
 560 448 l 1,102,-1
 535 448 l 1,103,-1
 535 398 l 1,104,-1
 510 398 l 1,105,-1
 510 348 l 1,106,-1
 485 348 l 1,107,-1
 485 323 l 1,108,-1
 460 323 l 1,109,-1
 460 298 l 1,110,-1
 435 298 l 1,111,-1
 435 248 l 1,112,-1
 410 248 l 1,113,-1
 410 198 l 1,114,-1
 385 198 l 1,115,-1
 385 173 l 1,116,-1
 360 173 l 1,117,-1
 360 148 l 1,118,-1
 335 148 l 1,119,-1
 335 98 l 1,120,-1
 310 98 l 1,121,-1
 310 48 l 1,122,-1
 285 48 l 1,123,-1
 285 23 l 1,124,-1
 260 23 l 1,125,-1
 260 -2 l 1,126,-1
 235 -2 l 1,127,-1
 235 -27 l 1,128,-1
 160 -27 l 1,129,-1
 160 48 l 1,130,-1
 185 48 l 1,131,-1
 185 98 l 1,132,-1
 210 98 l 1,133,-1
 210 148 l 1,134,-1
 235 148 l 1,135,-1
 235 173 l 1,136,-1
 260 173 l 1,137,-1
 260 198 l 1,62,-1
585 348 m 1,138,-1
 610 348 l 1,139,-1
 610 373 l 1,140,-1
 635 373 l 1,141,-1
 635 398 l 1,142,-1
 735 398 l 1,143,-1
 735 173 l 1,144,-1
 760 173 l 1,145,-1
 760 148 l 1,146,-1
 785 148 l 1,147,-1
 785 123 l 1,148,-1
 760 123 l 1,149,-1
 760 98 l 1,150,-1
 735 98 l 1,151,-1
 735 23 l 1,152,-1
 710 23 l 1,153,-1
 710 -2 l 1,154,-1
 660 -2 l 1,155,-1
 660 23 l 1,156,-1
 635 23 l 1,157,-1
 635 98 l 1,158,-1
 485 98 l 1,159,-1
 485 173 l 1,160,-1
 510 173 l 1,161,-1
 510 223 l 1,162,-1
 535 223 l 1,163,-1
 535 248 l 1,164,-1
 560 248 l 1,165,-1
 560 298 l 1,166,-1
 585 298 l 1,167,-1
 585 348 l 1,138,-1
610 273 m 1,168,-1
 610 248 l 1,169,-1
 585 248 l 1,170,-1
 585 198 l 1,171,-1
 560 198 l 1,172,-1
 560 173 l 1,173,-1
 635 173 l 1,174,-1
 635 273 l 1,175,-1
 610 273 l 1,168,-1
EndSplineSet
Validated: 1
Ligature2: "'frac' Diagonal Fractions lookup 2 subtable" three fraction four
Ligature2: "'frac' Diagonal Fractions lookup 2 subtable" three slash four
EndChar

StartChar: uni03BC
Encoding: 956 956 106
Width: 488
GlyphClass: 2
Flags: W
LayerCount: 2
Fore
SplineSet
54 425 m 1,0,-1
 79 425 l 1,1,-1
 79 450 l 1,2,-1
 104 450 l 1,3,-1
 104 475 l 1,4,-1
 129 475 l 1,5,-1
 129 450 l 1,6,-1
 179 450 l 1,7,-1
 179 425 l 1,8,-1
 204 425 l 1,9,-1
 204 175 l 1,10,-1
 229 175 l 1,11,-1
 229 200 l 1,12,-1
 254 200 l 1,13,-1
 254 225 l 1,14,-1
 279 225 l 1,15,-1
 279 425 l 1,16,-1
 304 425 l 1,17,-1
 304 450 l 1,18,-1
 329 450 l 1,19,-1
 329 475 l 1,20,-1
 354 475 l 1,21,-1
 354 450 l 1,22,-1
 379 450 l 1,23,-1
 379 425 l 1,24,-1
 404 425 l 1,25,-1
 404 100 l 1,26,-1
 429 100 l 1,27,-1
 429 75 l 1,28,-1
 454 75 l 1,29,-1
 454 25 l 1,30,-1
 429 25 l 1,31,-1
 429 0 l 1,32,-1
 354 0 l 1,33,-1
 354 25 l 1,34,-1
 329 25 l 1,35,-1
 329 50 l 1,36,-1
 304 50 l 1,37,-1
 304 75 l 1,38,-1
 279 75 l 1,39,-1
 279 50 l 1,40,-1
 254 50 l 1,41,-1
 254 25 l 1,42,-1
 204 25 l 1,43,-1
 204 50 l 1,44,-1
 179 50 l 1,45,-1
 179 -125 l 1,46,-1
 154 -125 l 1,47,-1
 154 -150 l 1,48,-1
 129 -150 l 1,49,-1
 129 -175 l 1,50,-1
 104 -175 l 1,51,-1
 104 -150 l 1,52,-1
 79 -150 l 1,53,-1
 79 -125 l 1,54,-1
 54 -125 l 1,55,-1
 54 425 l 1,0,-1
EndSplineSet
Validated: 1
EndChar

StartChar: paragraph
Encoding: 182 182 107
Width: 642
GlyphClass: 2
Flags: W
LayerCount: 2
Fore
SplineSet
186 273 m 1,0,-1
 136 273 l 1,1,-1
 136 298 l 1,2,-1
 111 298 l 1,3,-1
 111 323 l 1,4,-1
 86 323 l 1,5,-1
 86 373 l 1,6,-1
 61 373 l 1,7,-1
 61 523 l 1,8,-1
 86 523 l 1,9,-1
 86 548 l 1,10,-1
 111 548 l 1,11,-1
 111 573 l 1,12,-1
 136 573 l 1,13,-1
 136 598 l 1,14,-1
 161 598 l 1,15,-1
 161 623 l 1,16,-1
 211 623 l 1,17,-1
 211 648 l 1,18,-1
 236 648 l 1,19,-1
 236 673 l 1,20,-1
 536 673 l 1,21,-1
 536 648 l 1,22,-1
 561 648 l 1,23,-1
 561 623 l 1,24,-1
 536 623 l 1,25,-1
 536 598 l 1,26,-1
 511 598 l 1,27,-1
 511 -52 l 1,28,-1
 486 -52 l 1,29,-1
 486 -77 l 1,30,-1
 411 -77 l 1,31,-1
 411 -52 l 1,32,-1
 386 -52 l 1,33,-1
 386 598 l 1,34,-1
 336 598 l 1,35,-1
 336 -52 l 1,36,-1
 311 -52 l 1,37,-1
 311 -77 l 1,38,-1
 236 -77 l 1,39,-1
 236 -52 l 1,40,-1
 211 -52 l 1,41,-1
 211 248 l 1,42,-1
 186 248 l 1,43,-1
 186 273 l 1,0,-1
EndSplineSet
Validated: 1
EndChar

StartChar: section
Encoding: 167 167 108
Width: 573
GlyphClass: 2
Flags: W
LayerCount: 2
Fore
SplineSet
121 273 m 1,0,-1
 96 273 l 1,1,-1
 96 398 l 1,2,-1
 121 398 l 1,3,-1
 121 423 l 1,4,-1
 146 423 l 1,5,-1
 146 448 l 1,6,-1
 121 448 l 1,7,-1
 121 598 l 1,8,-1
 146 598 l 1,9,-1
 146 623 l 1,10,-1
 171 623 l 1,11,-1
 171 648 l 1,12,-1
 196 648 l 1,13,-1
 196 673 l 1,14,-1
 446 673 l 1,15,-1
 446 648 l 1,16,-1
 471 648 l 1,17,-1
 471 623 l 1,18,-1
 496 623 l 1,19,-1
 496 498 l 1,20,-1
 471 498 l 1,21,-1
 471 473 l 1,22,-1
 396 473 l 1,23,-1
 396 498 l 1,24,-1
 371 498 l 1,25,-1
 371 598 l 1,26,-1
 346 598 l 1,27,-1
 346 623 l 1,28,-1
 296 623 l 1,29,-1
 296 598 l 1,30,-1
 271 598 l 1,31,-1
 271 573 l 1,32,-1
 246 573 l 1,33,-1
 246 498 l 1,34,-1
 271 498 l 1,35,-1
 271 473 l 1,36,-1
 321 473 l 1,37,-1
 321 448 l 1,38,-1
 371 448 l 1,39,-1
 371 423 l 1,40,-1
 421 423 l 1,41,-1
 421 398 l 1,42,-1
 446 398 l 1,43,-1
 446 373 l 1,44,-1
 471 373 l 1,45,-1
 471 348 l 1,46,-1
 496 348 l 1,47,-1
 496 323 l 1,48,-1
 521 323 l 1,49,-1
 521 223 l 1,50,-1
 496 223 l 1,51,-1
 496 198 l 1,52,-1
 471 198 l 1,53,-1
 471 173 l 1,54,-1
 446 173 l 1,55,-1
 446 148 l 1,56,-1
 471 148 l 1,57,-1
 471 123 l 1,58,-1
 496 123 l 1,59,-1
 496 23 l 1,60,-1
 471 23 l 1,61,-1
 471 -2 l 1,62,-1
 446 -2 l 1,63,-1
 446 -27 l 1,64,-1
 421 -27 l 1,65,-1
 421 -52 l 1,66,-1
 371 -52 l 1,67,-1
 371 -77 l 1,68,-1
 196 -77 l 1,69,-1
 196 -52 l 1,70,-1
 146 -52 l 1,71,-1
 146 -27 l 1,72,-1
 121 -27 l 1,73,-1
 121 -2 l 1,74,-1
 96 -2 l 1,75,-1
 96 123 l 1,76,-1
 121 123 l 1,77,-1
 121 148 l 1,78,-1
 171 148 l 1,79,-1
 171 123 l 1,80,-1
 196 123 l 1,81,-1
 196 23 l 1,82,-1
 271 23 l 1,83,-1
 271 -2 l 1,84,-1
 296 -2 l 1,85,-1
 296 23 l 1,86,-1
 346 23 l 1,87,-1
 346 48 l 1,88,-1
 371 48 l 1,89,-1
 371 98 l 1,90,-1
 346 98 l 1,91,-1
 346 123 l 1,92,-1
 271 123 l 1,93,-1
 271 148 l 1,94,-1
 246 148 l 1,95,-1
 246 173 l 1,96,-1
 221 173 l 1,97,-1
 221 198 l 1,98,-1
 171 198 l 1,99,-1
 171 223 l 1,100,-1
 121 223 l 1,101,-1
 121 273 l 1,0,-1
371 298 m 1,102,-1
 346 298 l 1,103,-1
 346 323 l 1,104,-1
 321 323 l 1,105,-1
 321 348 l 1,106,-1
 271 348 l 1,107,-1
 271 373 l 1,108,-1
 221 373 l 1,109,-1
 221 298 l 1,110,-1
 246 298 l 1,111,-1
 246 273 l 1,112,-1
 296 273 l 1,113,-1
 296 248 l 1,114,-1
 346 248 l 1,115,-1
 346 223 l 1,116,-1
 371 223 l 1,117,-1
 371 298 l 1,102,-1
EndSplineSet
Validated: 1
EndChar

StartChar: dagger
Encoding: 8224 8224 109
Width: 425
GlyphClass: 2
Flags: W
LayerCount: 2
Fore
SplineSet
195 723 m 1,0,-1
 245 723 l 1,1,-1
 245 698 l 1,2,-1
 270 698 l 1,3,-1
 270 598 l 1,4,-1
 370 598 l 1,5,-1
 370 573 l 1,6,-1
 395 573 l 1,7,-1
 395 523 l 1,8,-1
 370 523 l 1,9,-1
 370 498 l 1,10,-1
 270 498 l 1,11,-1
 270 -77 l 1,12,-1
 245 -77 l 1,13,-1
 245 -102 l 1,14,-1
 195 -102 l 1,15,-1
 195 -77 l 1,16,-1
 170 -77 l 1,17,-1
 170 498 l 1,18,-1
 70 498 l 1,19,-1
 70 523 l 1,20,-1
 45 523 l 1,21,-1
 45 573 l 1,22,-1
 70 573 l 1,23,-1
 70 598 l 1,24,-1
 170 598 l 1,25,-1
 170 698 l 1,26,-1
 195 698 l 1,27,-1
 195 723 l 1,0,-1
EndSplineSet
Validated: 1
EndChar

StartChar: daggerdbl
Encoding: 8225 8225 110
Width: 435
GlyphClass: 2
Flags: W
LayerCount: 2
Fore
SplineSet
195 723 m 1,0,-1
 245 723 l 1,1,-1
 245 698 l 1,2,-1
 270 698 l 1,3,-1
 270 598 l 1,4,-1
 370 598 l 1,5,-1
 370 573 l 1,6,-1
 395 573 l 1,7,-1
 395 523 l 1,8,-1
 370 523 l 1,9,-1
 370 498 l 1,10,-1
 270 498 l 1,11,-1
 270 98 l 1,12,-1
 370 98 l 1,13,-1
 370 73 l 1,14,-1
 395 73 l 1,15,-1
 395 23 l 1,16,-1
 370 23 l 1,17,-1
 370 -2 l 1,18,-1
 270 -2 l 1,19,-1
 270 -77 l 1,20,-1
 245 -77 l 1,21,-1
 245 -102 l 1,22,-1
 195 -102 l 1,23,-1
 195 -77 l 1,24,-1
 170 -77 l 1,25,-1
 170 -2 l 1,26,-1
 70 -2 l 1,27,-1
 70 23 l 1,28,-1
 45 23 l 1,29,-1
 45 73 l 1,30,-1
 70 73 l 1,31,-1
 70 98 l 1,32,-1
 170 98 l 1,33,-1
 170 498 l 1,34,-1
 70 498 l 1,35,-1
 70 523 l 1,36,-1
 45 523 l 1,37,-1
 45 573 l 1,38,-1
 70 573 l 1,39,-1
 70 598 l 1,40,-1
 170 598 l 1,41,-1
 170 698 l 1,42,-1
 195 698 l 1,43,-1
 195 723 l 1,0,-1
EndSplineSet
Validated: 1
EndChar

StartChar: asciitilde
Encoding: 126 126 111
Width: 569
GlyphClass: 2
Flags: W
LayerCount: 2
Fore
SplineSet
156 223 m 1,0,-1
 106 223 l 1,1,-1
 106 198 l 1,2,-1
 81 198 l 1,3,-1
 81 223 l 1,4,-1
 56 223 l 1,5,-1
 56 323 l 1,6,-1
 81 323 l 1,7,-1
 81 348 l 1,8,-1
 131 348 l 1,9,-1
 131 373 l 1,10,-1
 256 373 l 1,11,-1
 256 348 l 1,12,-1
 306 348 l 1,13,-1
 306 323 l 1,14,-1
 331 323 l 1,15,-1
 331 298 l 1,16,-1
 381 298 l 1,17,-1
 381 323 l 1,18,-1
 431 323 l 1,19,-1
 431 348 l 1,20,-1
 456 348 l 1,21,-1
 456 373 l 1,22,-1
 481 373 l 1,23,-1
 481 348 l 1,24,-1
 506 348 l 1,25,-1
 506 273 l 1,26,-1
 481 273 l 1,27,-1
 481 248 l 1,28,-1
 456 248 l 1,29,-1
 456 223 l 1,30,-1
 406 223 l 1,31,-1
 406 198 l 1,32,-1
 331 198 l 1,33,-1
 331 223 l 1,34,-1
 281 223 l 1,35,-1
 281 248 l 1,36,-1
 231 248 l 1,37,-1
 231 273 l 1,38,-1
 181 273 l 1,39,-1
 181 248 l 1,40,-1
 156 248 l 1,41,-1
 156 223 l 1,0,-1
EndSplineSet
Validated: 1
EndChar

StartChar: guilsinglleft
Encoding: 8249 8249 112
Width: 413
GlyphClass: 2
Flags: W
LayerCount: 2
Fore
SplineSet
121 273 m 1,0,-1
 171 273 l 1,1,-1
 171 298 l 1,2,-1
 196 298 l 1,3,-1
 196 323 l 1,4,-1
 246 323 l 1,5,-1
 246 348 l 1,6,-1
 271 348 l 1,7,-1
 271 373 l 1,8,-1
 321 373 l 1,9,-1
 321 348 l 1,10,-1
 346 348 l 1,11,-1
 346 298 l 1,12,-1
 321 298 l 1,13,-1
 321 273 l 1,14,-1
 296 273 l 1,15,-1
 296 248 l 1,16,-1
 271 248 l 1,17,-1
 271 223 l 1,18,-1
 221 223 l 1,19,-1
 221 198 l 1,20,-1
 271 198 l 1,21,-1
 271 173 l 1,22,-1
 296 173 l 1,23,-1
 296 148 l 1,24,-1
 321 148 l 1,25,-1
 321 123 l 1,26,-1
 346 123 l 1,27,-1
 346 73 l 1,28,-1
 321 73 l 1,29,-1
 321 48 l 1,30,-1
 271 48 l 1,31,-1
 271 98 l 1,32,-1
 221 98 l 1,33,-1
 221 123 l 1,34,-1
 171 123 l 1,35,-1
 171 148 l 1,36,-1
 121 148 l 1,37,-1
 121 173 l 1,38,-1
 96 173 l 1,39,-1
 96 248 l 1,40,-1
 121 248 l 1,41,-1
 121 273 l 1,0,-1
EndSplineSet
Validated: 1
EndChar

StartChar: guilsinglright
Encoding: 8250 8250 113
Width: 406
GlyphClass: 2
Flags: W
LayerCount: 2
Fore
SplineSet
346 248 m 1,0,-1
 346 173 l 1,1,-1
 321 173 l 1,2,-1
 321 148 l 1,3,-1
 271 148 l 1,4,-1
 271 123 l 1,5,-1
 221 123 l 1,6,-1
 221 98 l 1,7,-1
 171 98 l 1,8,-1
 171 48 l 1,9,-1
 121 48 l 1,10,-1
 121 73 l 1,11,-1
 96 73 l 1,12,-1
 96 123 l 1,13,-1
 121 123 l 1,14,-1
 121 148 l 1,15,-1
 146 148 l 1,16,-1
 146 173 l 1,17,-1
 171 173 l 1,18,-1
 171 198 l 1,19,-1
 221 198 l 1,20,-1
 221 223 l 1,21,-1
 171 223 l 1,22,-1
 171 248 l 1,23,-1
 146 248 l 1,24,-1
 146 273 l 1,25,-1
 121 273 l 1,26,-1
 121 298 l 1,27,-1
 96 298 l 1,28,-1
 96 348 l 1,29,-1
 121 348 l 1,30,-1
 121 373 l 1,31,-1
 171 373 l 1,32,-1
 171 348 l 1,33,-1
 196 348 l 1,34,-1
 196 323 l 1,35,-1
 246 323 l 1,36,-1
 246 298 l 1,37,-1
 271 298 l 1,38,-1
 271 273 l 1,39,-1
 321 273 l 1,40,-1
 321 248 l 1,41,-1
 346 248 l 1,0,-1
EndSplineSet
Validated: 1
EndChar

StartChar: guillemotleft
Encoding: 171 171 114
Width: 602
GlyphClass: 2
Flags: W
LayerCount: 2
Fore
SplineSet
57 273 m 1,0,-1
 107 273 l 1,1,-1
 107 298 l 1,2,-1
 132 298 l 1,3,-1
 132 323 l 1,4,-1
 182 323 l 1,5,-1
 182 348 l 1,6,-1
 207 348 l 1,7,-1
 207 373 l 1,8,-1
 257 373 l 1,9,-1
 257 348 l 1,10,-1
 282 348 l 1,11,-1
 282 298 l 1,12,-1
 257 298 l 1,13,-1
 257 273 l 1,14,-1
 232 273 l 1,15,-1
 232 248 l 1,16,-1
 207 248 l 1,17,-1
 207 223 l 1,18,-1
 157 223 l 1,19,-1
 157 198 l 1,20,-1
 207 198 l 1,21,-1
 207 173 l 1,22,-1
 232 173 l 1,23,-1
 232 148 l 1,24,-1
 257 148 l 1,25,-1
 257 123 l 1,26,-1
 282 123 l 1,27,-1
 282 73 l 1,28,-1
 257 73 l 1,29,-1
 257 48 l 1,30,-1
 207 48 l 1,31,-1
 207 98 l 1,32,-1
 157 98 l 1,33,-1
 157 123 l 1,34,-1
 107 123 l 1,35,-1
 107 148 l 1,36,-1
 57 148 l 1,37,-1
 57 173 l 1,38,-1
 32 173 l 1,39,-1
 32 248 l 1,40,-1
 57 248 l 1,41,-1
 57 273 l 1,0,-1
297 273 m 1,42,-1
 347 273 l 1,43,-1
 347 298 l 1,44,-1
 372 298 l 1,45,-1
 372 323 l 1,46,-1
 422 323 l 1,47,-1
 422 348 l 1,48,-1
 447 348 l 1,49,-1
 447 373 l 1,50,-1
 497 373 l 1,51,-1
 497 348 l 1,52,-1
 522 348 l 1,53,-1
 522 298 l 1,54,-1
 497 298 l 1,55,-1
 497 273 l 1,56,-1
 472 273 l 1,57,-1
 472 248 l 1,58,-1
 447 248 l 1,59,-1
 447 223 l 1,60,-1
 397 223 l 1,61,-1
 397 198 l 1,62,-1
 447 198 l 1,63,-1
 447 173 l 1,64,-1
 472 173 l 1,65,-1
 472 148 l 1,66,-1
 497 148 l 1,67,-1
 497 123 l 1,68,-1
 522 123 l 1,69,-1
 522 73 l 1,70,-1
 497 73 l 1,71,-1
 497 48 l 1,72,-1
 447 48 l 1,73,-1
 447 98 l 1,74,-1
 397 98 l 1,75,-1
 397 123 l 1,76,-1
 347 123 l 1,77,-1
 347 148 l 1,78,-1
 297 148 l 1,79,-1
 297 173 l 1,80,-1
 272 173 l 1,81,-1
 272 248 l 1,82,-1
 297 248 l 1,83,-1
 297 273 l 1,42,-1
EndSplineSet
Validated: 1
EndChar

StartChar: guillemotright
Encoding: 187 187 115
Width: 567
GlyphClass: 2
Flags: W
LayerCount: 2
Fore
SplineSet
522 248 m 1,0,-1
 522 173 l 1,1,-1
 497 173 l 1,2,-1
 497 148 l 1,3,-1
 447 148 l 1,4,-1
 447 123 l 1,5,-1
 397 123 l 1,6,-1
 397 98 l 1,7,-1
 347 98 l 1,8,-1
 347 48 l 1,9,-1
 297 48 l 1,10,-1
 297 73 l 1,11,-1
 272 73 l 1,12,-1
 272 123 l 1,13,-1
 297 123 l 1,14,-1
 297 148 l 1,15,-1
 322 148 l 1,16,-1
 322 173 l 1,17,-1
 347 173 l 1,18,-1
 347 198 l 1,19,-1
 397 198 l 1,20,-1
 397 223 l 1,21,-1
 347 223 l 1,22,-1
 347 248 l 1,23,-1
 322 248 l 1,24,-1
 322 273 l 1,25,-1
 297 273 l 1,26,-1
 297 298 l 1,27,-1
 272 298 l 1,28,-1
 272 348 l 1,29,-1
 297 348 l 1,30,-1
 297 373 l 1,31,-1
 347 373 l 1,32,-1
 347 348 l 1,33,-1
 372 348 l 1,34,-1
 372 323 l 1,35,-1
 422 323 l 1,36,-1
 422 298 l 1,37,-1
 447 298 l 1,38,-1
 447 273 l 1,39,-1
 497 273 l 1,40,-1
 497 248 l 1,41,-1
 522 248 l 1,0,-1
282 248 m 1,42,-1
 282 173 l 1,43,-1
 257 173 l 1,44,-1
 257 148 l 1,45,-1
 207 148 l 1,46,-1
 207 123 l 1,47,-1
 157 123 l 1,48,-1
 157 98 l 1,49,-1
 107 98 l 1,50,-1
 107 48 l 1,51,-1
 57 48 l 1,52,-1
 57 73 l 1,53,-1
 32 73 l 1,54,-1
 32 123 l 1,55,-1
 57 123 l 1,56,-1
 57 148 l 1,57,-1
 82 148 l 1,58,-1
 82 173 l 1,59,-1
 107 173 l 1,60,-1
 107 198 l 1,61,-1
 157 198 l 1,62,-1
 157 223 l 1,63,-1
 107 223 l 1,64,-1
 107 248 l 1,65,-1
 82 248 l 1,66,-1
 82 273 l 1,67,-1
 57 273 l 1,68,-1
 57 298 l 1,69,-1
 32 298 l 1,70,-1
 32 348 l 1,71,-1
 57 348 l 1,72,-1
 57 373 l 1,73,-1
 107 373 l 1,74,-1
 107 348 l 1,75,-1
 132 348 l 1,76,-1
 132 323 l 1,77,-1
 182 323 l 1,78,-1
 182 298 l 1,79,-1
 207 298 l 1,80,-1
 207 273 l 1,81,-1
 257 273 l 1,82,-1
 257 248 l 1,83,-1
 282 248 l 1,42,-1
EndSplineSet
Validated: 1
EndChar

StartChar: breve
Encoding: 728 728 116
Width: 413
GlyphClass: 2
Flags: W
LayerCount: 2
Fore
SplineSet
96 598 m 1,0,-1
 121 598 l 1,1,-1
 121 573 l 1,2,-1
 146 573 l 1,3,-1
 146 548 l 1,4,-1
 171 548 l 1,5,-1
 171 523 l 1,6,-1
 196 523 l 1,7,-1
 196 548 l 1,8,-1
 221 548 l 1,9,-1
 221 573 l 1,10,-1
 246 573 l 1,11,-1
 246 598 l 1,12,-1
 271 598 l 1,13,-1
 271 573 l 1,14,-1
 296 573 l 1,15,-1
 296 473 l 1,16,-1
 246 473 l 1,17,-1
 246 448 l 1,18,-1
 121 448 l 1,19,-1
 121 473 l 1,20,-1
 71 473 l 1,21,-1
 71 573 l 1,22,-1
 96 573 l 1,23,-1
 96 598 l 1,0,-1
EndSplineSet
Validated: 1
EndChar

StartChar: dotaccent
Encoding: 729 729 117
Width: 247
GlyphClass: 2
Flags: W
LayerCount: 2
Fore
SplineSet
91 598 m 1,0,-1
 141 598 l 1,1,-1
 141 573 l 1,2,-1
 166 573 l 1,3,-1
 166 523 l 1,4,-1
 141 523 l 1,5,-1
 141 498 l 1,6,-1
 91 498 l 1,7,-1
 91 523 l 1,8,-1
 66 523 l 1,9,-1
 66 573 l 1,10,-1
 91 573 l 1,11,-1
 91 598 l 1,0,-1
EndSplineSet
Validated: 1
EndChar

StartChar: ring
Encoding: 730 730 118
Width: 362
GlyphClass: 2
Flags: W
LayerCount: 2
Fore
SplineSet
82 573 m 1,0,-1
 107 573 l 1,1,-1
 107 623 l 1,2,-1
 157 623 l 1,3,-1
 157 648 l 1,4,-1
 207 648 l 1,5,-1
 207 623 l 1,6,-1
 257 623 l 1,7,-1
 257 573 l 1,8,-1
 282 573 l 1,9,-1
 282 498 l 1,10,-1
 257 498 l 1,11,-1
 257 448 l 1,12,-1
 207 448 l 1,13,-1
 207 423 l 1,14,-1
 157 423 l 1,15,-1
 157 448 l 1,16,-1
 107 448 l 1,17,-1
 107 498 l 1,18,-1
 82 498 l 1,19,-1
 82 573 l 1,0,-1
132 523 m 1,20,-1
 157 523 l 1,21,-1
 157 498 l 1,22,-1
 207 498 l 1,23,-1
 207 523 l 1,24,-1
 232 523 l 1,25,-1
 232 548 l 1,26,-1
 207 548 l 1,27,-1
 207 573 l 1,28,-1
 157 573 l 1,29,-1
 157 548 l 1,30,-1
 132 548 l 1,31,-1
 132 523 l 1,20,-1
EndSplineSet
Validated: 1
EndChar

StartChar: hungarumlaut
Encoding: 733 733 119
Width: 511
GlyphClass: 2
Flags: W
LayerCount: 2
Fore
SplineSet
141 473 m 1,0,-1
 91 473 l 1,1,-1
 91 498 l 1,2,-1
 66 498 l 1,3,-1
 66 523 l 1,4,-1
 91 523 l 1,5,-1
 91 548 l 1,6,-1
 116 548 l 1,7,-1
 116 573 l 1,8,-1
 141 573 l 1,9,-1
 141 598 l 1,10,-1
 191 598 l 1,11,-1
 191 623 l 1,12,-1
 241 623 l 1,13,-1
 241 598 l 1,14,-1
 266 598 l 1,15,-1
 266 548 l 1,16,-1
 241 548 l 1,17,-1
 241 523 l 1,18,-1
 191 523 l 1,19,-1
 191 498 l 1,20,-1
 141 498 l 1,21,-1
 141 473 l 1,0,-1
331 473 m 1,22,-1
 281 473 l 1,23,-1
 281 498 l 1,24,-1
 256 498 l 1,25,-1
 256 523 l 1,26,-1
 281 523 l 1,27,-1
 281 548 l 1,28,-1
 306 548 l 1,29,-1
 306 573 l 1,30,-1
 331 573 l 1,31,-1
 331 598 l 1,32,-1
 381 598 l 1,33,-1
 381 623 l 1,34,-1
 431 623 l 1,35,-1
 431 598 l 1,36,-1
 456 598 l 1,37,-1
 456 548 l 1,38,-1
 431 548 l 1,39,-1
 431 523 l 1,40,-1
 381 523 l 1,41,-1
 381 498 l 1,42,-1
 331 498 l 1,43,-1
 331 473 l 1,22,-1
EndSplineSet
Validated: 1
EndChar

StartChar: ogonek
Encoding: 731 731 120
Width: 331
GlyphClass: 2
Flags: W
LayerCount: 2
Fore
SplineSet
171 48 m 1,0,-1
 246 48 l 1,1,-1
 246 -27 l 1,2,-1
 196 -27 l 1,3,-1
 196 -52 l 1,4,-1
 171 -52 l 1,5,-1
 171 -77 l 1,6,-1
 196 -77 l 1,7,-1
 196 -102 l 1,8,-1
 246 -102 l 1,9,-1
 246 -127 l 1,10,-1
 271 -127 l 1,11,-1
 271 -152 l 1,12,-1
 246 -152 l 1,13,-1
 246 -177 l 1,14,-1
 146 -177 l 1,15,-1
 146 -152 l 1,16,-1
 96 -152 l 1,17,-1
 96 -102 l 1,18,-1
 71 -102 l 1,19,-1
 71 -27 l 1,20,-1
 96 -27 l 1,21,-1
 96 23 l 1,22,-1
 171 23 l 1,23,-1
 171 48 l 1,0,-1
EndSplineSet
Validated: 1
EndChar

StartChar: caron
Encoding: 711 711 121
Width: 365
GlyphClass: 2
Flags: W
LayerCount: 2
Fore
SplineSet
204 473 m 1,0,-1
 154 473 l 1,1,-1
 154 498 l 1,2,-1
 104 498 l 1,3,-1
 104 523 l 1,4,-1
 54 523 l 1,5,-1
 54 548 l 1,6,-1
 29 548 l 1,7,-1
 29 598 l 1,8,-1
 54 598 l 1,9,-1
 54 623 l 1,10,-1
 104 623 l 1,11,-1
 104 598 l 1,12,-1
 129 598 l 1,13,-1
 129 573 l 1,14,-1
 154 573 l 1,15,-1
 154 548 l 1,16,-1
 204 548 l 1,17,-1
 204 573 l 1,18,-1
 229 573 l 1,19,-1
 229 598 l 1,20,-1
 254 598 l 1,21,-1
 254 623 l 1,22,-1
 304 623 l 1,23,-1
 304 598 l 1,24,-1
 329 598 l 1,25,-1
 329 548 l 1,26,-1
 304 548 l 1,27,-1
 304 523 l 1,28,-1
 254 523 l 1,29,-1
 254 498 l 1,30,-1
 204 498 l 1,31,-1
 204 473 l 1,0,-1
EndSplineSet
Validated: 1
EndChar

StartChar: grave
Encoding: 96 96 122
Width: 327
GlyphClass: 2
Flags: W
LayerCount: 2
Fore
SplineSet
141 498 m 1,0,-1
 141 523 l 1,1,-1
 91 523 l 1,2,-1
 91 548 l 1,3,-1
 66 548 l 1,4,-1
 66 598 l 1,5,-1
 91 598 l 1,6,-1
 91 623 l 1,7,-1
 141 623 l 1,8,-1
 141 598 l 1,9,-1
 191 598 l 1,10,-1
 191 573 l 1,11,-1
 216 573 l 1,12,-1
 216 548 l 1,13,-1
 241 548 l 1,14,-1
 241 523 l 1,15,-1
 266 523 l 1,16,-1
 266 498 l 1,17,-1
 241 498 l 1,18,-1
 241 473 l 1,19,-1
 191 473 l 1,20,-1
 191 498 l 1,21,-1
 141 498 l 1,0,-1
EndSplineSet
Validated: 1
EndChar

StartChar: circumflex
Encoding: 710 710 123
Width: 447
GlyphClass: 2
Flags: W
LayerCount: 2
Fore
SplineSet
314 598 m 1,0,-1
 314 573 l 1,1,-1
 364 573 l 1,2,-1
 364 548 l 1,3,-1
 389 548 l 1,4,-1
 389 498 l 1,5,-1
 364 498 l 1,6,-1
 364 473 l 1,7,-1
 314 473 l 1,8,-1
 314 498 l 1,9,-1
 289 498 l 1,10,-1
 289 523 l 1,11,-1
 264 523 l 1,12,-1
 264 548 l 1,13,-1
 214 548 l 1,14,-1
 214 523 l 1,15,-1
 189 523 l 1,16,-1
 189 498 l 1,17,-1
 164 498 l 1,18,-1
 164 473 l 1,19,-1
 114 473 l 1,20,-1
 114 498 l 1,21,-1
 89 498 l 1,22,-1
 89 548 l 1,23,-1
 114 548 l 1,24,-1
 114 573 l 1,25,-1
 164 573 l 1,26,-1
 164 598 l 1,27,-1
 214 598 l 1,28,-1
 214 623 l 1,29,-1
 264 623 l 1,30,-1
 264 598 l 1,31,-1
 314 598 l 1,0,-1
EndSplineSet
Validated: 1
EndChar

StartChar: dieresis
Encoding: 168 168 124
Width: 382
GlyphClass: 2
Flags: W
LayerCount: 2
Fore
SplineSet
91 598 m 1,0,-1
 141 598 l 1,1,-1
 141 573 l 1,2,-1
 166 573 l 1,3,-1
 166 523 l 1,4,-1
 141 523 l 1,5,-1
 141 498 l 1,6,-1
 91 498 l 1,7,-1
 91 523 l 1,8,-1
 66 523 l 1,9,-1
 66 573 l 1,10,-1
 91 573 l 1,11,-1
 91 598 l 1,0,-1
231 598 m 1,12,-1
 281 598 l 1,13,-1
 281 573 l 1,14,-1
 306 573 l 1,15,-1
 306 523 l 1,16,-1
 281 523 l 1,17,-1
 281 498 l 1,18,-1
 231 498 l 1,19,-1
 231 523 l 1,20,-1
 206 523 l 1,21,-1
 206 573 l 1,22,-1
 231 573 l 1,23,-1
 231 598 l 1,12,-1
EndSplineSet
Validated: 1
EndChar

StartChar: acute
Encoding: 180 180 125
Width: 332
GlyphClass: 2
Flags: W
LayerCount: 2
Fore
SplineSet
141 473 m 1,0,-1
 91 473 l 1,1,-1
 91 498 l 1,2,-1
 66 498 l 1,3,-1
 66 523 l 1,4,-1
 91 523 l 1,5,-1
 91 548 l 1,6,-1
 116 548 l 1,7,-1
 116 573 l 1,8,-1
 141 573 l 1,9,-1
 141 598 l 1,10,-1
 191 598 l 1,11,-1
 191 623 l 1,12,-1
 241 623 l 1,13,-1
 241 598 l 1,14,-1
 266 598 l 1,15,-1
 266 548 l 1,16,-1
 241 548 l 1,17,-1
 241 523 l 1,18,-1
 191 523 l 1,19,-1
 191 498 l 1,20,-1
 141 498 l 1,21,-1
 141 473 l 1,0,-1
EndSplineSet
Validated: 1
EndChar

StartChar: cedilla
Encoding: 184 184 126
Width: 304
GlyphClass: 2
Flags: W
LayerCount: 2
Fore
SplineSet
246 -2 m 1,0,-1
 246 -27 l 1,1,-1
 271 -27 l 1,2,-1
 271 -102 l 1,3,-1
 246 -102 l 1,4,-1
 246 -152 l 1,5,-1
 196 -152 l 1,6,-1
 196 -177 l 1,7,-1
 96 -177 l 1,8,-1
 96 -152 l 1,9,-1
 71 -152 l 1,10,-1
 71 -127 l 1,11,-1
 96 -127 l 1,12,-1
 96 -102 l 1,13,-1
 146 -102 l 1,14,-1
 146 -77 l 1,15,-1
 171 -77 l 1,16,-1
 171 -52 l 1,17,-1
 146 -52 l 1,18,-1
 146 -27 l 1,19,-1
 96 -27 l 1,20,-1
 96 -2 l 1,21,-1
 121 -2 l 1,22,-1
 121 23 l 1,23,-1
 146 23 l 1,24,-1
 146 48 l 1,25,-1
 171 48 l 1,26,-1
 171 73 l 1,27,-1
 221 73 l 1,28,-1
 221 23 l 1,29,-1
 196 23 l 1,30,-1
 196 -2 l 1,31,-1
 246 -2 l 1,0,-1
EndSplineSet
Validated: 1
EndChar

StartChar: germandbls
Encoding: 223 223 127
Width: 560
GlyphClass: 3
Flags: W
LayerCount: 2
Fore
SplineSet
44 598 m 1,0,-1
 69 598 l 1,1,-1
 69 623 l 1,2,-1
 94 623 l 1,3,-1
 94 648 l 1,4,-1
 144 648 l 1,5,-1
 144 673 l 1,6,-1
 344 673 l 1,7,-1
 344 648 l 1,8,-1
 394 648 l 1,9,-1
 394 623 l 1,10,-1
 419 623 l 1,11,-1
 419 498 l 1,12,-1
 394 498 l 1,13,-1
 394 448 l 1,14,-1
 369 448 l 1,15,-1
 369 323 l 1,16,-1
 394 323 l 1,17,-1
 394 298 l 1,18,-1
 419 298 l 1,19,-1
 419 273 l 1,20,-1
 444 273 l 1,21,-1
 444 248 l 1,22,-1
 469 248 l 1,23,-1
 469 223 l 1,24,-1
 494 223 l 1,25,-1
 494 198 l 1,26,-1
 519 198 l 1,27,-1
 519 173 l 1,28,-1
 544 173 l 1,29,-1
 544 98 l 1,30,-1
 519 98 l 1,31,-1
 519 48 l 1,32,-1
 494 48 l 1,33,-1
 494 23 l 1,34,-1
 469 23 l 1,35,-1
 469 -2 l 1,36,-1
 419 -2 l 1,37,-1
 419 -27 l 1,38,-1
 319 -27 l 1,39,-1
 319 -2 l 1,40,-1
 269 -2 l 1,41,-1
 269 23 l 1,42,-1
 219 23 l 1,43,-1
 219 123 l 1,44,-1
 244 123 l 1,45,-1
 244 148 l 1,46,-1
 269 148 l 1,47,-1
 269 123 l 1,48,-1
 294 123 l 1,49,-1
 294 98 l 1,50,-1
 369 98 l 1,51,-1
 369 123 l 1,52,-1
 394 123 l 1,53,-1
 394 148 l 1,54,-1
 369 148 l 1,55,-1
 369 173 l 1,56,-1
 344 173 l 1,57,-1
 344 198 l 1,58,-1
 294 198 l 1,59,-1
 294 223 l 1,60,-1
 244 223 l 1,61,-1
 244 273 l 1,62,-1
 219 273 l 1,63,-1
 219 398 l 1,64,-1
 244 398 l 1,65,-1
 244 473 l 1,66,-1
 269 473 l 1,67,-1
 269 573 l 1,68,-1
 244 573 l 1,69,-1
 244 598 l 1,70,-1
 219 598 l 1,71,-1
 219 573 l 1,72,-1
 194 573 l 1,73,-1
 194 23 l 1,74,-1
 169 23 l 1,75,-1
 169 -2 l 1,76,-1
 144 -2 l 1,77,-1
 144 -27 l 1,78,-1
 94 -27 l 1,79,-1
 94 -2 l 1,80,-1
 69 -2 l 1,81,-1
 69 23 l 1,82,-1
 44 23 l 1,83,-1
 44 598 l 1,0,-1
EndSplineSet
Validated: 1
EndChar

StartChar: eth
Encoding: 240 240 128
Width: 509
GlyphClass: 2
Flags: W
LayerCount: 2
Fore
SplineSet
450 98 m 1,0,-1
 450 48 l 1,1,-1
 400 48 l 1,2,-1
 400 -2 l 1,3,-1
 325 -2 l 1,4,-1
 325 -27 l 1,5,-1
 150 -27 l 1,6,-1
 150 -2 l 1,7,-1
 75 -2 l 1,8,-1
 75 23 l 1,9,-1
 50 23 l 1,10,-1
 50 48 l 1,11,-1
 25 48 l 1,12,-1
 25 98 l 1,13,-1
 0 98 l 1,14,-1
 0 273 l 1,15,-1
 25 273 l 1,16,-1
 25 323 l 1,17,-1
 50 323 l 1,18,-1
 50 348 l 1,19,-1
 75 348 l 1,20,-1
 75 373 l 1,21,-1
 100 373 l 1,22,-1
 100 398 l 1,23,-1
 275 398 l 1,24,-1
 275 448 l 1,25,-1
 250 448 l 1,26,-1
 250 473 l 1,27,-1
 200 473 l 1,28,-1
 200 448 l 1,29,-1
 125 448 l 1,30,-1
 125 523 l 1,31,-1
 150 523 l 1,32,-1
 150 548 l 1,33,-1
 100 548 l 1,34,-1
 100 573 l 1,35,-1
 75 573 l 1,36,-1
 75 623 l 1,37,-1
 100 623 l 1,38,-1
 100 648 l 1,39,-1
 200 648 l 1,40,-1
 200 623 l 1,41,-1
 225 623 l 1,42,-1
 225 598 l 1,43,-1
 250 598 l 1,44,-1
 250 623 l 1,45,-1
 275 623 l 1,46,-1
 275 648 l 1,47,-1
 350 648 l 1,48,-1
 350 573 l 1,49,-1
 325 573 l 1,50,-1
 325 548 l 1,51,-1
 350 548 l 1,52,-1
 350 523 l 1,53,-1
 375 523 l 1,54,-1
 375 498 l 1,55,-1
 400 498 l 1,56,-1
 400 448 l 1,57,-1
 425 448 l 1,58,-1
 425 398 l 1,59,-1
 450 398 l 1,60,-1
 450 348 l 1,61,-1
 475 348 l 1,62,-1
 475 98 l 1,63,-1
 450 98 l 1,0,-1
325 223 m 1,64,-1
 325 273 l 1,65,-1
 300 273 l 1,66,-1
 300 298 l 1,67,-1
 200 298 l 1,68,-1
 200 273 l 1,69,-1
 150 273 l 1,70,-1
 150 223 l 1,71,-1
 125 223 l 1,72,-1
 125 173 l 1,73,-1
 150 173 l 1,74,-1
 150 123 l 1,75,-1
 175 123 l 1,76,-1
 175 98 l 1,77,-1
 200 98 l 1,78,-1
 200 73 l 1,79,-1
 275 73 l 1,80,-1
 275 98 l 1,81,-1
 300 98 l 1,82,-1
 300 123 l 1,83,-1
 325 123 l 1,84,-1
 325 173 l 1,85,-1
 350 173 l 1,86,-1
 350 223 l 1,87,-1
 325 223 l 1,64,-1
EndSplineSet
Validated: 1
EndChar

StartChar: Thorn
Encoding: 222 222 129
Width: 469
GlyphClass: 2
Flags: W
LayerCount: 2
Fore
SplineSet
287 73 m 1,0,-1
 187 73 l 1,1,-1
 187 23 l 1,2,-1
 162 23 l 1,3,-1
 162 -2 l 1,4,-1
 137 -2 l 1,5,-1
 137 -27 l 1,6,-1
 87 -27 l 1,7,-1
 87 -2 l 1,8,-1
 62 -2 l 1,9,-1
 62 23 l 1,10,-1
 37 23 l 1,11,-1
 37 623 l 1,12,-1
 62 623 l 1,13,-1
 62 648 l 1,14,-1
 87 648 l 1,15,-1
 87 673 l 1,16,-1
 137 673 l 1,17,-1
 137 648 l 1,18,-1
 162 648 l 1,19,-1
 162 623 l 1,20,-1
 187 623 l 1,21,-1
 187 573 l 1,22,-1
 312 573 l 1,23,-1
 312 548 l 1,24,-1
 337 548 l 1,25,-1
 337 523 l 1,26,-1
 362 523 l 1,27,-1
 362 498 l 1,28,-1
 387 498 l 1,29,-1
 387 473 l 1,30,-1
 412 473 l 1,31,-1
 412 423 l 1,32,-1
 437 423 l 1,33,-1
 437 223 l 1,34,-1
 412 223 l 1,35,-1
 412 173 l 1,36,-1
 387 173 l 1,37,-1
 387 148 l 1,38,-1
 362 148 l 1,39,-1
 362 123 l 1,40,-1
 337 123 l 1,41,-1
 337 98 l 1,42,-1
 287 98 l 1,43,-1
 287 73 l 1,0,-1
287 398 m 1,44,-1
 262 398 l 1,45,-1
 262 448 l 1,46,-1
 187 448 l 1,47,-1
 187 198 l 1,48,-1
 262 198 l 1,49,-1
 262 248 l 1,50,-1
 287 248 l 1,51,-1
 287 398 l 1,44,-1
EndSplineSet
Validated: 1
EndChar

StartChar: thorn
Encoding: 254 254 130
Width: 469
GlyphClass: 2
Flags: W
LayerCount: 2
Fore
SplineSet
287 73 m 1,0,-1
 187 73 l 1,1,-1
 187 23 l 1,2,-1
 162 23 l 1,3,-1
 162 -2 l 1,4,-1
 137 -2 l 1,5,-1
 137 -27 l 1,6,-1
 87 -27 l 1,7,-1
 87 -2 l 1,8,-1
 62 -2 l 1,9,-1
 62 23 l 1,10,-1
 37 23 l 1,11,-1
 37 623 l 1,12,-1
 62 623 l 1,13,-1
 62 648 l 1,14,-1
 87 648 l 1,15,-1
 87 673 l 1,16,-1
 137 673 l 1,17,-1
 137 648 l 1,18,-1
 162 648 l 1,19,-1
 162 623 l 1,20,-1
 187 623 l 1,21,-1
 187 573 l 1,22,-1
 312 573 l 1,23,-1
 312 548 l 1,24,-1
 337 548 l 1,25,-1
 337 523 l 1,26,-1
 362 523 l 1,27,-1
 362 498 l 1,28,-1
 387 498 l 1,29,-1
 387 473 l 1,30,-1
 412 473 l 1,31,-1
 412 423 l 1,32,-1
 437 423 l 1,33,-1
 437 223 l 1,34,-1
 412 223 l 1,35,-1
 412 173 l 1,36,-1
 387 173 l 1,37,-1
 387 148 l 1,38,-1
 362 148 l 1,39,-1
 362 123 l 1,40,-1
 337 123 l 1,41,-1
 337 98 l 1,42,-1
 287 98 l 1,43,-1
 287 73 l 1,0,-1
287 398 m 1,44,-1
 262 398 l 1,45,-1
 262 448 l 1,46,-1
 187 448 l 1,47,-1
 187 198 l 1,48,-1
 262 198 l 1,49,-1
 262 248 l 1,50,-1
 287 248 l 1,51,-1
 287 398 l 1,44,-1
EndSplineSet
Validated: 1
EndChar

StartChar: O1
Encoding: 65537 -1 131
Width: 514
GlyphClass: 1
Flags: W
LayerCount: 2
Fore
SplineSet
1 664 m 1,0,-1
 601 664 l 1,1,-1
 601 -136 l 1,2,-1
 1 -136 l 1,3,-1
 1 664 l 1,0,-1
EndSplineSet
Validated: 1
EndChar

StartChar: divide
Encoding: 247 247 132
Width: 450
GlyphClass: 2
Flags: W
LayerCount: 2
Fore
SplineSet
186 548 m 1,0,-1
 261 548 l 1,1,-1
 261 523 l 1,2,-1
 286 523 l 1,3,-1
 286 448 l 1,4,-1
 261 448 l 1,5,-1
 261 423 l 1,6,-1
 186 423 l 1,7,-1
 186 448 l 1,8,-1
 161 448 l 1,9,-1
 161 523 l 1,10,-1
 186 523 l 1,11,-1
 186 548 l 1,0,-1
61 273 m 1,12,-1
 36 273 l 1,13,-1
 36 348 l 1,14,-1
 61 348 l 1,15,-1
 61 373 l 1,16,-1
 386 373 l 1,17,-1
 386 348 l 1,18,-1
 411 348 l 1,19,-1
 411 273 l 1,20,-1
 386 273 l 1,21,-1
 386 248 l 1,22,-1
 61 248 l 1,23,-1
 61 273 l 1,12,-1
186 198 m 1,24,-1
 261 198 l 1,25,-1
 261 173 l 1,26,-1
 286 173 l 1,27,-1
 286 98 l 1,28,-1
 261 98 l 1,29,-1
 261 73 l 1,30,-1
 186 73 l 1,31,-1
 186 98 l 1,32,-1
 161 98 l 1,33,-1
 161 173 l 1,34,-1
 186 173 l 1,35,-1
 186 198 l 1,24,-1
EndSplineSet
Validated: 1
EndChar

StartChar: plusminus
Encoding: 177 177 133
Width: 572
GlyphClass: 2
Flags: W
LayerCount: 2
Fore
SplineSet
133 373 m 1,0,-1
 108 373 l 1,1,-1
 108 448 l 1,2,-1
 133 448 l 1,3,-1
 133 473 l 1,4,-1
 233 473 l 1,5,-1
 233 573 l 1,6,-1
 258 573 l 1,7,-1
 258 598 l 1,8,-1
 333 598 l 1,9,-1
 333 573 l 1,10,-1
 358 573 l 1,11,-1
 358 473 l 1,12,-1
 458 473 l 1,13,-1
 458 448 l 1,14,-1
 483 448 l 1,15,-1
 483 373 l 1,16,-1
 458 373 l 1,17,-1
 458 348 l 1,18,-1
 358 348 l 1,19,-1
 358 248 l 1,20,-1
 333 248 l 1,21,-1
 333 223 l 1,22,-1
 258 223 l 1,23,-1
 258 248 l 1,24,-1
 233 248 l 1,25,-1
 233 348 l 1,26,-1
 133 348 l 1,27,-1
 133 373 l 1,0,-1
133 73 m 1,28,-1
 108 73 l 1,29,-1
 108 148 l 1,30,-1
 133 148 l 1,31,-1
 133 173 l 1,32,-1
 458 173 l 1,33,-1
 458 148 l 1,34,-1
 483 148 l 1,35,-1
 483 73 l 1,36,-1
 458 73 l 1,37,-1
 458 48 l 1,38,-1
 133 48 l 1,39,-1
 133 73 l 1,28,-1
EndSplineSet
Validated: 1
EndChar

StartChar: ellipsis
Encoding: 8230 8230 134
Width: 774
GlyphClass: 2
Flags: W
LayerCount: 2
Fore
SplineSet
91 123 m 1,0,-1
 166 123 l 1,1,-1
 166 98 l 1,2,-1
 191 98 l 1,3,-1
 191 23 l 1,4,-1
 166 23 l 1,5,-1
 166 -2 l 1,6,-1
 91 -2 l 1,7,-1
 91 23 l 1,8,-1
 66 23 l 1,9,-1
 66 98 l 1,10,-1
 91 98 l 1,11,-1
 91 123 l 1,0,-1
349 123 m 1,12,-1
 424 123 l 1,13,-1
 424 98 l 1,14,-1
 449 98 l 1,15,-1
 449 23 l 1,16,-1
 424 23 l 1,17,-1
 424 -2 l 1,18,-1
 349 -2 l 1,19,-1
 349 23 l 1,20,-1
 324 23 l 1,21,-1
 324 98 l 1,22,-1
 349 98 l 1,23,-1
 349 123 l 1,12,-1
607 123 m 1,24,-1
 682 123 l 1,25,-1
 682 98 l 1,26,-1
 707 98 l 1,27,-1
 707 23 l 1,28,-1
 682 23 l 1,29,-1
 682 -2 l 1,30,-1
 607 -2 l 1,31,-1
 607 23 l 1,32,-1
 582 23 l 1,33,-1
 582 98 l 1,34,-1
 607 98 l 1,35,-1
 607 123 l 1,24,-1
EndSplineSet
Validated: 1
EndChar

StartChar: exclamdown
Encoding: 161 161 135
Width: 290
GlyphClass: 2
Flags: W
LayerCount: 2
Fore
SplineSet
207 448 m 1,0,-1
 107 448 l 1,1,-1
 107 473 l 1,2,-1
 82 473 l 1,3,-1
 82 548 l 1,4,-1
 107 548 l 1,5,-1
 107 573 l 1,6,-1
 207 573 l 1,7,-1
 207 548 l 1,8,-1
 232 548 l 1,9,-1
 232 473 l 1,10,-1
 207 473 l 1,11,-1
 207 448 l 1,0,-1
232 -77 m 1,12,-1
 207 -77 l 1,13,-1
 207 -102 l 1,14,-1
 107 -102 l 1,15,-1
 107 -77 l 1,16,-1
 82 -77 l 1,17,-1
 82 373 l 1,18,-1
 107 373 l 1,19,-1
 107 398 l 1,20,-1
 132 398 l 1,21,-1
 132 423 l 1,22,-1
 182 423 l 1,23,-1
 182 398 l 1,24,-1
 207 398 l 1,25,-1
 207 373 l 1,26,-1
 232 373 l 1,27,-1
 232 -77 l 1,12,-1
EndSplineSet
Validated: 1
EndChar

StartChar: questiondown
Encoding: 191 191 136
Width: 502
GlyphClass: 2
Flags: W
LayerCount: 2
Fore
SplineSet
323 448 m 1,0,-1
 223 448 l 1,1,-1
 223 473 l 1,2,-1
 198 473 l 1,3,-1
 198 548 l 1,4,-1
 223 548 l 1,5,-1
 223 573 l 1,6,-1
 323 573 l 1,7,-1
 323 548 l 1,8,-1
 348 548 l 1,9,-1
 348 473 l 1,10,-1
 323 473 l 1,11,-1
 323 448 l 1,0,-1
298 298 m 1,12,-1
 273 298 l 1,13,-1
 273 273 l 1,14,-1
 248 273 l 1,15,-1
 248 248 l 1,16,-1
 223 248 l 1,17,-1
 223 198 l 1,18,-1
 198 198 l 1,19,-1
 198 148 l 1,20,-1
 173 148 l 1,21,-1
 173 48 l 1,22,-1
 198 48 l 1,23,-1
 198 23 l 1,24,-1
 298 23 l 1,25,-1
 298 48 l 1,26,-1
 323 48 l 1,27,-1
 323 98 l 1,28,-1
 448 98 l 1,29,-1
 448 73 l 1,30,-1
 473 73 l 1,31,-1
 473 -2 l 1,32,-1
 448 -2 l 1,33,-1
 448 -27 l 1,34,-1
 423 -27 l 1,35,-1
 423 -52 l 1,36,-1
 398 -52 l 1,37,-1
 398 -77 l 1,38,-1
 348 -77 l 1,39,-1
 348 -102 l 1,40,-1
 123 -102 l 1,41,-1
 123 -77 l 1,42,-1
 73 -77 l 1,43,-1
 73 -52 l 1,44,-1
 48 -52 l 1,45,-1
 48 -27 l 1,46,-1
 23 -27 l 1,47,-1
 23 173 l 1,48,-1
 48 173 l 1,49,-1
 48 223 l 1,50,-1
 73 223 l 1,51,-1
 73 248 l 1,52,-1
 98 248 l 1,53,-1
 98 298 l 1,54,-1
 123 298 l 1,55,-1
 123 323 l 1,56,-1
 148 323 l 1,57,-1
 148 348 l 1,58,-1
 173 348 l 1,59,-1
 173 373 l 1,60,-1
 198 373 l 1,61,-1
 198 398 l 1,62,-1
 248 398 l 1,63,-1
 248 423 l 1,64,-1
 298 423 l 1,65,-1
 298 398 l 1,66,-1
 323 398 l 1,67,-1
 323 323 l 1,68,-1
 298 323 l 1,69,-1
 298 298 l 1,12,-1
EndSplineSet
Validated: 1
EndChar

StartChar: a
Encoding: 97 97 137
Width: 491
GlyphClass: 2
Flags: W
LayerCount: 2
Fore
SplineSet
56 323 m 1,0,-1
 81 323 l 1,1,-1
 81 423 l 1,2,-1
 106 423 l 1,3,-1
 106 523 l 1,4,-1
 131 523 l 1,5,-1
 131 623 l 1,6,-1
 156 623 l 1,7,-1
 156 648 l 1,8,-1
 206 648 l 1,9,-1
 206 673 l 1,10,-1
 281 673 l 1,11,-1
 281 648 l 1,12,-1
 331 648 l 1,13,-1
 331 623 l 1,14,-1
 356 623 l 1,15,-1
 356 523 l 1,16,-1
 381 523 l 1,17,-1
 381 423 l 1,18,-1
 406 423 l 1,19,-1
 406 323 l 1,20,-1
 431 323 l 1,21,-1
 431 223 l 1,22,-1
 456 223 l 1,23,-1
 456 123 l 1,24,-1
 481 123 l 1,25,-1
 481 -2 l 1,26,-1
 456 -2 l 1,27,-1
 456 -27 l 1,28,-1
 356 -27 l 1,29,-1
 356 23 l 1,30,-1
 331 23 l 1,31,-1
 331 98 l 1,32,-1
 156 98 l 1,33,-1
 156 23 l 1,34,-1
 131 23 l 1,35,-1
 131 -27 l 1,36,-1
 31 -27 l 1,37,-1
 31 -2 l 1,38,-1
 6 -2 l 1,39,-1
 6 123 l 1,40,-1
 31 123 l 1,41,-1
 31 223 l 1,42,-1
 56 223 l 1,43,-1
 56 323 l 1,0,-1
306 298 m 1,44,-1
 281 298 l 1,45,-1
 281 398 l 1,46,-1
 256 398 l 1,47,-1
 256 473 l 1,48,-1
 231 473 l 1,49,-1
 231 398 l 1,50,-1
 206 398 l 1,51,-1
 206 298 l 1,52,-1
 181 298 l 1,53,-1
 181 223 l 1,54,-1
 306 223 l 1,55,-1
 306 298 l 1,44,-1
EndSplineSet
Validated: 1
Substitution2: "Single Substitution lookup 5 subtable" ordfeminine
EndChar

StartChar: b
Encoding: 98 98 138
Width: 477
GlyphClass: 2
Flags: W
LayerCount: 2
Fore
SplineSet
30 598 m 1,0,-1
 55 598 l 1,1,-1
 55 648 l 1,2,-1
 105 648 l 1,3,-1
 105 673 l 1,4,-1
 280 673 l 1,5,-1
 280 648 l 1,6,-1
 355 648 l 1,7,-1
 355 623 l 1,8,-1
 405 623 l 1,9,-1
 405 598 l 1,10,-1
 430 598 l 1,11,-1
 430 548 l 1,12,-1
 455 548 l 1,13,-1
 455 448 l 1,14,-1
 430 448 l 1,15,-1
 430 398 l 1,16,-1
 405 398 l 1,17,-1
 405 373 l 1,18,-1
 380 373 l 1,19,-1
 380 348 l 1,20,-1
 330 348 l 1,21,-1
 330 298 l 1,22,-1
 380 298 l 1,23,-1
 380 273 l 1,24,-1
 405 273 l 1,25,-1
 405 248 l 1,26,-1
 430 248 l 1,27,-1
 430 223 l 1,28,-1
 455 223 l 1,29,-1
 455 98 l 1,30,-1
 430 98 l 1,31,-1
 430 48 l 1,32,-1
 405 48 l 1,33,-1
 405 23 l 1,34,-1
 355 23 l 1,35,-1
 355 -2 l 1,36,-1
 305 -2 l 1,37,-1
 305 -27 l 1,38,-1
 105 -27 l 1,39,-1
 105 -2 l 1,40,-1
 55 -2 l 1,41,-1
 55 48 l 1,42,-1
 30 48 l 1,43,-1
 30 598 l 1,0,-1
180 398 m 1,44,-1
 255 398 l 1,45,-1
 255 423 l 1,46,-1
 280 423 l 1,47,-1
 280 448 l 1,48,-1
 305 448 l 1,49,-1
 305 548 l 1,50,-1
 280 548 l 1,51,-1
 280 573 l 1,52,-1
 180 573 l 1,53,-1
 180 398 l 1,44,-1
180 73 m 1,54,-1
 280 73 l 1,55,-1
 280 98 l 1,56,-1
 305 98 l 1,57,-1
 305 198 l 1,58,-1
 280 198 l 1,59,-1
 280 223 l 1,60,-1
 255 223 l 1,61,-1
 255 248 l 1,62,-1
 180 248 l 1,63,-1
 180 73 l 1,54,-1
EndSplineSet
Validated: 1
EndChar

StartChar: c
Encoding: 99 99 139
Width: 469
GlyphClass: 2
Flags: W
LayerCount: 2
Fore
SplineSet
22 473 m 1,0,-1
 47 473 l 1,1,-1
 47 548 l 1,2,-1
 72 548 l 1,3,-1
 72 598 l 1,4,-1
 97 598 l 1,5,-1
 97 623 l 1,6,-1
 122 623 l 1,7,-1
 122 648 l 1,8,-1
 172 648 l 1,9,-1
 172 673 l 1,10,-1
 322 673 l 1,11,-1
 322 648 l 1,12,-1
 347 648 l 1,13,-1
 347 623 l 1,14,-1
 372 623 l 1,15,-1
 372 598 l 1,16,-1
 397 598 l 1,17,-1
 397 548 l 1,18,-1
 422 548 l 1,19,-1
 422 348 l 1,20,-1
 397 348 l 1,21,-1
 397 323 l 1,22,-1
 322 323 l 1,23,-1
 322 348 l 1,24,-1
 297 348 l 1,25,-1
 297 473 l 1,26,-1
 272 473 l 1,27,-1
 272 523 l 1,28,-1
 222 523 l 1,29,-1
 222 498 l 1,30,-1
 197 498 l 1,31,-1
 197 448 l 1,32,-1
 172 448 l 1,33,-1
 172 173 l 1,34,-1
 197 173 l 1,35,-1
 197 123 l 1,36,-1
 222 123 l 1,37,-1
 222 98 l 1,38,-1
 297 98 l 1,39,-1
 297 123 l 1,40,-1
 322 123 l 1,41,-1
 322 148 l 1,42,-1
 347 148 l 1,43,-1
 347 198 l 1,44,-1
 422 198 l 1,45,-1
 422 173 l 1,46,-1
 447 173 l 1,47,-1
 447 73 l 1,48,-1
 422 73 l 1,49,-1
 422 48 l 1,50,-1
 397 48 l 1,51,-1
 397 23 l 1,52,-1
 372 23 l 1,53,-1
 372 -2 l 1,54,-1
 322 -2 l 1,55,-1
 322 -27 l 1,56,-1
 172 -27 l 1,57,-1
 172 -2 l 1,58,-1
 122 -2 l 1,59,-1
 122 23 l 1,60,-1
 97 23 l 1,61,-1
 97 48 l 1,62,-1
 72 48 l 1,63,-1
 72 98 l 1,64,-1
 47 98 l 1,65,-1
 47 148 l 1,66,-1
 22 148 l 1,67,-1
 22 473 l 1,0,-1
EndSplineSet
Validated: 1
EndChar

StartChar: d
Encoding: 100 100 140
Width: 473
GlyphClass: 2
Flags: W
LayerCount: 2
Fore
SplineSet
30 598 m 1,0,-1
 55 598 l 1,1,-1
 55 648 l 1,2,-1
 105 648 l 1,3,-1
 105 673 l 1,4,-1
 280 673 l 1,5,-1
 280 648 l 1,6,-1
 330 648 l 1,7,-1
 330 623 l 1,8,-1
 355 623 l 1,9,-1
 355 598 l 1,10,-1
 380 598 l 1,11,-1
 380 573 l 1,12,-1
 405 573 l 1,13,-1
 405 548 l 1,14,-1
 430 548 l 1,15,-1
 430 473 l 1,16,-1
 455 473 l 1,17,-1
 455 173 l 1,18,-1
 430 173 l 1,19,-1
 430 98 l 1,20,-1
 405 98 l 1,21,-1
 405 73 l 1,22,-1
 380 73 l 1,23,-1
 380 48 l 1,24,-1
 355 48 l 1,25,-1
 355 23 l 1,26,-1
 330 23 l 1,27,-1
 330 -2 l 1,28,-1
 305 -2 l 1,29,-1
 305 -27 l 1,30,-1
 105 -27 l 1,31,-1
 105 -2 l 1,32,-1
 55 -2 l 1,33,-1
 55 48 l 1,34,-1
 30 48 l 1,35,-1
 30 598 l 1,0,-1
280 173 m 1,36,-1
 305 173 l 1,37,-1
 305 473 l 1,38,-1
 280 473 l 1,39,-1
 280 498 l 1,40,-1
 255 498 l 1,41,-1
 255 523 l 1,42,-1
 230 523 l 1,43,-1
 230 548 l 1,44,-1
 180 548 l 1,45,-1
 180 98 l 1,46,-1
 230 98 l 1,47,-1
 230 123 l 1,48,-1
 255 123 l 1,49,-1
 255 148 l 1,50,-1
 280 148 l 1,51,-1
 280 173 l 1,36,-1
EndSplineSet
Validated: 1
EndChar

StartChar: e
Encoding: 101 101 141
Width: 404
GlyphClass: 2
Flags: W
LayerCount: 2
Fore
SplineSet
30 598 m 1,0,-1
 55 598 l 1,1,-1
 55 623 l 1,2,-1
 80 623 l 1,3,-1
 80 648 l 1,4,-1
 105 648 l 1,5,-1
 105 673 l 1,6,-1
 330 673 l 1,7,-1
 330 648 l 1,8,-1
 355 648 l 1,9,-1
 355 623 l 1,10,-1
 380 623 l 1,11,-1
 380 548 l 1,12,-1
 180 548 l 1,13,-1
 180 373 l 1,14,-1
 330 373 l 1,15,-1
 330 348 l 1,16,-1
 355 348 l 1,17,-1
 355 298 l 1,18,-1
 330 298 l 1,19,-1
 330 273 l 1,20,-1
 180 273 l 1,21,-1
 180 98 l 1,22,-1
 355 98 l 1,23,-1
 355 73 l 1,24,-1
 380 73 l 1,25,-1
 380 -2 l 1,26,-1
 355 -2 l 1,27,-1
 355 -27 l 1,28,-1
 105 -27 l 1,29,-1
 105 -2 l 1,30,-1
 80 -2 l 1,31,-1
 80 23 l 1,32,-1
 55 23 l 1,33,-1
 55 48 l 1,34,-1
 30 48 l 1,35,-1
 30 598 l 1,0,-1
EndSplineSet
Validated: 1
EndChar

StartChar: f
Encoding: 102 102 142
Width: 383
GlyphClass: 2
Flags: W
LayerCount: 2
Fore
SplineSet
30 23 m 1,0,-1
 30 598 l 1,1,-1
 55 598 l 1,2,-1
 55 623 l 1,3,-1
 80 623 l 1,4,-1
 80 648 l 1,5,-1
 105 648 l 1,6,-1
 105 673 l 1,7,-1
 330 673 l 1,8,-1
 330 648 l 1,9,-1
 355 648 l 1,10,-1
 355 623 l 1,11,-1
 380 623 l 1,12,-1
 380 548 l 1,13,-1
 180 548 l 1,14,-1
 180 348 l 1,15,-1
 330 348 l 1,16,-1
 330 323 l 1,17,-1
 355 323 l 1,18,-1
 355 273 l 1,19,-1
 330 273 l 1,20,-1
 330 248 l 1,21,-1
 180 248 l 1,22,-1
 180 23 l 1,23,-1
 155 23 l 1,24,-1
 155 -2 l 1,25,-1
 130 -2 l 1,26,-1
 130 -27 l 1,27,-1
 80 -27 l 1,28,-1
 80 -2 l 1,29,-1
 55 -2 l 1,30,-1
 55 23 l 1,31,-1
 30 23 l 1,0,-1
EndSplineSet
Validated: 1
EndChar

StartChar: g
Encoding: 103 103 143
Width: 481
GlyphClass: 2
Flags: W
LayerCount: 2
Fore
SplineSet
22 473 m 1,0,-1
 47 473 l 1,1,-1
 47 548 l 1,2,-1
 72 548 l 1,3,-1
 72 598 l 1,4,-1
 97 598 l 1,5,-1
 97 623 l 1,6,-1
 122 623 l 1,7,-1
 122 648 l 1,8,-1
 172 648 l 1,9,-1
 172 673 l 1,10,-1
 322 673 l 1,11,-1
 322 648 l 1,12,-1
 347 648 l 1,13,-1
 347 623 l 1,14,-1
 372 623 l 1,15,-1
 372 598 l 1,16,-1
 397 598 l 1,17,-1
 397 573 l 1,18,-1
 422 573 l 1,19,-1
 422 523 l 1,20,-1
 447 523 l 1,21,-1
 447 423 l 1,22,-1
 422 423 l 1,23,-1
 422 398 l 1,24,-1
 397 398 l 1,25,-1
 397 373 l 1,26,-1
 322 373 l 1,27,-1
 322 423 l 1,28,-1
 297 423 l 1,29,-1
 297 498 l 1,30,-1
 272 498 l 1,31,-1
 272 523 l 1,32,-1
 222 523 l 1,33,-1
 222 498 l 1,34,-1
 197 498 l 1,35,-1
 197 448 l 1,36,-1
 172 448 l 1,37,-1
 172 173 l 1,38,-1
 197 173 l 1,39,-1
 197 123 l 1,40,-1
 222 123 l 1,41,-1
 222 98 l 1,42,-1
 297 98 l 1,43,-1
 297 123 l 1,44,-1
 322 123 l 1,45,-1
 322 148 l 1,46,-1
 347 148 l 1,47,-1
 347 198 l 1,48,-1
 297 198 l 1,49,-1
 297 223 l 1,50,-1
 272 223 l 1,51,-1
 272 273 l 1,52,-1
 297 273 l 1,53,-1
 297 298 l 1,54,-1
 447 298 l 1,55,-1
 447 273 l 1,56,-1
 472 273 l 1,57,-1
 472 148 l 1,58,-1
 447 148 l 1,59,-1
 447 98 l 1,60,-1
 422 98 l 1,61,-1
 422 48 l 1,62,-1
 397 48 l 1,63,-1
 397 23 l 1,64,-1
 372 23 l 1,65,-1
 372 -2 l 1,66,-1
 322 -2 l 1,67,-1
 322 -27 l 1,68,-1
 172 -27 l 1,69,-1
 172 -2 l 1,70,-1
 122 -2 l 1,71,-1
 122 23 l 1,72,-1
 97 23 l 1,73,-1
 97 48 l 1,74,-1
 72 48 l 1,75,-1
 72 98 l 1,76,-1
 47 98 l 1,77,-1
 47 148 l 1,78,-1
 22 148 l 1,79,-1
 22 473 l 1,0,-1
EndSplineSet
Validated: 1
EndChar

StartChar: h
Encoding: 104 104 144
Width: 491
GlyphClass: 2
Flags: W
LayerCount: 2
Fore
SplineSet
183 23 m 1,0,-1
 158 23 l 1,1,-1
 158 -2 l 1,2,-1
 133 -2 l 1,3,-1
 133 -27 l 1,4,-1
 83 -27 l 1,5,-1
 83 -2 l 1,6,-1
 58 -2 l 1,7,-1
 58 23 l 1,8,-1
 33 23 l 1,9,-1
 33 623 l 1,10,-1
 58 623 l 1,11,-1
 58 648 l 1,12,-1
 83 648 l 1,13,-1
 83 673 l 1,14,-1
 133 673 l 1,15,-1
 133 648 l 1,16,-1
 158 648 l 1,17,-1
 158 623 l 1,18,-1
 183 623 l 1,19,-1
 183 348 l 1,20,-1
 308 348 l 1,21,-1
 308 623 l 1,22,-1
 333 623 l 1,23,-1
 333 648 l 1,24,-1
 358 648 l 1,25,-1
 358 673 l 1,26,-1
 408 673 l 1,27,-1
 408 648 l 1,28,-1
 433 648 l 1,29,-1
 433 623 l 1,30,-1
 458 623 l 1,31,-1
 458 23 l 1,32,-1
 433 23 l 1,33,-1
 433 -2 l 1,34,-1
 408 -2 l 1,35,-1
 408 -27 l 1,36,-1
 358 -27 l 1,37,-1
 358 -2 l 1,38,-1
 333 -2 l 1,39,-1
 333 23 l 1,40,-1
 308 23 l 1,41,-1
 308 223 l 1,42,-1
 183 223 l 1,43,-1
 183 23 l 1,0,-1
EndSplineSet
Validated: 1
EndChar

StartChar: i
Encoding: 105 105 145
Width: 215
GlyphClass: 2
Flags: W
LayerCount: 2
Fore
SplineSet
33 623 m 1,0,-1
 58 623 l 1,1,-1
 58 648 l 1,2,-1
 83 648 l 1,3,-1
 83 673 l 1,4,-1
 133 673 l 1,5,-1
 133 648 l 1,6,-1
 158 648 l 1,7,-1
 158 623 l 1,8,-1
 183 623 l 1,9,-1
 183 23 l 1,10,-1
 158 23 l 1,11,-1
 158 -2 l 1,12,-1
 133 -2 l 1,13,-1
 133 -27 l 1,14,-1
 83 -27 l 1,15,-1
 83 -2 l 1,16,-1
 58 -2 l 1,17,-1
 58 23 l 1,18,-1
 33 23 l 1,19,-1
 33 623 l 1,0,-1
EndSplineSet
Validated: 1
EndChar

StartChar: j
Encoding: 106 106 146
Width: 243
GlyphClass: 2
Flags: W
LayerCount: 2
Fore
SplineSet
113 673 m 1,0,-1
 163 673 l 1,1,-1
 163 648 l 1,2,-1
 188 648 l 1,3,-1
 188 623 l 1,4,-1
 213 623 l 1,5,-1
 213 -52 l 1,6,-1
 188 -52 l 1,7,-1
 188 -77 l 1,8,-1
 163 -77 l 1,9,-1
 163 -102 l 1,10,-1
 113 -102 l 1,11,-1
 113 -127 l 1,12,-1
 63 -127 l 1,13,-1
 63 -152 l 1,14,-1
 -12 -152 l 1,15,-1
 -12 -127 l 1,16,-1
 -37 -127 l 1,17,-1
 -37 -52 l 1,18,-1
 -12 -52 l 1,19,-1
 -12 -27 l 1,20,-1
 38 -27 l 1,21,-1
 38 -2 l 1,22,-1
 63 -2 l 1,23,-1
 63 623 l 1,24,-1
 88 623 l 1,25,-1
 88 648 l 1,26,-1
 113 648 l 1,27,-1
 113 673 l 1,0,-1
EndSplineSet
Validated: 1
EndChar

StartChar: k
Encoding: 107 107 147
Width: 472
GlyphClass: 2
Flags: W
LayerCount: 2
Fore
SplineSet
33 623 m 1,0,-1
 58 623 l 1,1,-1
 58 648 l 1,2,-1
 83 648 l 1,3,-1
 83 673 l 1,4,-1
 133 673 l 1,5,-1
 133 648 l 1,6,-1
 158 648 l 1,7,-1
 158 623 l 1,8,-1
 183 623 l 1,9,-1
 183 398 l 1,10,-1
 208 398 l 1,11,-1
 208 448 l 1,12,-1
 233 448 l 1,13,-1
 233 473 l 1,14,-1
 258 473 l 1,15,-1
 258 523 l 1,16,-1
 283 523 l 1,17,-1
 283 548 l 1,18,-1
 308 548 l 1,19,-1
 308 573 l 1,20,-1
 333 573 l 1,21,-1
 333 623 l 1,22,-1
 358 623 l 1,23,-1
 358 648 l 1,24,-1
 383 648 l 1,25,-1
 383 673 l 1,26,-1
 433 673 l 1,27,-1
 433 648 l 1,28,-1
 458 648 l 1,29,-1
 458 548 l 1,30,-1
 433 548 l 1,31,-1
 433 498 l 1,32,-1
 408 498 l 1,33,-1
 408 473 l 1,34,-1
 383 473 l 1,35,-1
 383 423 l 1,36,-1
 358 423 l 1,37,-1
 358 398 l 1,38,-1
 333 398 l 1,39,-1
 333 348 l 1,40,-1
 308 348 l 1,41,-1
 308 323 l 1,42,-1
 283 323 l 1,43,-1
 283 273 l 1,44,-1
 308 273 l 1,45,-1
 308 248 l 1,46,-1
 333 248 l 1,47,-1
 333 198 l 1,48,-1
 358 198 l 1,49,-1
 358 173 l 1,50,-1
 383 173 l 1,51,-1
 383 123 l 1,52,-1
 408 123 l 1,53,-1
 408 98 l 1,54,-1
 433 98 l 1,55,-1
 433 73 l 1,56,-1
 458 73 l 1,57,-1
 458 -2 l 1,58,-1
 433 -2 l 1,59,-1
 433 -27 l 1,60,-1
 358 -27 l 1,61,-1
 358 -2 l 1,62,-1
 333 -2 l 1,63,-1
 333 23 l 1,64,-1
 308 23 l 1,65,-1
 308 48 l 1,66,-1
 283 48 l 1,67,-1
 283 73 l 1,68,-1
 258 73 l 1,69,-1
 258 123 l 1,70,-1
 233 123 l 1,71,-1
 233 148 l 1,72,-1
 208 148 l 1,73,-1
 208 198 l 1,74,-1
 183 198 l 1,75,-1
 183 23 l 1,76,-1
 158 23 l 1,77,-1
 158 -2 l 1,78,-1
 133 -2 l 1,79,-1
 133 -27 l 1,80,-1
 83 -27 l 1,81,-1
 83 -2 l 1,82,-1
 58 -2 l 1,83,-1
 58 23 l 1,84,-1
 33 23 l 1,85,-1
 33 623 l 1,0,-1
EndSplineSet
Validated: 1
EndChar

StartChar: l
Encoding: 108 108 148
Width: 348
GlyphClass: 2
Flags: W
LayerCount: 2
Fore
SplineSet
30 623 m 1,0,-1
 55 623 l 1,1,-1
 55 648 l 1,2,-1
 80 648 l 1,3,-1
 80 673 l 1,4,-1
 130 673 l 1,5,-1
 130 648 l 1,6,-1
 155 648 l 1,7,-1
 155 623 l 1,8,-1
 180 623 l 1,9,-1
 180 98 l 1,10,-1
 305 98 l 1,11,-1
 305 73 l 1,12,-1
 330 73 l 1,13,-1
 330 -2 l 1,14,-1
 305 -2 l 1,15,-1
 305 -27 l 1,16,-1
 105 -27 l 1,17,-1
 105 -2 l 1,18,-1
 80 -2 l 1,19,-1
 80 23 l 1,20,-1
 55 23 l 1,21,-1
 55 48 l 1,22,-1
 30 48 l 1,23,-1
 30 623 l 1,0,-1
EndSplineSet
Validated: 1
EndChar

StartChar: m
Encoding: 109 109 149
Width: 687
GlyphClass: 2
Flags: W
LayerCount: 2
Fore
SplineSet
211 273 m 1,0,-1
 186 273 l 1,1,-1
 186 23 l 1,2,-1
 161 23 l 1,3,-1
 161 -2 l 1,4,-1
 136 -2 l 1,5,-1
 136 -27 l 1,6,-1
 86 -27 l 1,7,-1
 86 -2 l 1,8,-1
 61 -2 l 1,9,-1
 61 23 l 1,10,-1
 36 23 l 1,11,-1
 36 498 l 1,12,-1
 61 498 l 1,13,-1
 61 573 l 1,14,-1
 86 573 l 1,15,-1
 86 648 l 1,16,-1
 111 648 l 1,17,-1
 111 673 l 1,18,-1
 186 673 l 1,19,-1
 186 648 l 1,20,-1
 211 648 l 1,21,-1
 211 623 l 1,22,-1
 236 623 l 1,23,-1
 236 573 l 1,24,-1
 261 573 l 1,25,-1
 261 498 l 1,26,-1
 286 498 l 1,27,-1
 286 423 l 1,28,-1
 311 423 l 1,29,-1
 311 348 l 1,30,-1
 336 348 l 1,31,-1
 336 298 l 1,32,-1
 386 298 l 1,33,-1
 386 348 l 1,34,-1
 411 348 l 1,35,-1
 411 423 l 1,36,-1
 436 423 l 1,37,-1
 436 498 l 1,38,-1
 461 498 l 1,39,-1
 461 598 l 1,40,-1
 486 598 l 1,41,-1
 486 648 l 1,42,-1
 511 648 l 1,43,-1
 511 673 l 1,44,-1
 586 673 l 1,45,-1
 586 648 l 1,46,-1
 611 648 l 1,47,-1
 611 573 l 1,48,-1
 636 573 l 1,49,-1
 636 498 l 1,50,-1
 661 498 l 1,51,-1
 661 23 l 1,52,-1
 636 23 l 1,53,-1
 636 -2 l 1,54,-1
 611 -2 l 1,55,-1
 611 -27 l 1,56,-1
 561 -27 l 1,57,-1
 561 -2 l 1,58,-1
 536 -2 l 1,59,-1
 536 23 l 1,60,-1
 511 23 l 1,61,-1
 511 273 l 1,62,-1
 486 273 l 1,63,-1
 486 223 l 1,64,-1
 461 223 l 1,65,-1
 461 173 l 1,66,-1
 436 173 l 1,67,-1
 436 123 l 1,68,-1
 411 123 l 1,69,-1
 411 48 l 1,70,-1
 386 48 l 1,71,-1
 386 -2 l 1,72,-1
 311 -2 l 1,73,-1
 311 48 l 1,74,-1
 286 48 l 1,75,-1
 286 98 l 1,76,-1
 261 98 l 1,77,-1
 261 173 l 1,78,-1
 236 173 l 1,79,-1
 236 248 l 1,80,-1
 211 248 l 1,81,-1
 211 273 l 1,0,-1
EndSplineSet
Validated: 1
EndChar

StartChar: n
Encoding: 110 110 150
Width: 523
GlyphClass: 2
Flags: W
LayerCount: 2
Fore
SplineSet
33 623 m 1,0,-1
 58 623 l 1,1,-1
 58 648 l 1,2,-1
 83 648 l 1,3,-1
 83 673 l 1,4,-1
 133 673 l 1,5,-1
 133 648 l 1,6,-1
 158 648 l 1,7,-1
 158 623 l 1,8,-1
 183 623 l 1,9,-1
 183 573 l 1,10,-1
 208 573 l 1,11,-1
 208 523 l 1,12,-1
 233 523 l 1,13,-1
 233 473 l 1,14,-1
 258 473 l 1,15,-1
 258 423 l 1,16,-1
 283 423 l 1,17,-1
 283 373 l 1,18,-1
 308 373 l 1,19,-1
 308 348 l 1,20,-1
 333 348 l 1,21,-1
 333 623 l 1,22,-1
 358 623 l 1,23,-1
 358 648 l 1,24,-1
 383 648 l 1,25,-1
 383 673 l 1,26,-1
 433 673 l 1,27,-1
 433 648 l 1,28,-1
 458 648 l 1,29,-1
 458 623 l 1,30,-1
 483 623 l 1,31,-1
 483 23 l 1,32,-1
 458 23 l 1,33,-1
 458 -2 l 1,34,-1
 433 -2 l 1,35,-1
 433 -27 l 1,36,-1
 383 -27 l 1,37,-1
 383 -2 l 1,38,-1
 358 -2 l 1,39,-1
 358 23 l 1,40,-1
 333 23 l 1,41,-1
 333 48 l 1,42,-1
 308 48 l 1,43,-1
 308 98 l 1,44,-1
 283 98 l 1,45,-1
 283 148 l 1,46,-1
 258 148 l 1,47,-1
 258 198 l 1,48,-1
 233 198 l 1,49,-1
 233 248 l 1,50,-1
 208 248 l 1,51,-1
 208 273 l 1,52,-1
 183 273 l 1,53,-1
 183 23 l 1,54,-1
 158 23 l 1,55,-1
 158 -2 l 1,56,-1
 133 -2 l 1,57,-1
 133 -27 l 1,58,-1
 83 -27 l 1,59,-1
 83 -2 l 1,60,-1
 58 -2 l 1,61,-1
 58 23 l 1,62,-1
 33 23 l 1,63,-1
 33 623 l 1,0,-1
EndSplineSet
Validated: 1
EndChar

StartChar: o
Encoding: 111 111 151
Width: 514
GlyphClass: 2
Flags: W
LayerCount: 2
Fore
SplineSet
21 473 m 1,0,-1
 46 473 l 1,1,-1
 46 548 l 1,2,-1
 71 548 l 1,3,-1
 71 598 l 1,4,-1
 96 598 l 1,5,-1
 96 623 l 1,6,-1
 121 623 l 1,7,-1
 121 648 l 1,8,-1
 171 648 l 1,9,-1
 171 673 l 1,10,-1
 346 673 l 1,11,-1
 346 648 l 1,12,-1
 396 648 l 1,13,-1
 396 623 l 1,14,-1
 421 623 l 1,15,-1
 421 598 l 1,16,-1
 446 598 l 1,17,-1
 446 548 l 1,18,-1
 471 548 l 1,19,-1
 471 473 l 1,20,-1
 496 473 l 1,21,-1
 496 173 l 1,22,-1
 471 173 l 1,23,-1
 471 98 l 1,24,-1
 446 98 l 1,25,-1
 446 48 l 1,26,-1
 421 48 l 1,27,-1
 421 23 l 1,28,-1
 396 23 l 1,29,-1
 396 -2 l 1,30,-1
 346 -2 l 1,31,-1
 346 -27 l 1,32,-1
 171 -27 l 1,33,-1
 171 -2 l 1,34,-1
 121 -2 l 1,35,-1
 121 23 l 1,36,-1
 96 23 l 1,37,-1
 96 48 l 1,38,-1
 71 48 l 1,39,-1
 71 98 l 1,40,-1
 46 98 l 1,41,-1
 46 173 l 1,42,-1
 21 173 l 1,43,-1
 21 473 l 1,0,-1
296 173 m 1,44,-1
 321 173 l 1,45,-1
 321 198 l 1,46,-1
 346 198 l 1,47,-1
 346 423 l 1,48,-1
 321 423 l 1,49,-1
 321 448 l 1,50,-1
 296 448 l 1,51,-1
 296 498 l 1,52,-1
 271 498 l 1,53,-1
 271 523 l 1,54,-1
 246 523 l 1,55,-1
 246 498 l 1,56,-1
 221 498 l 1,57,-1
 221 448 l 1,58,-1
 196 448 l 1,59,-1
 196 423 l 1,60,-1
 171 423 l 1,61,-1
 171 198 l 1,62,-1
 196 198 l 1,63,-1
 196 173 l 1,64,-1
 221 173 l 1,65,-1
 221 123 l 1,66,-1
 246 123 l 1,67,-1
 246 98 l 1,68,-1
 271 98 l 1,69,-1
 271 123 l 1,70,-1
 296 123 l 1,71,-1
 296 173 l 1,44,-1
EndSplineSet
Validated: 1
Substitution2: "Single Substitution lookup 5 subtable" ordmasculine
EndChar

StartChar: p
Encoding: 112 112 152
Width: 468
GlyphClass: 2
Flags: W
LayerCount: 2
Fore
SplineSet
30 23 m 1,0,-1
 30 598 l 1,1,-1
 55 598 l 1,2,-1
 55 623 l 1,3,-1
 80 623 l 1,4,-1
 80 648 l 1,5,-1
 105 648 l 1,6,-1
 105 673 l 1,7,-1
 330 673 l 1,8,-1
 330 648 l 1,9,-1
 355 648 l 1,10,-1
 355 623 l 1,11,-1
 380 623 l 1,12,-1
 380 598 l 1,13,-1
 405 598 l 1,14,-1
 405 573 l 1,15,-1
 430 573 l 1,16,-1
 430 498 l 1,17,-1
 455 498 l 1,18,-1
 455 348 l 1,19,-1
 430 348 l 1,20,-1
 430 273 l 1,21,-1
 405 273 l 1,22,-1
 405 248 l 1,23,-1
 355 248 l 1,24,-1
 355 223 l 1,25,-1
 330 223 l 1,26,-1
 330 198 l 1,27,-1
 280 198 l 1,28,-1
 280 173 l 1,29,-1
 180 173 l 1,30,-1
 180 23 l 1,31,-1
 155 23 l 1,32,-1
 155 -2 l 1,33,-1
 130 -2 l 1,34,-1
 130 -27 l 1,35,-1
 80 -27 l 1,36,-1
 80 -2 l 1,37,-1
 55 -2 l 1,38,-1
 55 23 l 1,39,-1
 30 23 l 1,0,-1
180 273 m 1,40,-1
 230 273 l 1,41,-1
 230 298 l 1,42,-1
 255 298 l 1,43,-1
 255 323 l 1,44,-1
 280 323 l 1,45,-1
 280 348 l 1,46,-1
 305 348 l 1,47,-1
 305 498 l 1,48,-1
 280 498 l 1,49,-1
 280 523 l 1,50,-1
 255 523 l 1,51,-1
 255 548 l 1,52,-1
 230 548 l 1,53,-1
 230 573 l 1,54,-1
 180 573 l 1,55,-1
 180 273 l 1,40,-1
EndSplineSet
Validated: 1
EndChar

StartChar: q
Encoding: 113 113 153
Width: 530
GlyphClass: 2
Flags: W
LayerCount: 2
Fore
SplineSet
21 473 m 1,0,-1
 46 473 l 1,1,-1
 46 548 l 1,2,-1
 71 548 l 1,3,-1
 71 598 l 1,4,-1
 96 598 l 1,5,-1
 96 623 l 1,6,-1
 121 623 l 1,7,-1
 121 648 l 1,8,-1
 171 648 l 1,9,-1
 171 673 l 1,10,-1
 346 673 l 1,11,-1
 346 648 l 1,12,-1
 396 648 l 1,13,-1
 396 623 l 1,14,-1
 421 623 l 1,15,-1
 421 598 l 1,16,-1
 446 598 l 1,17,-1
 446 548 l 1,18,-1
 471 548 l 1,19,-1
 471 473 l 1,20,-1
 496 473 l 1,21,-1
 496 173 l 1,22,-1
 471 173 l 1,23,-1
 471 98 l 1,24,-1
 446 98 l 1,25,-1
 446 23 l 1,26,-1
 471 23 l 1,27,-1
 471 -2 l 1,28,-1
 496 -2 l 1,29,-1
 496 -52 l 1,30,-1
 521 -52 l 1,31,-1
 521 -102 l 1,32,-1
 496 -102 l 1,33,-1
 496 -127 l 1,34,-1
 396 -127 l 1,35,-1
 396 -102 l 1,36,-1
 371 -102 l 1,37,-1
 371 -77 l 1,38,-1
 346 -77 l 1,39,-1
 346 -27 l 1,40,-1
 321 -27 l 1,41,-1
 321 -2 l 1,42,-1
 296 -2 l 1,43,-1
 296 -27 l 1,44,-1
 171 -27 l 1,45,-1
 171 -2 l 1,46,-1
 121 -2 l 1,47,-1
 121 23 l 1,48,-1
 96 23 l 1,49,-1
 96 48 l 1,50,-1
 71 48 l 1,51,-1
 71 98 l 1,52,-1
 46 98 l 1,53,-1
 46 173 l 1,54,-1
 21 173 l 1,55,-1
 21 473 l 1,0,-1
296 173 m 1,56,-1
 321 173 l 1,57,-1
 321 198 l 1,58,-1
 346 198 l 1,59,-1
 346 423 l 1,60,-1
 321 423 l 1,61,-1
 321 448 l 1,62,-1
 296 448 l 1,63,-1
 296 498 l 1,64,-1
 271 498 l 1,65,-1
 271 523 l 1,66,-1
 246 523 l 1,67,-1
 246 498 l 1,68,-1
 221 498 l 1,69,-1
 221 448 l 1,70,-1
 196 448 l 1,71,-1
 196 423 l 1,72,-1
 171 423 l 1,73,-1
 171 198 l 1,74,-1
 196 198 l 1,75,-1
 196 173 l 1,76,-1
 221 173 l 1,77,-1
 221 123 l 1,78,-1
 246 123 l 1,79,-1
 246 98 l 1,80,-1
 271 98 l 1,81,-1
 271 123 l 1,82,-1
 296 123 l 1,83,-1
 296 173 l 1,56,-1
EndSplineSet
Validated: 1
EndChar

StartChar: r
Encoding: 114 114 154
Width: 475
GlyphClass: 2
Flags: W
LayerCount: 2
Fore
SplineSet
30 23 m 1,0,-1
 30 598 l 1,1,-1
 55 598 l 1,2,-1
 55 623 l 1,3,-1
 80 623 l 1,4,-1
 80 648 l 1,5,-1
 105 648 l 1,6,-1
 105 673 l 1,7,-1
 330 673 l 1,8,-1
 330 648 l 1,9,-1
 355 648 l 1,10,-1
 355 623 l 1,11,-1
 380 623 l 1,12,-1
 380 598 l 1,13,-1
 405 598 l 1,14,-1
 405 573 l 1,15,-1
 430 573 l 1,16,-1
 430 498 l 1,17,-1
 455 498 l 1,18,-1
 455 373 l 1,19,-1
 430 373 l 1,20,-1
 430 323 l 1,21,-1
 405 323 l 1,22,-1
 405 298 l 1,23,-1
 380 298 l 1,24,-1
 380 273 l 1,25,-1
 355 273 l 1,26,-1
 355 248 l 1,27,-1
 280 248 l 1,28,-1
 280 223 l 1,29,-1
 305 223 l 1,30,-1
 305 198 l 1,31,-1
 330 198 l 1,32,-1
 330 173 l 1,33,-1
 355 173 l 1,34,-1
 355 148 l 1,35,-1
 380 148 l 1,36,-1
 380 123 l 1,37,-1
 405 123 l 1,38,-1
 405 98 l 1,39,-1
 430 98 l 1,40,-1
 430 73 l 1,41,-1
 455 73 l 1,42,-1
 455 -2 l 1,43,-1
 430 -2 l 1,44,-1
 430 -27 l 1,45,-1
 330 -27 l 1,46,-1
 330 -2 l 1,47,-1
 305 -2 l 1,48,-1
 305 23 l 1,49,-1
 280 23 l 1,50,-1
 280 48 l 1,51,-1
 255 48 l 1,52,-1
 255 73 l 1,53,-1
 230 73 l 1,54,-1
 230 98 l 1,55,-1
 205 98 l 1,56,-1
 205 148 l 1,57,-1
 180 148 l 1,58,-1
 180 23 l 1,59,-1
 155 23 l 1,60,-1
 155 -2 l 1,61,-1
 130 -2 l 1,62,-1
 130 -27 l 1,63,-1
 80 -27 l 1,64,-1
 80 -2 l 1,65,-1
 55 -2 l 1,66,-1
 55 23 l 1,67,-1
 30 23 l 1,0,-1
180 323 m 1,68,-1
 255 323 l 1,69,-1
 255 348 l 1,70,-1
 280 348 l 1,71,-1
 280 373 l 1,72,-1
 305 373 l 1,73,-1
 305 498 l 1,74,-1
 280 498 l 1,75,-1
 280 523 l 1,76,-1
 255 523 l 1,77,-1
 255 548 l 1,78,-1
 230 548 l 1,79,-1
 230 573 l 1,80,-1
 180 573 l 1,81,-1
 180 323 l 1,68,-1
EndSplineSet
Validated: 1
EndChar

StartChar: s
Encoding: 115 115 155
Width: 466
GlyphClass: 2
Flags: W
LayerCount: 2
Fore
SplineSet
143 273 m 1,0,-1
 118 273 l 1,1,-1
 118 298 l 1,2,-1
 68 298 l 1,3,-1
 68 323 l 1,4,-1
 43 323 l 1,5,-1
 43 373 l 1,6,-1
 18 373 l 1,7,-1
 18 523 l 1,8,-1
 43 523 l 1,9,-1
 43 573 l 1,10,-1
 68 573 l 1,11,-1
 68 598 l 1,12,-1
 93 598 l 1,13,-1
 93 623 l 1,14,-1
 118 623 l 1,15,-1
 118 648 l 1,16,-1
 143 648 l 1,17,-1
 143 673 l 1,18,-1
 343 673 l 1,19,-1
 343 648 l 1,20,-1
 368 648 l 1,21,-1
 368 623 l 1,22,-1
 393 623 l 1,23,-1
 393 598 l 1,24,-1
 418 598 l 1,25,-1
 418 548 l 1,26,-1
 443 548 l 1,27,-1
 443 373 l 1,28,-1
 418 373 l 1,29,-1
 418 348 l 1,30,-1
 343 348 l 1,31,-1
 343 373 l 1,32,-1
 318 373 l 1,33,-1
 318 498 l 1,34,-1
 293 498 l 1,35,-1
 293 523 l 1,36,-1
 268 523 l 1,37,-1
 268 548 l 1,38,-1
 193 548 l 1,39,-1
 193 523 l 1,40,-1
 168 523 l 1,41,-1
 168 498 l 1,42,-1
 143 498 l 1,43,-1
 143 423 l 1,44,-1
 168 423 l 1,45,-1
 168 398 l 1,46,-1
 193 398 l 1,47,-1
 193 348 l 1,48,-1
 243 348 l 1,49,-1
 243 323 l 1,50,-1
 268 323 l 1,51,-1
 268 298 l 1,52,-1
 318 298 l 1,53,-1
 318 273 l 1,54,-1
 368 273 l 1,55,-1
 368 248 l 1,56,-1
 393 248 l 1,57,-1
 393 223 l 1,58,-1
 418 223 l 1,59,-1
 418 198 l 1,60,-1
 443 198 l 1,61,-1
 443 48 l 1,62,-1
 418 48 l 1,63,-1
 418 23 l 1,64,-1
 393 23 l 1,65,-1
 393 -2 l 1,66,-1
 343 -2 l 1,67,-1
 343 -27 l 1,68,-1
 143 -27 l 1,69,-1
 143 -2 l 1,70,-1
 93 -2 l 1,71,-1
 93 23 l 1,72,-1
 43 23 l 1,73,-1
 43 73 l 1,74,-1
 18 73 l 1,75,-1
 18 198 l 1,76,-1
 43 198 l 1,77,-1
 43 223 l 1,78,-1
 93 223 l 1,79,-1
 93 198 l 1,80,-1
 118 198 l 1,81,-1
 118 148 l 1,82,-1
 143 148 l 1,83,-1
 143 123 l 1,84,-1
 193 123 l 1,85,-1
 193 98 l 1,86,-1
 293 98 l 1,87,-1
 293 123 l 1,88,-1
 318 123 l 1,89,-1
 318 148 l 1,90,-1
 293 148 l 1,91,-1
 293 173 l 1,92,-1
 268 173 l 1,93,-1
 268 198 l 1,94,-1
 218 198 l 1,95,-1
 218 223 l 1,96,-1
 168 223 l 1,97,-1
 168 248 l 1,98,-1
 143 248 l 1,99,-1
 143 273 l 1,0,-1
EndSplineSet
Validated: 1
EndChar

StartChar: t
Encoding: 116 116 156
Width: 420
GlyphClass: 2
Flags: W
LayerCount: 2
Fore
SplineSet
135 23 m 1,0,-1
 135 548 l 1,1,-1
 10 548 l 1,2,-1
 10 623 l 1,3,-1
 35 623 l 1,4,-1
 35 648 l 1,5,-1
 60 648 l 1,6,-1
 60 673 l 1,7,-1
 360 673 l 1,8,-1
 360 648 l 1,9,-1
 385 648 l 1,10,-1
 385 623 l 1,11,-1
 410 623 l 1,12,-1
 410 548 l 1,13,-1
 285 548 l 1,14,-1
 285 23 l 1,15,-1
 260 23 l 1,16,-1
 260 -2 l 1,17,-1
 235 -2 l 1,18,-1
 235 -27 l 1,19,-1
 185 -27 l 1,20,-1
 185 -2 l 1,21,-1
 160 -2 l 1,22,-1
 160 23 l 1,23,-1
 135 23 l 1,0,-1
EndSplineSet
Validated: 1
EndChar

StartChar: u
Encoding: 117 117 157
Width: 467
GlyphClass: 2
Flags: W
LayerCount: 2
Fore
SplineSet
33 623 m 1,0,-1
 58 623 l 1,1,-1
 58 648 l 1,2,-1
 83 648 l 1,3,-1
 83 673 l 1,4,-1
 133 673 l 1,5,-1
 133 648 l 1,6,-1
 158 648 l 1,7,-1
 158 623 l 1,8,-1
 183 623 l 1,9,-1
 183 173 l 1,10,-1
 208 173 l 1,11,-1
 208 148 l 1,12,-1
 233 148 l 1,13,-1
 233 173 l 1,14,-1
 258 173 l 1,15,-1
 258 198 l 1,16,-1
 283 198 l 1,17,-1
 283 623 l 1,18,-1
 308 623 l 1,19,-1
 308 648 l 1,20,-1
 333 648 l 1,21,-1
 333 673 l 1,22,-1
 383 673 l 1,23,-1
 383 648 l 1,24,-1
 408 648 l 1,25,-1
 408 623 l 1,26,-1
 433 623 l 1,27,-1
 433 23 l 1,28,-1
 408 23 l 1,29,-1
 408 -2 l 1,30,-1
 383 -2 l 1,31,-1
 383 -27 l 1,32,-1
 333 -27 l 1,33,-1
 333 -2 l 1,34,-1
 308 -2 l 1,35,-1
 308 73 l 1,36,-1
 283 73 l 1,37,-1
 283 48 l 1,38,-1
 258 48 l 1,39,-1
 258 23 l 1,40,-1
 233 23 l 1,41,-1
 233 -2 l 1,42,-1
 208 -2 l 1,43,-1
 208 -27 l 1,44,-1
 108 -27 l 1,45,-1
 108 -2 l 1,46,-1
 83 -2 l 1,47,-1
 83 23 l 1,48,-1
 58 23 l 1,49,-1
 58 73 l 1,50,-1
 33 73 l 1,51,-1
 33 623 l 1,0,-1
EndSplineSet
Validated: 1
EndChar

StartChar: v
Encoding: 118 118 158
Width: 489
GlyphClass: 2
Flags: W
LayerCount: 2
Fore
SplineSet
431 323 m 1,0,-1
 406 323 l 1,1,-1
 406 223 l 1,2,-1
 381 223 l 1,3,-1
 381 123 l 1,4,-1
 356 123 l 1,5,-1
 356 23 l 1,6,-1
 331 23 l 1,7,-1
 331 -2 l 1,8,-1
 281 -2 l 1,9,-1
 281 -27 l 1,10,-1
 206 -27 l 1,11,-1
 206 -2 l 1,12,-1
 156 -2 l 1,13,-1
 156 23 l 1,14,-1
 131 23 l 1,15,-1
 131 123 l 1,16,-1
 106 123 l 1,17,-1
 106 223 l 1,18,-1
 81 223 l 1,19,-1
 81 323 l 1,20,-1
 56 323 l 1,21,-1
 56 423 l 1,22,-1
 31 423 l 1,23,-1
 31 523 l 1,24,-1
 6 523 l 1,25,-1
 6 648 l 1,26,-1
 31 648 l 1,27,-1
 31 673 l 1,28,-1
 131 673 l 1,29,-1
 131 623 l 1,30,-1
 156 623 l 1,31,-1
 156 523 l 1,32,-1
 181 523 l 1,33,-1
 181 348 l 1,34,-1
 206 348 l 1,35,-1
 206 248 l 1,36,-1
 231 248 l 1,37,-1
 231 173 l 1,38,-1
 256 173 l 1,39,-1
 256 248 l 1,40,-1
 281 248 l 1,41,-1
 281 348 l 1,42,-1
 306 348 l 1,43,-1
 306 523 l 1,44,-1
 331 523 l 1,45,-1
 331 623 l 1,46,-1
 356 623 l 1,47,-1
 356 673 l 1,48,-1
 456 673 l 1,49,-1
 456 648 l 1,50,-1
 481 648 l 1,51,-1
 481 523 l 1,52,-1
 456 523 l 1,53,-1
 456 423 l 1,54,-1
 431 423 l 1,55,-1
 431 323 l 1,0,-1
EndSplineSet
Validated: 1
EndChar

StartChar: w
Encoding: 119 119 159
Width: 673
GlyphClass: 2
Flags: W
LayerCount: 2
Fore
SplineSet
281 573 m 1,0,-1
 306 573 l 1,1,-1
 306 598 l 1,2,-1
 356 598 l 1,3,-1
 356 573 l 1,4,-1
 381 573 l 1,5,-1
 381 523 l 1,6,-1
 406 523 l 1,7,-1
 406 448 l 1,8,-1
 431 448 l 1,9,-1
 431 348 l 1,10,-1
 456 348 l 1,11,-1
 456 223 l 1,12,-1
 481 223 l 1,13,-1
 481 323 l 1,14,-1
 506 323 l 1,15,-1
 506 523 l 1,16,-1
 531 523 l 1,17,-1
 531 648 l 1,18,-1
 556 648 l 1,19,-1
 556 673 l 1,20,-1
 631 673 l 1,21,-1
 631 648 l 1,22,-1
 656 648 l 1,23,-1
 656 523 l 1,24,-1
 631 523 l 1,25,-1
 631 298 l 1,26,-1
 606 298 l 1,27,-1
 606 98 l 1,28,-1
 581 98 l 1,29,-1
 581 -2 l 1,30,-1
 531 -2 l 1,31,-1
 531 -27 l 1,32,-1
 456 -27 l 1,33,-1
 456 23 l 1,34,-1
 431 23 l 1,35,-1
 431 73 l 1,36,-1
 406 73 l 1,37,-1
 406 148 l 1,38,-1
 381 148 l 1,39,-1
 381 248 l 1,40,-1
 356 248 l 1,41,-1
 356 323 l 1,42,-1
 306 323 l 1,43,-1
 306 248 l 1,44,-1
 281 248 l 1,45,-1
 281 148 l 1,46,-1
 256 148 l 1,47,-1
 256 73 l 1,48,-1
 231 73 l 1,49,-1
 231 23 l 1,50,-1
 206 23 l 1,51,-1
 206 -27 l 1,52,-1
 131 -27 l 1,53,-1
 131 -2 l 1,54,-1
 81 -2 l 1,55,-1
 81 98 l 1,56,-1
 56 98 l 1,57,-1
 56 298 l 1,58,-1
 31 298 l 1,59,-1
 31 523 l 1,60,-1
 6 523 l 1,61,-1
 6 648 l 1,62,-1
 31 648 l 1,63,-1
 31 673 l 1,64,-1
 106 673 l 1,65,-1
 106 648 l 1,66,-1
 131 648 l 1,67,-1
 131 523 l 1,68,-1
 156 523 l 1,69,-1
 156 323 l 1,70,-1
 181 323 l 1,71,-1
 181 223 l 1,72,-1
 206 223 l 1,73,-1
 206 348 l 1,74,-1
 231 348 l 1,75,-1
 231 448 l 1,76,-1
 256 448 l 1,77,-1
 256 523 l 1,78,-1
 281 523 l 1,79,-1
 281 573 l 1,0,-1
EndSplineSet
Validated: 1
EndChar

StartChar: x
Encoding: 120 120 160
Width: 500
GlyphClass: 2
Flags: W
LayerCount: 2
Fore
SplineSet
135 273 m 1,0,-1
 160 273 l 1,1,-1
 160 298 l 1,2,-1
 185 298 l 1,3,-1
 185 323 l 1,4,-1
 160 323 l 1,5,-1
 160 348 l 1,6,-1
 135 348 l 1,7,-1
 135 373 l 1,8,-1
 110 373 l 1,9,-1
 110 423 l 1,10,-1
 85 423 l 1,11,-1
 85 473 l 1,12,-1
 60 473 l 1,13,-1
 60 498 l 1,14,-1
 35 498 l 1,15,-1
 35 548 l 1,16,-1
 10 548 l 1,17,-1
 10 648 l 1,18,-1
 35 648 l 1,19,-1
 35 673 l 1,20,-1
 110 673 l 1,21,-1
 110 648 l 1,22,-1
 135 648 l 1,23,-1
 135 623 l 1,24,-1
 160 623 l 1,25,-1
 160 573 l 1,26,-1
 185 573 l 1,27,-1
 185 523 l 1,28,-1
 210 523 l 1,29,-1
 210 473 l 1,30,-1
 235 473 l 1,31,-1
 235 448 l 1,32,-1
 260 448 l 1,33,-1
 260 473 l 1,34,-1
 285 473 l 1,35,-1
 285 498 l 1,36,-1
 310 498 l 1,37,-1
 310 573 l 1,38,-1
 335 573 l 1,39,-1
 335 623 l 1,40,-1
 360 623 l 1,41,-1
 360 648 l 1,42,-1
 385 648 l 1,43,-1
 385 673 l 1,44,-1
 460 673 l 1,45,-1
 460 648 l 1,46,-1
 485 648 l 1,47,-1
 485 548 l 1,48,-1
 460 548 l 1,49,-1
 460 498 l 1,50,-1
 435 498 l 1,51,-1
 435 448 l 1,52,-1
 410 448 l 1,53,-1
 410 423 l 1,54,-1
 385 423 l 1,55,-1
 385 373 l 1,56,-1
 360 373 l 1,57,-1
 360 323 l 1,58,-1
 335 323 l 1,59,-1
 335 298 l 1,60,-1
 360 298 l 1,61,-1
 360 248 l 1,62,-1
 385 248 l 1,63,-1
 385 223 l 1,64,-1
 410 223 l 1,65,-1
 410 198 l 1,66,-1
 435 198 l 1,67,-1
 435 148 l 1,68,-1
 460 148 l 1,69,-1
 460 123 l 1,70,-1
 485 123 l 1,71,-1
 485 -2 l 1,72,-1
 460 -2 l 1,73,-1
 460 -27 l 1,74,-1
 385 -27 l 1,75,-1
 385 -2 l 1,76,-1
 360 -2 l 1,77,-1
 360 23 l 1,78,-1
 335 23 l 1,79,-1
 335 73 l 1,80,-1
 310 73 l 1,81,-1
 310 98 l 1,82,-1
 285 98 l 1,83,-1
 285 148 l 1,84,-1
 260 148 l 1,85,-1
 260 198 l 1,86,-1
 235 198 l 1,87,-1
 235 148 l 1,88,-1
 210 148 l 1,89,-1
 210 98 l 1,90,-1
 185 98 l 1,91,-1
 185 48 l 1,92,-1
 160 48 l 1,93,-1
 160 -2 l 1,94,-1
 135 -2 l 1,95,-1
 135 -27 l 1,96,-1
 35 -27 l 1,97,-1
 35 -2 l 1,98,-1
 10 -2 l 1,99,-1
 10 98 l 1,100,-1
 35 98 l 1,101,-1
 35 148 l 1,102,-1
 60 148 l 1,103,-1
 60 173 l 1,104,-1
 85 173 l 1,105,-1
 85 198 l 1,106,-1
 110 198 l 1,107,-1
 110 223 l 1,108,-1
 135 223 l 1,109,-1
 135 273 l 1,0,-1
EndSplineSet
Validated: 1
EndChar

StartChar: y
Encoding: 121 121 161
Width: 473
GlyphClass: 2
Flags: W
LayerCount: 2
Fore
SplineSet
51 273 m 1,0,-1
 26 273 l 1,1,-1
 26 623 l 1,2,-1
 51 623 l 1,3,-1
 51 648 l 1,4,-1
 76 648 l 1,5,-1
 76 673 l 1,6,-1
 126 673 l 1,7,-1
 126 648 l 1,8,-1
 151 648 l 1,9,-1
 151 623 l 1,10,-1
 176 623 l 1,11,-1
 176 373 l 1,12,-1
 201 373 l 1,13,-1
 201 348 l 1,14,-1
 276 348 l 1,15,-1
 276 373 l 1,16,-1
 301 373 l 1,17,-1
 301 623 l 1,18,-1
 326 623 l 1,19,-1
 326 648 l 1,20,-1
 351 648 l 1,21,-1
 351 673 l 1,22,-1
 401 673 l 1,23,-1
 401 648 l 1,24,-1
 426 648 l 1,25,-1
 426 623 l 1,26,-1
 451 623 l 1,27,-1
 451 123 l 1,28,-1
 426 123 l 1,29,-1
 426 73 l 1,30,-1
 401 73 l 1,31,-1
 401 48 l 1,32,-1
 376 48 l 1,33,-1
 376 23 l 1,34,-1
 351 23 l 1,35,-1
 351 -2 l 1,36,-1
 326 -2 l 1,37,-1
 326 -27 l 1,38,-1
 101 -27 l 1,39,-1
 101 -2 l 1,40,-1
 51 -2 l 1,41,-1
 51 23 l 1,42,-1
 26 23 l 1,43,-1
 26 123 l 1,44,-1
 51 123 l 1,45,-1
 51 148 l 1,46,-1
 126 148 l 1,47,-1
 126 123 l 1,48,-1
 151 123 l 1,49,-1
 151 98 l 1,50,-1
 176 98 l 1,51,-1
 176 73 l 1,52,-1
 251 73 l 1,53,-1
 251 98 l 1,54,-1
 276 98 l 1,55,-1
 276 123 l 1,56,-1
 301 123 l 1,57,-1
 301 248 l 1,58,-1
 276 248 l 1,59,-1
 276 223 l 1,60,-1
 226 223 l 1,61,-1
 226 198 l 1,62,-1
 101 198 l 1,63,-1
 101 223 l 1,64,-1
 76 223 l 1,65,-1
 76 248 l 1,66,-1
 51 248 l 1,67,-1
 51 273 l 1,0,-1
EndSplineSet
Validated: 1
EndChar

StartChar: z
Encoding: 122 122 162
Width: 448
GlyphClass: 2
Flags: W
LayerCount: 2
Fore
SplineSet
118 298 m 1,0,-1
 143 298 l 1,1,-1
 143 348 l 1,2,-1
 168 348 l 1,3,-1
 168 398 l 1,4,-1
 193 398 l 1,5,-1
 193 448 l 1,6,-1
 218 448 l 1,7,-1
 218 473 l 1,8,-1
 243 473 l 1,9,-1
 243 523 l 1,10,-1
 43 523 l 1,11,-1
 43 548 l 1,12,-1
 18 548 l 1,13,-1
 18 648 l 1,14,-1
 43 648 l 1,15,-1
 43 673 l 1,16,-1
 393 673 l 1,17,-1
 393 648 l 1,18,-1
 418 648 l 1,19,-1
 418 498 l 1,20,-1
 393 498 l 1,21,-1
 393 448 l 1,22,-1
 368 448 l 1,23,-1
 368 398 l 1,24,-1
 343 398 l 1,25,-1
 343 348 l 1,26,-1
 318 348 l 1,27,-1
 318 298 l 1,28,-1
 293 298 l 1,29,-1
 293 248 l 1,30,-1
 268 248 l 1,31,-1
 268 198 l 1,32,-1
 243 198 l 1,33,-1
 243 173 l 1,34,-1
 218 173 l 1,35,-1
 218 123 l 1,36,-1
 193 123 l 1,37,-1
 193 98 l 1,38,-1
 393 98 l 1,39,-1
 393 73 l 1,40,-1
 418 73 l 1,41,-1
 418 -2 l 1,42,-1
 393 -2 l 1,43,-1
 393 -27 l 1,44,-1
 43 -27 l 1,45,-1
 43 -2 l 1,46,-1
 18 -2 l 1,47,-1
 18 123 l 1,48,-1
 43 123 l 1,49,-1
 43 173 l 1,50,-1
 68 173 l 1,51,-1
 68 198 l 1,52,-1
 93 198 l 1,53,-1
 93 248 l 1,54,-1
 118 248 l 1,55,-1
 118 298 l 1,0,-1
EndSplineSet
Validated: 1
EndChar

StartChar: dotlessi
Encoding: 305 305 163
Width: 215
GlyphClass: 2
Flags: W
LayerCount: 2
Fore
SplineSet
33 623 m 1,0,-1
 58 623 l 1,1,-1
 58 648 l 1,2,-1
 83 648 l 1,3,-1
 83 673 l 1,4,-1
 133 673 l 1,5,-1
 133 648 l 1,6,-1
 158 648 l 1,7,-1
 158 623 l 1,8,-1
 183 623 l 1,9,-1
 183 23 l 1,10,-1
 158 23 l 1,11,-1
 158 -2 l 1,12,-1
 133 -2 l 1,13,-1
 133 -27 l 1,14,-1
 83 -27 l 1,15,-1
 83 -2 l 1,16,-1
 58 -2 l 1,17,-1
 58 23 l 1,18,-1
 33 23 l 1,19,-1
 33 623 l 1,0,-1
EndSplineSet
Validated: 1
EndChar

StartChar: fi
Encoding: 64257 64257 164
Width: 588
GlyphClass: 3
Flags: W
LayerCount: 2
Fore
SplineSet
30 23 m 1,0,-1
 30 598 l 1,1,-1
 55 598 l 1,2,-1
 55 623 l 1,3,-1
 80 623 l 1,4,-1
 80 648 l 1,5,-1
 105 648 l 1,6,-1
 105 673 l 1,7,-1
 330 673 l 1,8,-1
 330 648 l 1,9,-1
 355 648 l 1,10,-1
 355 623 l 1,11,-1
 380 623 l 1,12,-1
 380 548 l 1,13,-1
 180 548 l 1,14,-1
 180 348 l 1,15,-1
 330 348 l 1,16,-1
 330 323 l 1,17,-1
 355 323 l 1,18,-1
 355 273 l 1,19,-1
 330 273 l 1,20,-1
 330 248 l 1,21,-1
 180 248 l 1,22,-1
 180 23 l 1,23,-1
 155 23 l 1,24,-1
 155 -2 l 1,25,-1
 130 -2 l 1,26,-1
 130 -27 l 1,27,-1
 80 -27 l 1,28,-1
 80 -2 l 1,29,-1
 55 -2 l 1,30,-1
 55 23 l 1,31,-1
 30 23 l 1,0,-1
406 623 m 1,32,-1
 431 623 l 1,33,-1
 431 648 l 1,34,-1
 456 648 l 1,35,-1
 456 673 l 1,36,-1
 506 673 l 1,37,-1
 506 648 l 1,38,-1
 531 648 l 1,39,-1
 531 623 l 1,40,-1
 556 623 l 1,41,-1
 556 23 l 1,42,-1
 531 23 l 1,43,-1
 531 -2 l 1,44,-1
 506 -2 l 1,45,-1
 506 -27 l 1,46,-1
 456 -27 l 1,47,-1
 456 -2 l 1,48,-1
 431 -2 l 1,49,-1
 431 23 l 1,50,-1
 406 23 l 1,51,-1
 406 623 l 1,32,-1
EndSplineSet
Validated: 1
Ligature2: "'liga' Standard Ligatures lookup 4 subtable" f i
EndChar

StartChar: fl
Encoding: 64258 64258 165
Width: 721
GlyphClass: 3
Flags: W
LayerCount: 2
Fore
SplineSet
30 23 m 1,0,-1
 30 598 l 1,1,-1
 55 598 l 1,2,-1
 55 623 l 1,3,-1
 80 623 l 1,4,-1
 80 648 l 1,5,-1
 105 648 l 1,6,-1
 105 673 l 1,7,-1
 330 673 l 1,8,-1
 330 648 l 1,9,-1
 355 648 l 1,10,-1
 355 623 l 1,11,-1
 380 623 l 1,12,-1
 380 548 l 1,13,-1
 180 548 l 1,14,-1
 180 348 l 1,15,-1
 330 348 l 1,16,-1
 330 323 l 1,17,-1
 355 323 l 1,18,-1
 355 273 l 1,19,-1
 330 273 l 1,20,-1
 330 248 l 1,21,-1
 180 248 l 1,22,-1
 180 23 l 1,23,-1
 155 23 l 1,24,-1
 155 -2 l 1,25,-1
 130 -2 l 1,26,-1
 130 -27 l 1,27,-1
 80 -27 l 1,28,-1
 80 -2 l 1,29,-1
 55 -2 l 1,30,-1
 55 23 l 1,31,-1
 30 23 l 1,0,-1
403 623 m 1,32,-1
 428 623 l 1,33,-1
 428 648 l 1,34,-1
 453 648 l 1,35,-1
 453 673 l 1,36,-1
 503 673 l 1,37,-1
 503 648 l 1,38,-1
 528 648 l 1,39,-1
 528 623 l 1,40,-1
 553 623 l 1,41,-1
 553 98 l 1,42,-1
 678 98 l 1,43,-1
 678 73 l 1,44,-1
 703 73 l 1,45,-1
 703 -2 l 1,46,-1
 678 -2 l 1,47,-1
 678 -27 l 1,48,-1
 478 -27 l 1,49,-1
 478 -2 l 1,50,-1
 453 -2 l 1,51,-1
 453 23 l 1,52,-1
 428 23 l 1,53,-1
 428 48 l 1,54,-1
 403 48 l 1,55,-1
 403 623 l 1,32,-1
EndSplineSet
Validated: 1
Ligature2: "'liga' Standard Ligatures lookup 4 subtable" f l
EndChar

StartChar: Agrave
Encoding: 192 192 166
Width: 491
GlyphClass: 2
Flags: W
LayerCount: 2
Fore
SplineSet
221 741 m 1,0,-1
 221 766 l 1,1,-1
 171 766 l 1,2,-1
 171 791 l 1,3,-1
 146 791 l 1,4,-1
 146 841 l 1,5,-1
 171 841 l 1,6,-1
 171 866 l 1,7,-1
 221 866 l 1,8,-1
 221 841 l 1,9,-1
 271 841 l 1,10,-1
 271 816 l 1,11,-1
 296 816 l 1,12,-1
 296 791 l 1,13,-1
 321 791 l 1,14,-1
 321 766 l 1,15,-1
 346 766 l 1,16,-1
 346 741 l 1,17,-1
 321 741 l 1,18,-1
 321 716 l 1,19,-1
 271 716 l 1,20,-1
 271 741 l 1,21,-1
 221 741 l 1,0,-1
56 323 m 1,22,-1
 81 323 l 1,23,-1
 81 423 l 1,24,-1
 106 423 l 1,25,-1
 106 523 l 1,26,-1
 131 523 l 1,27,-1
 131 623 l 1,28,-1
 156 623 l 1,29,-1
 156 648 l 1,30,-1
 206 648 l 1,31,-1
 206 673 l 1,32,-1
 281 673 l 1,33,-1
 281 648 l 1,34,-1
 331 648 l 1,35,-1
 331 623 l 1,36,-1
 356 623 l 1,37,-1
 356 523 l 1,38,-1
 381 523 l 1,39,-1
 381 423 l 1,40,-1
 406 423 l 1,41,-1
 406 323 l 1,42,-1
 431 323 l 1,43,-1
 431 223 l 1,44,-1
 456 223 l 1,45,-1
 456 123 l 1,46,-1
 481 123 l 1,47,-1
 481 -2 l 1,48,-1
 456 -2 l 1,49,-1
 456 -27 l 1,50,-1
 356 -27 l 1,51,-1
 356 23 l 1,52,-1
 331 23 l 1,53,-1
 331 98 l 1,54,-1
 156 98 l 1,55,-1
 156 23 l 1,56,-1
 131 23 l 1,57,-1
 131 -27 l 1,58,-1
 31 -27 l 1,59,-1
 31 -2 l 1,60,-1
 6 -2 l 1,61,-1
 6 123 l 1,62,-1
 31 123 l 1,63,-1
 31 223 l 1,64,-1
 56 223 l 1,65,-1
 56 323 l 1,22,-1
306 298 m 1,66,-1
 281 298 l 1,67,-1
 281 398 l 1,68,-1
 256 398 l 1,69,-1
 256 473 l 1,70,-1
 231 473 l 1,71,-1
 231 398 l 1,72,-1
 206 398 l 1,73,-1
 206 298 l 1,74,-1
 181 298 l 1,75,-1
 181 223 l 1,76,-1
 306 223 l 1,77,-1
 306 298 l 1,66,-1
EndSplineSet
Validated: 1
EndChar

